<svg width="100" height="64" viewBox="0 0 100 64" fill="none" xmlns="http://www.w3.org/2000/svg">
<g clip-path="url(#clip0_21_7899)">
<path fill-rule="evenodd" clip-rule="evenodd" d="M40.8235 0.103807C40.6854 0.153795 40.44 0.195199 40.2783 0.195704C40.1165 0.196209 39.9046 0.228714 39.8075 0.267846C39.7103 0.307042 39.3624 0.361827 39.0344 0.389661C38.7064 0.417432 38.333 0.48484 38.2046 0.53931C38.0763 0.593842 37.8204 0.638466 37.636 0.638466C37.4384 0.638466 37.2507 0.676526 37.1788 0.731121C37.1101 0.783382 36.9185 0.82466 36.7394 0.825796C36.5603 0.826932 36.3687 0.86821 36.3 0.92047C36.233 0.971468 36.0788 1.01407 35.9575 1.01514C35.8362 1.01628 35.6314 1.07397 35.5026 1.1434C35.3738 1.21283 35.1729 1.26963 35.0561 1.26963C34.9394 1.26963 34.8087 1.31223 34.7657 1.3643C34.7227 1.41638 34.5851 1.45986 34.4599 1.461C34.3346 1.46207 34.1773 1.50468 34.1103 1.55567C34.0432 1.60661 33.9231 1.64833 33.8432 1.64833C33.7634 1.64833 33.5927 1.70513 33.4638 1.77456C33.335 1.84399 33.1691 1.90079 33.0951 1.90079C33.0211 1.90079 32.9255 1.9434 32.8825 1.99547C32.8395 2.04754 32.7345 2.09014 32.6491 2.09014C32.5637 2.09014 32.4188 2.12921 32.3272 2.17699C31.9461 2.37562 31.5758 2.53196 31.4866 2.53196C31.4341 2.53196 31.3561 2.57456 31.3131 2.62663C31.2701 2.6787 31.1698 2.72131 31.0902 2.72131C31.0106 2.72131 30.9031 2.76391 30.8513 2.81598C30.7995 2.86805 30.7029 2.91066 30.6367 2.91066C30.5704 2.91066 30.4511 2.96746 30.3715 3.03689C30.2919 3.10632 30.1737 3.16312 30.1088 3.16312C30.0439 3.16312 29.9746 3.20572 29.9548 3.2578C29.9349 3.30987 29.8545 3.35247 29.7761 3.35247C29.6977 3.35247 29.5984 3.39507 29.5554 3.44715C29.5124 3.49922 29.424 3.54182 29.3588 3.54182C29.2937 3.54182 29.192 3.59862 29.1328 3.66805C29.0737 3.73748 28.9601 3.79429 28.8803 3.79429C28.8006 3.79429 28.7191 3.83689 28.6993 3.88896C28.6794 3.94103 28.6252 3.98363 28.5788 3.98363C28.5325 3.98363 28.3704 4.06783 28.2188 4.17077C28.067 4.27372 27.8679 4.38663 27.7761 4.42173C27.6844 4.45676 27.6094 4.51457 27.6094 4.5501C27.6094 4.5857 27.5659 4.6148 27.5127 4.6148C27.4213 4.6148 27.1176 4.80459 26.9318 4.97772C26.8852 5.02114 26.8082 5.05661 26.7606 5.05661C26.713 5.05661 26.6515 5.09215 26.6238 5.13551C26.5672 5.22463 26.392 5.3424 26.1783 5.435C26.0991 5.46939 25.9437 5.58281 25.8331 5.68702C25.7225 5.79129 25.601 5.87668 25.5631 5.87681C25.5253 5.877 25.4291 5.93393 25.3495 6.00336C25.2699 6.07279 25.1808 6.12959 25.1516 6.12959C25.1223 6.12959 25.0984 6.16891 25.0984 6.21688C25.0984 6.26491 25.049 6.32218 24.9886 6.34414C24.8071 6.41016 24.6054 6.54227 24.3911 6.73565C24.2797 6.83626 23.9906 7.07187 23.7489 7.25927C23.5072 7.44666 23.1768 7.73782 23.0147 7.90621C22.8527 8.07467 22.7065 8.21245 22.6899 8.21245C22.5914 8.21245 20.9861 9.7891 20.5473 10.3168C20.4092 10.4829 20.1319 10.7945 19.9312 11.0093C19.7305 11.2241 19.4213 11.5916 19.2441 11.8259C19.0669 12.0602 18.8992 12.2519 18.8714 12.2519C18.8437 12.2519 18.821 12.2945 18.821 12.3466C18.821 12.3986 18.7955 12.4412 18.7644 12.4412C18.7161 12.4412 18.4689 12.7917 18.3895 12.9728C18.3754 13.0047 18.2864 13.1071 18.1915 13.2003C18.0967 13.2935 17.9999 13.4307 17.9764 13.5051C17.9529 13.5796 17.9066 13.6405 17.8736 13.6405C17.8405 13.6405 17.7866 13.7115 17.7538 13.7983C17.721 13.885 17.6682 13.956 17.6366 13.956C17.605 13.956 17.5613 14.027 17.5397 14.1138C17.518 14.2006 17.4726 14.2716 17.4387 14.2716C17.4048 14.2716 17.3771 14.3049 17.3771 14.3455C17.3771 14.3862 17.3302 14.4716 17.2729 14.5353C17.1599 14.6609 17.0429 14.8522 16.942 15.0764C16.9068 15.1545 16.8491 15.2184 16.8137 15.2184C16.7783 15.2184 16.7494 15.2754 16.7494 15.3452C16.7494 15.415 16.6929 15.5207 16.6239 15.5802C16.5548 15.6396 16.4983 15.721 16.4983 15.7612C16.4983 15.8012 16.4559 15.8694 16.4041 15.9126C16.3524 15.9559 16.31 16.0415 16.31 16.1029C16.31 16.1644 16.2676 16.2311 16.2158 16.2511C16.164 16.271 16.1217 16.3529 16.1217 16.4331C16.1217 16.5133 16.0652 16.6275 15.9961 16.687C15.9271 16.7464 15.8706 16.853 15.8706 16.9239C15.8706 16.9947 15.8282 17.0691 15.7764 17.089C15.7246 17.109 15.6822 17.187 15.6822 17.2624C15.6822 17.3378 15.6257 17.448 15.5567 17.5075C15.4876 17.5669 15.4311 17.6692 15.4311 17.7347C15.4311 17.8002 15.3888 17.8891 15.337 17.9324C15.2852 17.9756 15.2428 18.0755 15.2428 18.1542C15.2428 18.2331 15.2004 18.3139 15.1486 18.3339C15.0969 18.3539 15.0545 18.4328 15.0545 18.5093C15.0545 18.5857 15.0128 18.6946 14.9618 18.7512C14.9109 18.8079 14.8607 18.9097 14.8504 18.9777C14.8401 19.0456 14.7829 19.1712 14.7233 19.2567C14.6638 19.3422 14.6151 19.4777 14.6151 19.5579C14.6151 19.638 14.5727 19.72 14.5209 19.7399C14.4626 19.7624 14.4267 19.8585 14.4267 19.9924C14.4267 20.1195 14.3905 20.2225 14.3387 20.2425C14.2903 20.2611 14.2315 20.3795 14.208 20.5055C14.1845 20.6315 14.1252 20.792 14.0763 20.8623C14.0274 20.9325 13.9873 21.0655 13.9873 21.1576C13.9873 21.2498 13.9449 21.3605 13.8932 21.4038C13.8414 21.447 13.799 21.5748 13.799 21.6878C13.799 21.8008 13.7566 21.9286 13.7048 21.9718C13.653 22.0151 13.6107 22.1322 13.6107 22.2322C13.6107 22.3323 13.5542 22.5201 13.4851 22.6496C13.4161 22.7791 13.3596 22.9744 13.3596 23.0835C13.3596 23.1926 13.3172 23.3171 13.2654 23.3604C13.2056 23.4103 13.1712 23.5497 13.1712 23.7423C13.1712 23.9278 13.1346 24.0824 13.0771 24.1403C13.0226 24.1951 12.9827 24.3499 12.9825 24.5078C12.9823 24.6577 12.9386 24.8644 12.8854 24.967C12.8322 25.0696 12.7727 25.2685 12.7532 25.4088C12.7229 25.6271 12.684 25.6802 12.4846 25.7746C12.3562 25.8353 12.2075 25.885 12.154 25.885C12.1004 25.885 12.0215 25.9276 11.9785 25.9797C11.9355 26.0318 11.8367 26.0744 11.7588 26.0744C11.681 26.0744 11.5821 26.117 11.5391 26.1691C11.4961 26.2211 11.4259 26.2637 11.3832 26.2637C11.2946 26.2637 10.3462 26.7443 10.2554 26.8353C10.2225 26.8681 10.1493 26.8949 10.0925 26.8949C10.0357 26.8949 9.93804 26.9517 9.87558 27.0211C9.81312 27.0906 9.72097 27.1474 9.67087 27.1474C9.62078 27.1474 9.47684 27.2267 9.35103 27.3237C9.22523 27.4207 9.04457 27.5337 8.94965 27.5748C8.85474 27.6159 8.77702 27.6786 8.77702 27.7141C8.77702 27.7495 8.73766 27.7785 8.68958 27.7785C8.64149 27.7785 8.58587 27.8211 8.56597 27.8732C8.54614 27.9253 8.47815 27.9679 8.415 27.9679C8.35185 27.9679 8.20264 28.0664 8.08349 28.1868C7.96428 28.3072 7.84143 28.4066 7.81048 28.4077C7.74827 28.4099 7.28908 28.7775 6.98022 29.0724C6.87112 29.1766 6.63051 29.3882 6.44551 29.5428C6.07137 29.8552 5.34783 30.5865 5.01054 30.9929C4.8897 31.1385 4.70539 31.3483 4.601 31.4589C4.27884 31.8005 3.94638 32.2418 3.98329 32.2789C4.00257 32.2983 3.95912 32.3514 3.88668 32.3968C3.8143 32.4423 3.75505 32.5153 3.75505 32.559C3.75505 32.6027 3.73181 32.6385 3.70344 32.6385C3.64449 32.6385 3.31562 33.125 3.31562 33.2122C3.31562 33.2438 3.28593 33.2697 3.24959 33.2697C3.21324 33.2697 3.15399 33.3549 3.11789 33.459C3.08179 33.5631 3.03139 33.6484 3.0059 33.6484C2.98035 33.6484 2.88092 33.8046 2.78481 33.9955C2.68877 34.1864 2.58525 34.3426 2.55486 34.3426C2.52442 34.3426 2.49955 34.3977 2.49955 34.4651C2.49955 34.5326 2.47351 34.6038 2.44168 34.6236C2.40986 34.6434 2.29554 34.8368 2.18769 35.0534C2.07984 35.2699 1.96798 35.4898 1.93916 35.5418C1.81399 35.7677 1.62071 36.2247 1.62071 36.2949C1.62071 36.337 1.57834 36.414 1.52655 36.4661C1.47476 36.5181 1.43239 36.6262 1.43239 36.7063C1.43239 36.7863 1.39001 36.8872 1.33822 36.9304C1.28643 36.9736 1.24406 37.0872 1.24406 37.1829C1.24406 37.2785 1.20534 37.3891 1.15807 37.4285C1.11073 37.468 1.05637 37.6176 1.03728 37.761C1.01814 37.9043 0.969046 38.0424 0.928117 38.0678C0.887188 38.0932 0.839033 38.2449 0.821142 38.4048C0.803189 38.5648 0.749774 38.728 0.702442 38.7675C0.654733 38.8073 0.616313 38.9564 0.616313 39.1016C0.616313 39.2458 0.578023 39.4199 0.531193 39.4883C0.484363 39.5568 0.430506 39.7914 0.411422 40.0097C0.392339 40.2279 0.343245 40.447 0.302379 40.4965C0.261512 40.546 0.213999 40.8219 0.196799 41.1095C0.179536 41.3972 0.12453 41.7462 0.074499 41.885C-0.000265688 42.0926 -0.0118107 42.5192 0.00953269 44.2835C0.0362119 46.4884 0.0408073 46.5872 0.11689 46.5872C0.141435 46.5872 0.173558 46.8403 0.188247 47.1496C0.203062 47.4601 0.2494 47.7537 0.291773 47.805C0.333958 47.8562 0.38493 48.0788 0.404955 48.2998C0.425043 48.5208 0.480794 48.7645 0.528879 48.8414C0.576965 48.9183 0.616313 49.0923 0.616313 49.2281C0.616313 49.3706 0.656114 49.5084 0.710477 49.5537C0.762768 49.5973 0.804639 49.7349 0.804639 49.8629C0.804639 49.9898 0.851155 50.1604 0.907966 50.242C0.964777 50.3236 1.02096 50.4737 1.03276 50.5756C1.04456 50.6775 1.09692 50.8223 1.14915 50.8972C1.20137 50.9722 1.24406 51.1132 1.24406 51.2107C1.24406 51.3101 1.28543 51.404 1.33822 51.4243C1.39114 51.4448 1.43239 51.5387 1.43239 51.6388C1.43239 51.7367 1.47337 51.8581 1.52346 51.9084C1.5735 51.9588 1.63478 52.0812 1.65957 52.1805C1.68437 52.2799 1.74225 52.3989 1.78827 52.4452C1.86115 52.5184 1.9025 52.7033 1.87921 52.8515C1.87513 52.8776 1.90414 52.8918 1.94362 52.8831C1.98317 52.8744 2.03954 52.956 2.06891 53.0645C2.09836 53.173 2.16491 53.2971 2.21682 53.3405C2.26874 53.3838 2.31123 53.4726 2.31123 53.5377C2.31123 53.6029 2.33891 53.6562 2.37281 53.6562C2.40664 53.6562 2.45222 53.7276 2.474 53.8149C2.49572 53.9021 2.5526 53.9954 2.60031 54.0223C2.64802 54.0491 2.69321 54.1461 2.70081 54.2378C2.70834 54.3295 2.73402 54.3924 2.75781 54.3776C2.79905 54.352 3.04652 54.7222 3.03748 54.7961C3.03509 54.8154 3.11124 54.929 3.20672 55.0485C3.42084 55.3165 3.43056 55.3297 3.65373 55.6602C3.75335 55.8078 3.85242 55.9284 3.87382 55.9284C3.89523 55.9284 3.94983 56.0128 3.99522 56.1159C4.0406 56.219 4.19585 56.43 4.34011 56.5849C4.48443 56.7398 4.69434 56.9654 4.80652 57.0863C4.91876 57.2072 5.01054 57.3219 5.01054 57.3412C5.01054 57.3605 5.15888 57.5372 5.34011 57.7339C5.52134 57.9305 5.66258 58.116 5.65398 58.146C5.64532 58.1761 5.66276 58.1936 5.69264 58.1848C5.72252 58.1762 5.91555 58.3275 6.12158 58.5212C6.32762 58.7148 6.54325 58.8915 6.60081 58.9137C6.65838 58.9359 6.70546 58.9833 6.70546 59.0192C6.70546 59.055 6.74783 59.0843 6.79962 59.0843C6.85141 59.0843 6.89378 59.1232 6.89378 59.1708C6.89378 59.2184 6.99247 59.3249 7.11306 59.4075C7.23365 59.49 7.33252 59.5782 7.33277 59.6033C7.33302 59.6285 7.41889 59.6936 7.5236 59.748C7.62831 59.8025 7.69743 59.8739 7.67727 59.9067C7.657 59.9397 7.68493 59.9493 7.73967 59.9282C7.84093 59.8891 8.19259 60.2021 8.16189 60.3039C8.15323 60.3326 8.17037 60.341 8.19987 60.3226C8.22944 60.3042 8.39253 60.3866 8.5624 60.5056C8.7322 60.6247 8.9489 60.7539 9.04381 60.7929C9.13873 60.8319 9.21644 60.8895 9.21644 60.9208C9.21644 60.9521 9.25581 60.9777 9.30389 60.9777C9.35198 60.9777 9.40659 61.0177 9.42517 61.0665C9.44382 61.1153 9.54338 61.1738 9.64639 61.1966C9.7494 61.2193 9.84928 61.2788 9.86836 61.3287C9.88744 61.3787 9.95838 61.4196 10.026 61.4196C10.0937 61.4196 10.1881 61.4588 10.2357 61.5067C10.2834 61.5546 10.4826 61.67 10.6784 61.7631C10.8742 61.8563 11.0508 61.9591 11.0707 61.9916C11.0907 62.0241 11.1726 62.0507 11.2527 62.0507C11.3327 62.0507 11.4305 62.0899 11.4701 62.1378C11.5096 62.1857 11.6277 62.2421 11.7325 62.2632C11.8373 62.2843 11.9658 62.3445 12.018 62.397C12.0703 62.4496 12.176 62.4925 12.2529 62.4925C12.3299 62.4925 12.4253 62.5252 12.465 62.5651C12.5046 62.6049 12.6445 62.6565 12.7757 62.6794C12.907 62.7025 13.0092 62.7491 13.0029 62.7831C12.9967 62.8172 13.0674 62.8516 13.1599 62.8597C13.4653 62.8862 13.5407 62.9083 13.6547 63.0049C13.7168 63.0574 13.8797 63.1084 14.0166 63.1183C14.1536 63.1277 14.3223 63.1757 14.3916 63.2243C14.4608 63.2729 14.6393 63.3133 14.7882 63.3133C14.9371 63.3133 15.1215 63.3531 15.1979 63.4029C15.2744 63.4522 15.5343 63.5109 15.7755 63.5336C16.0168 63.5563 16.2297 63.5998 16.2488 63.6314C16.2678 63.6623 16.4518 63.7053 16.6576 63.7267C16.8635 63.7482 17.1387 63.8056 17.2692 63.8548C17.6242 63.9893 76.4947 63.9893 76.9014 63.8555C77.049 63.8069 77.3283 63.7532 77.5223 63.7362C77.7162 63.7191 77.9334 63.6737 78.0056 63.6352C78.0778 63.5961 78.3289 63.5494 78.5637 63.5317C78.7985 63.5134 79.0609 63.4806 79.1475 63.4585C79.2335 63.4364 79.3258 63.4231 79.3515 63.4288C79.3773 63.4345 79.3986 63.4111 79.3986 63.3764C79.3986 63.3417 79.5486 63.3133 79.7319 63.3133C79.9278 63.3133 80.1155 63.2748 80.1871 63.2205C80.2536 63.1694 80.4011 63.1265 80.5147 63.1258C80.6277 63.1246 80.8255 63.0779 80.9542 63.022C81.0822 62.9661 81.3007 62.9069 81.4388 62.8904C81.5769 62.8739 81.72 62.8218 81.757 62.7747C81.7941 62.7275 81.9548 62.6821 82.1142 62.6738C82.2737 62.6655 82.3986 62.6297 82.3923 62.5942C82.3854 62.5587 82.4978 62.5126 82.6415 62.4918C82.7853 62.471 82.9454 62.4186 82.9975 62.3754C83.049 62.3322 83.1714 62.2822 83.2687 62.2644C83.3666 62.2466 83.4896 62.1926 83.543 62.1443C83.5957 62.096 83.7426 62.0496 83.8688 62.041C83.995 62.0325 84.0929 61.9981 84.0866 61.9645C84.0803 61.931 84.1632 61.8843 84.2705 61.8607C84.3779 61.8371 84.5323 61.7708 84.6139 61.7134C84.6955 61.6559 84.8092 61.6089 84.8663 61.6089C84.9234 61.6089 85.005 61.5663 85.0483 61.5142C85.091 61.4622 85.182 61.4196 85.2498 61.4196C85.3183 61.4196 85.4457 61.3628 85.5336 61.2933C85.6208 61.2239 85.7282 61.1671 85.7709 61.1671C85.8135 61.1671 85.8839 61.1245 85.9272 61.0724C85.9698 61.0203 86.049 60.9777 86.1023 60.9777C86.1557 60.9777 86.2479 60.9336 86.3076 60.8797C86.3666 60.8258 86.4727 60.7772 86.5436 60.7719C86.6139 60.7666 86.6591 60.7417 86.6434 60.7167C86.6284 60.6917 86.6692 60.6541 86.7345 60.6333C86.8004 60.6124 86.9177 60.5393 86.9962 60.4709C87.0747 60.4026 87.1921 60.3466 87.2567 60.3466C87.322 60.3466 87.3911 60.304 87.4112 60.2519C87.4306 60.1998 87.4877 60.1572 87.5373 60.1572C87.6397 60.1572 88.0044 59.9132 88.0803 59.7943C88.108 59.751 88.1783 59.7154 88.2373 59.7154C88.2957 59.7154 88.4551 59.6159 88.5907 59.4944C88.823 59.2863 88.9002 59.2461 89.0232 59.2677C89.0521 59.2727 89.0596 59.2518 89.0408 59.2213C89.022 59.1908 89.0766 59.1339 89.1619 59.0949C89.2473 59.0558 89.317 58.9948 89.317 58.9593C89.317 58.9239 89.3591 58.8949 89.4112 58.8949C89.4626 58.8949 89.5053 58.8658 89.5053 58.8302C89.5053 58.7658 89.8079 58.6129 89.8977 58.6323C89.9234 58.6378 89.9378 58.6186 89.929 58.5895C89.9203 58.5604 90.0119 58.4543 90.1331 58.3539C90.2536 58.2534 90.3754 58.1346 90.4036 58.0899C90.4319 58.0452 90.4808 58.0251 90.5135 58.0452C90.5461 58.0654 90.5725 58.0552 90.5725 58.0226C90.5725 57.99 90.7288 57.8445 90.9203 57.6993C91.3245 57.3923 93.1092 55.6137 93.5216 55.1069C93.6767 54.9165 93.8393 54.7381 93.8826 54.7103C93.9265 54.6825 93.9623 54.6319 93.9623 54.5978C93.9623 54.5635 94.0471 54.4523 94.1506 54.3505C94.2542 54.2487 94.339 54.1455 94.339 54.1213C94.339 54.097 94.3798 54.0321 94.43 53.9771C94.7263 53.6526 94.7784 53.5892 94.7784 53.5523C94.7784 53.5298 94.8719 53.3949 94.9868 53.2525C95.1017 53.11 95.2134 52.9439 95.236 52.8831C95.258 52.8223 95.3057 52.7726 95.3415 52.7726C95.3766 52.7726 95.4061 52.7314 95.4061 52.6811C95.4061 52.6307 95.4419 52.5669 95.4859 52.5391C95.5298 52.5113 95.6007 52.4089 95.6428 52.3115C95.6855 52.214 95.7426 52.1481 95.7696 52.1651C95.7972 52.182 95.8236 52.1358 95.8292 52.0624C95.8349 51.989 95.8832 51.9044 95.9366 51.8743C95.9899 51.8442 96.0339 51.7633 96.0339 51.6945C96.0339 51.6257 96.0759 51.5531 96.128 51.5331C96.1795 51.5131 96.2222 51.4616 96.2222 51.4185C96.2222 51.3755 96.2787 51.2747 96.3478 51.1947C96.4168 51.1147 96.4733 51.0144 96.4733 50.9718C96.4733 50.9294 96.5154 50.8592 96.5675 50.816C96.6189 50.7728 96.6616 50.6855 96.6616 50.6221C96.6616 50.5586 96.6999 50.484 96.7464 50.4562C96.7935 50.4285 96.86 50.3205 96.8958 50.2164C96.9309 50.1123 96.9855 50.0322 97.0169 50.0383C97.0483 50.0446 97.0803 49.9757 97.0879 49.8853C97.0954 49.7949 97.1437 49.674 97.1952 49.6165C97.2467 49.5592 97.2894 49.4682 97.2894 49.4144C97.2894 49.3607 97.3314 49.2813 97.3835 49.2381C97.435 49.1949 97.4777 49.11 97.4777 49.0495C97.4777 48.989 97.5342 48.8674 97.6032 48.7791C97.6723 48.6908 97.7288 48.5626 97.7288 48.4943C97.7288 48.4259 97.7709 48.3346 97.823 48.2914C97.8744 48.2481 97.9171 48.1567 97.9171 48.0882C97.9171 48.0198 97.956 47.8883 98.0037 47.7961C98.0508 47.704 98.1167 47.5434 98.1494 47.4393C98.182 47.3351 98.2348 47.2546 98.2668 47.2603C98.2988 47.2661 98.3321 47.1712 98.3408 47.0495C98.3503 46.9278 98.3992 46.7677 98.4507 46.6937C98.5028 46.6197 98.5449 46.4857 98.5449 46.3959C98.5449 46.3061 98.5863 46.1775 98.6371 46.1101C98.6874 46.0428 98.7307 45.9166 98.7332 45.8298C98.7357 45.743 98.7916 45.5584 98.8587 45.4196C98.9253 45.2807 98.9805 45.0641 98.9818 44.9381C98.983 44.8122 99.0263 44.6738 99.0784 44.6306C99.14 44.579 99.1726 44.4382 99.1726 44.2203C99.1726 44.0025 99.2046 43.8617 99.2668 43.8101C99.3233 43.7628 99.3609 43.6247 99.3609 43.4635C99.3609 43.316 99.4174 43.0175 99.4865 42.8002C99.5555 42.5829 99.612 42.2493 99.612 42.0589C99.612 41.7313 99.7106 41.3226 99.9027 40.8573C100.026 40.559 100.028 35.5603 99.9052 35.2674C99.7125 34.8077 99.612 34.3992 99.612 34.0741C99.612 33.8837 99.5555 33.5501 99.4865 33.3328C99.4174 33.1155 99.3609 32.817 99.3609 32.6695C99.3609 32.5083 99.3233 32.3702 99.2668 32.3229C99.2046 32.2713 99.1726 32.1305 99.1726 31.9127C99.1726 31.6948 99.14 31.554 99.0784 31.5024C99.0263 31.4592 98.983 31.3208 98.9818 31.1949C98.9805 31.0689 98.9253 30.8523 98.8587 30.7134C98.7916 30.5746 98.7357 30.39 98.7332 30.3032C98.7307 30.2164 98.6874 30.0902 98.6371 30.0229C98.5863 29.9555 98.5436 29.8277 98.543 29.7389C98.5417 29.65 98.499 29.5222 98.4488 29.4548C98.398 29.3874 98.3565 29.2738 98.3559 29.2024C98.3559 29.1309 98.2994 28.9872 98.231 28.8831C98.1619 28.7789 98.1048 28.6369 98.1036 28.5675C98.1023 28.4981 98.0596 28.3861 98.0094 28.3187C97.9586 28.2513 97.9171 28.1341 97.9171 28.0582C97.9171 27.9823 97.8744 27.8849 97.823 27.8416C97.7709 27.7984 97.7288 27.7169 97.7282 27.6604C97.7282 27.6038 97.6717 27.4724 97.6032 27.3683C97.5342 27.2641 97.4783 27.1327 97.4777 27.0762C97.4777 27.0197 97.435 26.9381 97.3835 26.8949C97.3314 26.8517 97.2894 26.7665 97.2894 26.7055C97.2894 26.6446 97.2467 26.5594 97.1952 26.5162C97.1431 26.473 97.101 26.3959 97.101 26.3448C97.101 26.2938 97.0445 26.1799 96.9755 26.0916C96.9064 26.0033 96.8499 25.8812 96.8499 25.8202C96.8499 25.7591 96.8073 25.6928 96.7558 25.6728C96.7037 25.6529 96.6616 25.5845 96.6616 25.5209C96.6616 25.4574 96.6302 25.3737 96.5913 25.3349C96.5185 25.2617 96.4093 25.0823 96.2731 24.8121C96.2291 24.7253 96.1575 24.6315 96.1136 24.6038C96.0697 24.576 96.0339 24.4993 96.0339 24.4334C96.0339 24.3674 95.9987 24.2907 95.9554 24.2629C95.87 24.2082 95.7627 24.0502 95.6422 23.8022C95.6001 23.7154 95.5298 23.6217 95.4859 23.5939C95.4419 23.5661 95.4061 23.5053 95.4061 23.4587C95.4061 23.412 95.3634 23.3575 95.312 23.3375C95.2599 23.3176 95.2178 23.2648 95.2172 23.2203C95.2172 23.1759 95.1186 23.0314 94.9975 22.8993C94.8769 22.7672 94.7784 22.6453 94.7784 22.6285C94.7784 22.5724 94.4972 22.1935 94.4174 22.1422C94.3741 22.1145 94.339 22.0653 94.339 22.033C94.339 22.0006 94.2467 21.875 94.1349 21.7539C94.0226 21.6328 93.9027 21.4973 93.8682 21.4529C93.2548 20.6647 91.5681 18.943 90.909 18.4329C90.6723 18.2495 90.4501 18.0688 90.4156 18.0314C90.2542 17.8571 89.6999 17.4274 89.6359 17.4274C89.5963 17.4274 89.548 17.3848 89.5279 17.3328C89.5078 17.2807 89.4526 17.2381 89.4043 17.2381C89.3559 17.2381 89.317 17.2124 89.317 17.181C89.317 17.1495 89.1827 17.0456 89.0188 16.95C88.855 16.8543 88.698 16.738 88.6704 16.6915C88.6428 16.645 88.5819 16.6069 88.5361 16.6069C88.4896 16.6069 88.435 16.5643 88.4156 16.5123C88.3955 16.4602 88.3208 16.4176 88.2498 16.4176C88.1783 16.4176 88.1061 16.3811 88.0891 16.3365C88.0722 16.292 87.9247 16.1854 87.7614 16.0999C87.5982 16.0143 87.4426 15.9087 87.4149 15.8653C87.3873 15.822 87.2944 15.7864 87.209 15.7864C87.123 15.7864 87.0377 15.7458 87.0188 15.6962C86.9994 15.6465 86.909 15.5754 86.8167 15.5382C86.7244 15.5009 86.5643 15.414 86.4607 15.3451C86.3572 15.2762 86.2297 15.2025 86.1783 15.1814C86.1262 15.1604 86.0559 15.1315 86.0213 15.1174C85.9868 15.1032 85.8173 15.0084 85.6447 14.9067C85.472 14.805 85.285 14.7199 85.2285 14.7176C85.172 14.7153 85.0941 14.6742 85.0546 14.6264C85.0151 14.5785 84.897 14.5221 84.7922 14.501C84.6874 14.4799 84.5587 14.4197 84.5066 14.3671C84.4545 14.3146 84.3465 14.2716 84.2668 14.2716C84.1871 14.2716 84.0866 14.229 84.0439 14.1769C84.0006 14.1249 83.8876 14.0823 83.7928 14.0823C83.6974 14.0823 83.5844 14.0397 83.5417 13.9876C83.4984 13.9355 83.3917 13.8929 83.3032 13.8929C83.2153 13.8929 83.0941 13.8479 83.0333 13.7929C82.973 13.7379 82.8085 13.6774 82.6685 13.6585C82.5285 13.6396 82.3817 13.5852 82.3421 13.5376C82.3026 13.4901 82.1645 13.4511 82.0351 13.4511C81.9021 13.4511 81.7652 13.4098 81.7213 13.3564C81.6779 13.3044 81.565 13.2618 81.4689 13.2618C81.3735 13.2618 81.1726 13.2056 81.022 13.1369C80.8713 13.0682 80.6491 13.0104 80.5285 13.0085C80.4074 13.0065 80.2379 12.9642 80.1519 12.9146C80.0653 12.865 79.8675 12.8232 79.7125 12.8218C79.5568 12.8203 79.349 12.7767 79.2498 12.7249C79.1494 12.6723 78.9065 12.6306 78.6987 12.6306C78.4947 12.6306 78.2222 12.5851 78.0942 12.5295C77.9441 12.4645 77.6026 12.4179 77.1387 12.399C76.7414 12.3829 76.2454 12.329 76.0358 12.2792C75.5587 12.1658 72.8305 12.1507 72.4928 12.2596C72.3722 12.2985 71.9058 12.3507 71.457 12.3755C71.0075 12.4004 70.5769 12.4547 70.4997 12.4962C70.3478 12.5779 69.2517 12.6986 69.1211 12.6481C69.0766 12.631 69.0408 12.5906 69.0408 12.5582C69.0408 12.4977 68.8317 12.1861 68.6641 11.9962C68.612 11.9376 68.4978 11.8079 68.4099 11.7078C68.3214 11.6079 68.0822 11.313 67.877 11.0527C67.4426 10.5002 65.1331 8.17332 64.7319 7.88399C64.5813 7.77518 64.4582 7.66252 64.4582 7.63367C64.4582 7.60489 64.4256 7.58129 64.3861 7.58129C64.3465 7.58129 64.2122 7.48125 64.0879 7.35899C63.7583 7.03476 63.7056 6.99052 63.3584 6.74821C63.1852 6.62716 62.9454 6.43743 62.8248 6.32653C62.7047 6.21568 62.5427 6.1087 62.465 6.08888C62.3874 6.069 62.3238 6.03006 62.3238 6.00222C62.3238 5.9511 61.5672 5.41537 61.2641 5.25196C61.1737 5.20317 61.0903 5.13923 61.0788 5.10995C61.0672 5.0806 61.0319 5.05661 61.0003 5.05661C60.9686 5.05661 60.8862 4.99981 60.8172 4.93038C60.7481 4.86095 60.6351 4.80415 60.5661 4.80415C60.497 4.80415 60.4405 4.77505 60.4405 4.73945C60.4405 4.70392 60.3769 4.64667 60.2993 4.61227C60.2216 4.57794 60.0733 4.49336 59.9697 4.42438C59.8662 4.35539 59.6967 4.25598 59.5931 4.20347C59.4895 4.15096 59.3483 4.07553 59.2792 4.03583C58.5422 3.61245 57.1404 2.91066 57.0316 2.91066C56.9815 2.91066 56.9054 2.86805 56.8624 2.81598C56.8194 2.76391 56.7162 2.72131 56.633 2.72131C56.5498 2.72131 56.4655 2.6787 56.4457 2.62663C56.4258 2.57456 56.349 2.53177 56.275 2.53152C56.201 2.53133 56.0557 2.47471 55.9522 2.40573C55.8486 2.33674 55.6896 2.28012 55.5989 2.27993C55.5082 2.27968 55.3988 2.23689 55.3558 2.18482C55.3128 2.13275 55.2139 2.09014 55.1361 2.09014C55.0582 2.09014 54.9594 2.04754 54.9164 1.99547C54.8734 1.9434 54.7499 1.9006 54.6419 1.90035C54.5339 1.90016 54.3608 1.84355 54.2572 1.77456C54.1537 1.70557 53.9983 1.64808 53.912 1.64675C53.8257 1.64543 53.7002 1.60263 53.6332 1.55163C53.5662 1.5007 53.4233 1.45898 53.3156 1.45898C53.208 1.45898 53.0651 1.41726 52.998 1.36632C52.9311 1.31533 52.7843 1.27272 52.6719 1.27165C52.5596 1.27051 52.3623 1.21283 52.2334 1.1434C52.1046 1.07397 51.8982 1.01716 51.7749 1.01716C51.6515 1.01716 51.4957 0.975445 51.4287 0.92451C51.3599 0.872249 51.1684 0.830971 50.9893 0.829835C50.8102 0.828699 50.6186 0.787421 50.5498 0.735161C50.4829 0.684163 50.2975 0.641559 50.138 0.640486C49.9785 0.63935 49.6711 0.581661 49.455 0.512233C49.231 0.44028 48.8891 0.386 48.6601 0.386C48.4391 0.386 48.1568 0.343397 48.0329 0.291326C47.9089 0.239255 47.6733 0.196651 47.5092 0.196651C47.3451 0.196651 47.0908 0.154048 46.944 0.101976C46.5576 -0.0351125 41.2025 -0.033471 40.8235 0.103807Z" fill="white"/>
<path d="M36.181 34.8669C36.181 35.5552 36.2547 36.1131 36.3838 36.5223C36.5313 36.9315 36.7156 37.3779 36.9738 37.8614C37.0659 38.0102 37.1028 38.159 37.1028 38.2892C37.1028 38.4752 36.9922 38.6612 36.7525 38.8472L35.5911 39.6284C35.4251 39.7399 35.2592 39.7958 35.1117 39.7958C34.9274 39.7958 34.743 39.7027 34.5586 39.5353C34.3005 39.2563 34.0793 38.9588 33.8949 38.6612C33.7105 38.345 33.5262 37.9916 33.3234 37.5638C31.8854 39.275 30.0786 40.1305 27.9031 40.1305C26.3545 40.1305 25.1192 39.6841 24.2159 38.7914C23.3125 37.8986 22.8516 36.7083 22.8516 35.2203C22.8516 33.6394 23.4047 32.3561 24.5292 31.3889C25.6539 30.4217 27.1473 29.9382 29.0461 29.9382C29.673 29.9382 30.3182 29.9939 31.0004 30.087C31.6826 30.18 32.3831 30.3288 33.1206 30.4961V29.1384C33.1206 27.7249 32.8256 26.7391 32.2541 26.1626C31.6641 25.5859 30.6685 25.307 29.249 25.307C28.6037 25.307 27.94 25.3814 27.2579 25.5487C26.5757 25.7161 25.912 25.9208 25.2667 26.1811C24.9717 26.3113 24.7505 26.3857 24.6214 26.4229C24.4924 26.4601 24.4002 26.4787 24.3265 26.4787C24.0683 26.4787 23.9393 26.2927 23.9393 25.9021V24.9908C23.9393 24.6932 23.9762 24.47 24.0683 24.3398C24.1605 24.2096 24.3265 24.0794 24.5846 23.9492C25.2298 23.6144 26.0042 23.3354 26.9076 23.1123C27.8109 22.8705 28.7696 22.7589 29.7836 22.7589C31.9775 22.7589 33.5815 23.261 34.6139 24.2654C35.628 25.2698 36.1441 26.7949 36.1441 28.8408V34.8669H36.181ZM28.6958 37.6941C29.3043 37.6941 29.9311 37.5824 30.5948 37.3592C31.2585 37.1361 31.8485 36.7268 32.3463 36.1689C32.6412 35.8155 32.8625 35.4249 32.9731 34.9785C33.0837 34.5322 33.1575 33.9928 33.1575 33.3604V32.5793C32.6228 32.449 32.0513 32.3375 31.4613 32.2631C30.8714 32.1887 30.2998 32.1515 29.7283 32.1515C28.4931 32.1515 27.5897 32.3933 26.9813 32.8955C26.3729 33.3976 26.0779 34.1044 26.0779 35.0344C26.0779 35.9085 26.2992 36.5595 26.7601 37.0058C27.2025 37.4708 27.8478 37.6941 28.6958 37.6941ZM43.5002 39.7027C43.1684 39.7027 42.9472 39.6469 42.7997 39.5168C42.6521 39.4052 42.5231 39.1447 42.4125 38.7914L38.08 24.4142C37.9693 24.0422 37.914 23.8004 37.914 23.6703C37.914 23.3726 38.0615 23.2053 38.3565 23.2053H40.1633C40.5136 23.2053 40.7532 23.261 40.8822 23.3913C41.0297 23.5029 41.1404 23.7632 41.251 24.1166L44.3483 36.4293L47.2244 24.1166C47.3165 23.7447 47.4272 23.5029 47.5747 23.3913C47.7221 23.2797 47.9802 23.2053 48.3121 23.2053H49.787C50.1373 23.2053 50.377 23.261 50.5244 23.3913C50.6719 23.5029 50.801 23.7632 50.8747 24.1166L53.7877 36.5781L56.9772 24.1166C57.0878 23.7447 57.2169 23.5029 57.3459 23.3913C57.4934 23.2797 57.733 23.2053 58.0649 23.2053H59.7795C60.0744 23.2053 60.2404 23.3541 60.2404 23.6703C60.2404 23.7632 60.222 23.8562 60.2035 23.9678C60.1851 24.0794 60.1482 24.2282 60.0744 24.4328L55.6313 38.81C55.5207 39.1819 55.3916 39.4237 55.2442 39.5353C55.0967 39.6469 54.857 39.7214 54.5436 39.7214H52.958C52.6077 39.7214 52.3681 39.6655 52.2206 39.5353C52.0731 39.4052 51.944 39.1634 51.8703 38.7914L49.0127 26.7949L46.1735 38.7728C46.0813 39.1447 45.9707 39.3865 45.8232 39.5168C45.6757 39.6469 45.4176 39.7027 45.0857 39.7027H43.5002ZM67.1907 40.2049C66.2321 40.2049 65.2735 40.0933 64.3514 39.8702C63.43 39.6469 62.7112 39.4052 62.2315 39.1262C61.9365 38.9588 61.7337 38.7728 61.66 38.6054C61.5862 38.438 61.5494 38.252 61.5494 38.0846V37.1361C61.5494 36.7455 61.6968 36.5595 61.9734 36.5595C62.084 36.5595 62.1947 36.5781 62.3053 36.6153C62.4155 36.6525 62.5816 36.7268 62.7663 36.8013C63.3928 37.0802 64.075 37.3035 64.7945 37.4523C65.5319 37.601 66.2507 37.6754 66.9881 37.6754C68.1493 37.6754 69.0528 37.4708 69.6799 37.0617C70.3063 36.6525 70.6385 36.0573 70.6385 35.2947C70.6385 34.774 70.4724 34.3462 70.1409 33.9928C69.8088 33.6394 69.1823 33.3232 68.2789 33.0256L65.6056 32.1887C64.2597 31.7609 63.2639 31.1285 62.6554 30.2916C62.0471 29.4732 61.7337 28.5618 61.7337 27.5947C61.7337 26.8135 61.8996 26.1254 62.2315 25.5302C62.563 24.935 63.0061 24.4142 63.5588 24.005C64.1122 23.5772 64.7387 23.261 65.4761 23.0379C66.2135 22.8147 66.9881 22.7217 67.7992 22.7217C68.2051 22.7217 68.6289 22.7403 69.0348 22.7961C69.4587 22.8519 69.846 22.9263 70.2326 23.0007C70.6013 23.0936 70.9521 23.1867 71.2835 23.2982C71.6157 23.4098 71.8735 23.5214 72.0582 23.6331C72.3159 23.7818 72.5006 23.9306 72.6109 24.098C72.7218 24.2468 72.7769 24.4514 72.7769 24.7118V25.5859C72.7769 25.9765 72.6295 26.1811 72.3531 26.1811C72.2056 26.1811 71.9658 26.1067 71.6522 25.9579C70.6013 25.4743 69.4215 25.2326 68.1128 25.2326C67.0618 25.2326 66.2321 25.3999 65.6608 25.7533C65.0894 26.1067 64.7945 26.6461 64.7945 27.4087C64.7945 27.9294 64.9785 28.3758 65.3472 28.7292C65.7159 29.0826 66.3981 29.436 67.3754 29.7521L69.9935 30.5891C71.3208 31.0169 72.2794 31.6121 72.8507 32.3747C73.4227 33.1373 73.699 34.0114 73.699 34.9785C73.699 35.7783 73.5329 36.5037 73.2194 37.1361C72.8879 37.7685 72.4455 38.3264 71.8735 38.7728C71.3022 39.2378 70.6199 39.5725 69.8274 39.8143C68.9976 40.0747 68.1314 40.2049 67.1907 40.2049Z" fill="#252F3E"/>
<path fill-rule="evenodd" clip-rule="evenodd" d="M70.6792 49.1913C64.6092 53.7112 55.7893 56.1107 48.2059 56.1107C37.5781 56.1107 28.002 52.1488 20.7692 45.5642C20.1972 45.0434 20.7139 44.3366 21.3965 44.7457C29.2198 49.3215 38.8697 52.093 48.8516 52.093C55.5863 52.093 62.9849 50.6793 69.7937 47.7777C70.8082 47.3127 71.6758 48.4472 70.6792 49.1913Z" fill="#FF9900"/>
<path fill-rule="evenodd" clip-rule="evenodd" d="M73.2151 46.3127C72.4382 45.3119 68.0745 45.8309 66.0955 46.0718C65.5038 46.146 65.4112 45.627 65.9476 45.2378C69.4238 42.7914 75.1381 43.4956 75.8038 44.3111C76.4694 45.1451 75.6185 50.872 72.3643 53.6149C71.8652 54.0412 71.3841 53.8188 71.606 53.2628C72.3456 51.4279 73.9914 47.295 73.2151 46.3127Z" fill="#FF9900"/>
</g>
<defs>
<clipPath id="clip0_21_7899">
<rect width="100" height="64" fill="white"/>
</clipPath>
</defs>
</svg>
