<svg width="31" height="30" viewBox="0 0 31 30" fill="none" xmlns="http://www.w3.org/2000/svg">
<path fill-rule="evenodd" clip-rule="evenodd" d="M2.37708 10.0231C-0.372786 12.7719 -0.372786 17.2281 2.37708 19.9769L10.3422 27.9388C13.0921 30.6871 17.5499 30.6871 20.2992 27.9388L28.2649 19.9769C31.0142 17.2286 31.0142 12.7725 28.2649 10.0237L20.2992 2.0612C17.5499 -0.687066 13.0921 -0.687066 10.3422 2.0612L2.37708 10.0231ZM18.8056 18.4838C19.2633 18.0264 19.6264 17.4834 19.8742 16.8856C20.1219 16.2878 20.2494 15.6471 20.2494 15C20.2494 14.3529 20.1219 13.7122 19.8742 13.1144C19.6264 12.5167 19.2633 11.9736 18.8056 11.5162C17.8813 10.592 16.6278 10.0728 15.3207 10.0728C14.0136 10.0728 12.7601 10.592 11.8358 11.5162C11.3781 11.9736 11.015 12.5167 10.7672 13.1144C10.5195 13.7122 10.392 14.3529 10.392 15C10.392 15.6471 10.5195 16.2878 10.7672 16.8856C11.015 17.4834 11.3781 18.0264 11.8358 18.4838C12.7603 19.4077 14.0137 19.9267 15.3207 19.9267C16.6277 19.9267 17.8812 19.4077 18.8056 18.4838Z" fill="#D7D7D7"/>
</svg>
