<svg width="28" height="28" viewBox="0 0 28 28" fill="none" xmlns="http://www.w3.org/2000/svg">
<path d="M18.8705 10.0391C13.9966 10.0391 10.0312 14.0044 10.0312 18.8783C10.0312 23.7523 13.9966 27.7176 18.8705 27.7176C23.7445 27.7176 27.7098 23.7523 27.7098 18.8783C27.7098 14.0044 23.7445 10.0391 18.8705 10.0391ZM18.8705 18.0748C20.1999 18.0748 21.2812 19.1562 21.2812 20.4855C21.2812 21.5317 20.6074 22.4153 19.6741 22.7482V24.5033H18.067V22.7482C17.1336 22.4153 16.4598 21.5317 16.4598 20.4855H18.067C18.067 20.9288 18.4272 21.2891 18.8705 21.2891C19.3139 21.2891 19.6741 20.9288 19.6741 20.4855C19.6741 20.0421 19.3139 19.6819 18.8705 19.6819C17.5412 19.6819 16.4598 18.6005 16.4598 17.2712C16.4598 16.225 17.1336 15.3413 18.067 15.0085V13.2533H19.6741V15.0085C20.6074 15.3413 21.2812 16.225 21.2812 17.2712H19.6741C19.6741 16.8278 19.3139 16.4676 18.8705 16.4676C18.4272 16.4676 18.067 16.8278 18.067 17.2712C18.067 17.7146 18.4272 18.0748 18.8705 18.0748Z" fill="url(#paint0_linear_21_7569)"/>
<path d="M9.22768 10.0391C14.1841 10.0391 18.067 7.92106 18.067 5.21763C18.067 2.51421 14.1841 0.289062 9.22768 0.289062C4.27125 0.289062 0.28125 2.51421 0.28125 5.21763C0.28125 7.92106 4.27125 10.0391 9.22768 10.0391Z" fill="url(#paint1_linear_21_7569)"/>
<path d="M0.28125 18.375V19.6843C0.28125 22.3878 4.27125 24.5058 9.22768 24.5058C9.50882 24.5058 9.78123 24.4799 10.058 24.4663C9.44164 23.4972 8.98195 22.4218 8.71125 21.2721C5.12705 21.1732 2.01493 20.0718 0.28125 18.375Z" fill="url(#paint2_linear_21_7569)"/>
<path d="M8.46273 19.6445C8.4443 19.3918 8.42411 19.1393 8.42411 18.8819C8.42411 18.0442 8.53387 17.2334 8.72105 16.4523C5.13241 16.355 2.01648 15.2531 0.28125 13.5547V14.864C0.28125 17.424 3.88457 19.4359 8.46273 19.6445Z" fill="url(#paint3_linear_21_7569)"/>
<path d="M9.22768 14.8573C9.22854 14.8573 9.22923 14.8572 9.23014 14.8572C9.76013 13.5906 10.5305 12.4488 11.4873 11.4921C10.7615 11.5838 10.0115 11.643 9.22768 11.643C5.41248 11.643 2.09871 10.5053 0.28125 8.72656V10.0359C0.28125 12.7393 4.27125 14.8573 9.22768 14.8573Z" fill="url(#paint4_linear_21_7569)"/>
<defs>
<linearGradient id="paint0_linear_21_7569" x1="11.4723" y1="4.54402" x2="29.3332" y2="7.11889" gradientUnits="userSpaceOnUse">
<stop stop-color="#DEFB9D"/>
<stop offset="0.364794" stop-color="#71F79E"/>
<stop offset="0.7" stop-color="#38F9D7"/>
<stop offset="1" stop-color="#89C4FE"/>
</linearGradient>
<linearGradient id="paint1_linear_21_7569" x1="1.73106" y1="-2.74154" x2="18.8872" y2="1.77015" gradientUnits="userSpaceOnUse">
<stop stop-color="#DEFB9D"/>
<stop offset="0.364794" stop-color="#71F79E"/>
<stop offset="0.7" stop-color="#38F9D7"/>
<stop offset="1" stop-color="#89C4FE"/>
</linearGradient>
<linearGradient id="paint2_linear_21_7569" x1="1.07821" y1="16.4694" x2="10.6549" y2="18.671" gradientUnits="userSpaceOnUse">
<stop stop-color="#DEFB9D"/>
<stop offset="0.364794" stop-color="#71F79E"/>
<stop offset="0.7" stop-color="#38F9D7"/>
<stop offset="1" stop-color="#89C4FE"/>
</linearGradient>
<linearGradient id="paint3_linear_21_7569" x1="0.969223" y1="11.6618" x2="9.33917" y2="13.334" gradientUnits="userSpaceOnUse">
<stop stop-color="#DEFB9D"/>
<stop offset="0.364794" stop-color="#71F79E"/>
<stop offset="0.7" stop-color="#38F9D7"/>
<stop offset="1" stop-color="#89C4FE"/>
</linearGradient>
<linearGradient id="paint4_linear_21_7569" x1="1.19471" y1="6.82093" x2="12.0012" y2="9.66851" gradientUnits="userSpaceOnUse">
<stop stop-color="#DEFB9D"/>
<stop offset="0.364794" stop-color="#71F79E"/>
<stop offset="0.7" stop-color="#38F9D7"/>
<stop offset="1" stop-color="#89C4FE"/>
</linearGradient>
</defs>
</svg>
