<svg width="104" height="21" viewBox="0 0 104 21" fill="none" xmlns="http://www.w3.org/2000/svg">
<g clip-path="url(#clip0_21_7049)">
<path d="M15.6739 14.434L18.3013 16.6873C17.7986 17.3894 17.1914 18.0116 16.5002 18.5325C15.6407 19.2053 14.6856 19.7482 13.6659 20.1436C12.5375 20.5813 11.3348 20.8002 10.1233 20.7884C8.28091 20.8205 6.4645 20.3547 4.8686 19.4408C3.36455 18.565 2.1295 17.2991 1.29622 15.7791C0.413964 14.1625 -0.0319533 12.347 0.00178134 10.5089C-0.0102686 9.12776 0.238895 7.75668 0.736347 6.46673C1.22084 5.22777 1.94281 4.09377 2.86231 3.12747C3.76855 2.16619 4.86365 1.39932 6.08007 0.874133C7.39471 0.316153 8.81227 0.036614 10.242 0.0534021C11.9492 -0.0096407 13.6419 0.384949 15.1421 1.19567C16.384 1.9124 17.46 2.88034 18.3004 4.0366L15.6443 6.38007C15.0546 5.51399 14.3029 4.76818 13.4301 4.18307C12.4726 3.60269 11.363 3.31736 10.242 3.3632C9.04618 3.32834 7.86927 3.66596 6.87665 4.32867C5.92537 4.98658 5.17092 5.8873 4.69304 6.9356C4.17654 8.03695 3.91396 9.2387 3.92441 10.4534C3.91114 11.6391 4.17388 12.8118 4.69217 13.8802C5.16704 14.872 5.89965 15.7204 6.81463 16.3381C7.76991 16.9569 8.89191 17.2736 10.0324 17.2464C10.9929 17.2873 11.9506 17.1171 12.837 16.748C13.4743 16.4632 14.0543 16.0662 14.549 15.5763L15.6705 14.434" fill="#8A8F98"/>
<path d="M19.3363 13.3267C19.3232 12.0358 19.6489 10.7638 20.2814 9.63555C20.9116 8.52023 21.8283 7.59051 22.9384 6.9411C24.1422 6.28775 25.4923 5.94531 26.8645 5.94531C28.2366 5.94531 29.5868 6.28775 30.7906 6.9411C31.9007 7.59051 32.8175 8.52023 33.4476 9.63555C34.0676 10.7685 34.3922 12.0372 34.3922 13.3263C34.3922 14.6154 34.0676 15.884 33.4476 17.017C32.7755 18.1558 31.8155 19.1007 30.6623 19.7582C29.5092 20.4159 28.203 20.7633 26.873 20.7662C25.543 20.7693 24.2352 20.4276 23.0792 19.7752C21.9231 19.1228 20.9587 18.1822 20.2814 17.0464C19.6491 15.9185 19.3234 14.6468 19.3363 13.3562V13.3267ZM26.8348 17.7502C27.6284 17.7805 28.4088 17.5431 29.049 17.0768C29.6333 16.6349 30.0911 16.0494 30.3775 15.3781C30.6597 14.7405 30.8102 14.0533 30.8203 13.357C30.8135 12.6604 30.6628 11.9725 30.3775 11.336C30.09 10.6654 29.6323 10.0802 29.049 9.63729C28.3954 9.19823 27.6242 8.96363 26.8348 8.96363C26.0455 8.96363 25.2743 9.19823 24.6206 9.63729C24.0513 10.0747 23.6042 10.6493 23.3219 11.3065C23.0366 11.9431 22.8858 12.6309 22.879 13.3276C22.8843 14.0339 23.035 14.7316 23.3219 15.3781C23.607 16.0501 24.0651 16.6359 24.6504 17.0768C25.2905 17.5431 26.071 17.7805 26.8645 17.7502" fill="#8A8F98"/>
<path d="M35.0938 0.523438H38.6068V4.21457H35.0938V0.523438ZM35.0938 6.3821H38.6068V20.2956H35.0938V6.3821Z" fill="#8A8F98"/>
<path d="M40 20.2975V6.41346H43.3654L43.4528 7.99512C43.9166 7.51755 44.4427 7.10367 45.0171 6.76446C45.8231 6.30362 46.7447 6.07998 47.6741 6.11966C48.4125 6.07262 49.1523 6.18728 49.841 6.45552C50.5297 6.72377 51.1506 7.13902 51.6596 7.67186C52.6337 8.84683 53.1289 10.3412 53.0475 11.8605V20.2966H49.5048V11.89C49.5271 11.5164 49.4731 11.1424 49.3463 10.7901C49.2195 10.4378 49.0224 10.1144 48.7668 9.83942C48.5195 9.59502 48.2241 9.40392 47.8991 9.27791C47.574 9.1519 47.2263 9.09374 46.8775 9.10709C46.4207 9.09496 45.9668 9.18327 45.5484 9.36562C45.13 9.54796 44.7573 9.81984 44.4572 10.1618C43.821 10.8807 43.4832 11.8124 43.5122 12.7688V20.2966L40 20.2975Z" fill="#8A8F98"/>
<path d="M96.445 9.69375L102.647 0.521805H96.7717L93.5538 5.64814L90.244 0.521805H83.7487L84.0439 0.931736L83.837 0.845072C82.3007 0.267297 80.6688 -0.01876 79.026 0.0018049C77.1328 -0.0332444 75.2656 0.442754 73.6237 1.37894C72.4512 2.06086 71.4355 2.97868 70.6419 4.0734C69.7796 3.00095 68.6642 2.15588 67.3944 1.61294C65.6591 0.882683 63.7885 0.522168 61.9039 0.554739H54.2578V20.2974H61.8743C63.7613 20.328 65.6332 19.9584 67.3647 19.2132C68.6259 18.6696 69.739 17.8363 70.6122 16.7822C71.4188 17.8867 72.4557 18.8057 73.6526 19.4767C75.2952 20.3779 77.1486 20.8327 79.0251 20.7949C80.8014 20.8263 82.5605 20.4453 84.1619 19.6821L83.7487 20.2974H89.5342L93.4021 14.2308L97.3879 20.2974H104.001L96.445 9.69375ZM65.7138 14.2004C65.1814 14.7052 64.5498 15.0957 63.8586 15.3476C63.1673 15.5997 62.4312 15.7077 61.6961 15.6651H59.5421V5.12467H61.6969C62.4514 5.06124 63.2107 5.15917 63.9237 5.41184C64.6368 5.66452 65.2868 6.06605 65.8301 6.58934C66.7447 7.645 67.2197 9.00666 67.1586 10.3975C67.1874 11.096 67.0742 11.7933 66.8257 12.4475C66.5771 13.1017 66.1985 13.6997 65.7121 14.2056L65.7138 14.2004ZM86.8778 15.6408L84.3688 13.3008C83.781 14.0572 83.0612 14.7029 82.2438 15.2075C81.3697 15.6556 80.3922 15.8679 79.4094 15.8228C78.4369 15.8464 77.4767 15.6032 76.6345 15.12C75.846 14.654 75.2093 13.9729 74.8003 13.1578C74.3587 12.2757 74.1359 11.3017 74.1505 10.3169C74.1315 9.35359 74.3441 8.3996 74.7706 7.534C75.1747 6.72603 75.7985 6.04636 76.5716 5.57187C77.437 5.06392 78.4298 4.80997 79.4348 4.83954C80.3656 4.82095 81.284 5.05371 82.0919 5.51294C82.8798 5.97696 83.5635 6.59638 84.1007 7.33294L86.7279 4.726L90.5664 10.2034L86.8778 15.6408Z" fill="#D7D7D7"/>
</g>
<defs>
<clipPath id="clip0_21_7049">
<rect width="104" height="20.8" fill="white"/>
</clipPath>
</defs>
</svg>
