<svg width="135" height="60" viewBox="0 0 135 60" fill="none" xmlns="http://www.w3.org/2000/svg">
<path d="M2 15H32.5996V45.5996H2V15Z" fill="#F26625"/>
<path d="M16.2793 32.3391L10.9766 22.4453H13.4248L16.4848 28.6673C16.4848 28.7695 16.587 28.8717 16.6891 28.9738C16.7913 29.076 16.7913 29.1782 16.8935 29.3813L16.9956 29.4834V29.5856C17.0978 29.7899 17.0978 29.8921 17.1999 30.0964C17.3021 30.1985 17.3021 30.4029 17.4043 30.5038C17.5064 30.1973 17.7107 29.993 17.8117 29.5856C17.9138 29.2791 18.1182 28.9738 18.3225 28.6673L21.3825 22.4453H23.6263L18.3237 32.4424V38.7667H16.2841L16.2793 32.3391Z" fill="white"/>
<path d="M44.8462 25.7587C46.1354 25.7587 47.2543 26.1028 48.1154 26.7924L47.2555 27.8262C46.4808 27.3105 45.7073 26.9664 44.7623 26.9664C43.2992 26.9664 42.1815 27.7411 41.5795 29.2042C41.2353 30.064 41.0638 31.1829 41.0638 32.646C41.0638 33.7649 41.2341 34.7111 41.4944 35.3995C42.1827 37.0341 43.3016 37.8076 45.0213 37.8076C45.9676 37.8076 46.8286 37.5497 47.6021 36.9477L48.462 38.0666C47.3431 38.755 46.1512 39.1004 44.8499 39.1004C43.3016 39.1004 42.0112 38.4984 40.9787 37.208C39.9449 35.9918 39.5156 34.3694 39.5156 32.3918C39.5156 30.4143 40.0313 28.8648 41.0638 27.5757C42.01 26.4568 43.3016 25.7684 44.8499 25.7684L44.8462 25.7587ZM49.7499 34.2757C49.7499 32.7275 50.0941 31.5222 50.8688 30.6636C51.6436 29.805 52.5898 29.2869 53.7938 29.2869C55.1706 29.2869 56.287 29.8025 57.063 30.9214C57.665 31.7813 57.9228 32.9866 57.9228 34.4484C57.9228 36.1694 57.4071 37.5461 56.4597 38.406C55.7473 39.0318 54.827 39.3692 53.8789 39.3522C52.5898 39.3522 51.6411 38.9216 50.8676 37.9754C50.0929 37.1156 49.7487 35.8252 49.7487 34.2757H49.7499ZM55.7726 31.7825C55.342 31.0078 54.7388 30.5663 53.7938 30.5663C52.8488 30.5663 52.2456 30.9105 51.815 31.6001C51.4709 32.1158 51.3845 32.9768 51.3845 34.0933C51.3845 35.5564 51.5548 36.5865 51.9865 37.191C52.4183 37.7954 53.0203 38.1372 53.8789 38.1372C54.9127 38.1372 55.5999 37.6215 55.9441 36.6741C56.1143 36.1584 56.2019 35.4579 56.2019 34.609C56.287 33.3198 56.1168 32.3712 55.7714 31.7704L55.7726 31.7825ZM60.6739 31.9528C60.6739 31.0066 60.5887 30.2319 60.3297 29.642L61.7928 29.2978C62.0506 29.7283 62.137 30.244 62.137 30.6746V30.7597C62.4811 30.4155 62.8253 30.0713 63.3532 29.8135C63.9552 29.4693 64.4721 29.2978 64.9877 29.2978C65.7625 29.2978 66.4508 29.642 66.8801 30.244C66.9653 30.4143 67.138 30.6746 67.2243 30.846C68.2581 29.8123 69.2031 29.2978 70.2356 29.2978C70.924 29.2978 71.5248 29.5556 71.9566 29.9862C72.3871 30.5019 72.6449 31.1051 72.6449 31.7935V38.9326H71.0736V31.8786C71.0736 30.9324 70.6431 30.5019 69.8574 30.5019C69.4269 30.5019 68.9112 30.6721 68.4807 31.0175C68.3104 31.1878 67.965 31.4481 67.5345 31.7922L67.3642 31.9625V38.9314H65.7296V32.2106C65.7296 31.6086 65.6445 31.1768 65.4718 30.9944C65.2139 30.7366 64.9561 30.6502 64.5256 30.6502C63.8372 30.6502 63.0625 31.0808 62.1175 31.9394V38.9934H60.6751L60.6739 31.9528ZM75.3011 25.4145L76.8494 25.0703C77.0196 25.7587 77.1072 26.5334 77.1072 27.4784V30.6612C77.967 29.8013 78.9145 29.372 79.8607 29.372C80.9796 29.372 81.9258 29.8025 82.5278 30.6612C83.2162 31.521 83.5616 32.7263 83.5616 34.1882C83.5616 35.7364 83.2174 36.9416 82.5278 37.8878C81.8382 38.8341 80.8932 39.2646 79.7743 39.2646C79.2655 39.2741 78.7624 39.1558 78.3112 38.9204C77.7956 38.6626 77.4514 38.4047 77.1923 38.0606L76.9345 39.0943H75.4714C75.6417 38.6638 75.7292 37.8781 75.7292 36.6862V27.6499C75.6441 26.6161 75.559 25.8426 75.2987 25.412L75.3011 25.4145ZM77.7943 31.2522C77.5365 31.4225 77.2787 31.6828 77.106 31.9406V36.8687C77.708 37.6434 78.4827 37.9876 79.4168 37.9876C80.1915 37.9876 80.7935 37.7297 81.1377 37.1277C81.5682 36.4393 81.8261 35.4931 81.8261 34.1164C81.8261 32.9002 81.6558 32.0513 81.224 31.5356C80.8799 31.02 80.2778 30.7609 79.4168 30.7609C78.9011 30.6758 78.2979 30.846 77.7822 31.2766L77.7943 31.2522ZM85.797 26.6307C85.797 26.2865 85.8821 26.0287 86.1411 25.7708C86.4002 25.513 86.6568 25.4266 87.001 25.4266C87.3452 25.4266 87.603 25.5118 87.8608 25.7708C88.1187 26.0299 88.205 26.2865 88.205 26.6307C88.205 26.9749 88.1199 27.2327 87.8608 27.4905C87.6018 27.7484 87.3452 27.8347 87.001 27.8347C86.6568 27.8347 86.399 27.7496 86.1411 27.4905C85.8833 27.2315 85.797 26.9749 85.797 26.6307ZM86.1545 39.0092V29.5471L87.7027 29.2893V39.0116L86.1545 39.0092ZM91.0461 31.9528C91.0461 31.2644 91.0461 30.8339 90.9609 30.6636C90.9609 30.4058 90.7907 30.1479 90.6168 29.7174L92.0799 29.2869C92.3152 29.7381 92.4336 30.2411 92.424 30.75C93.3702 29.8038 94.4028 29.2869 95.4354 29.2869C95.951 29.2869 96.3816 29.372 96.8121 29.6311C97.2426 29.8901 97.5868 30.2331 97.7583 30.6648C97.9286 31.009 98.0161 31.3532 98.0161 31.7837V39.0104H96.553V32.5585C96.553 31.7837 96.4679 31.2693 96.2089 31.0102C96.0748 30.8724 95.9141 30.7632 95.7367 30.6892C95.5592 30.6152 95.3686 30.578 95.1763 30.5797C94.8321 30.5797 94.3164 30.75 93.7996 31.0102C93.3215 31.2545 92.8858 31.5739 92.5092 31.9564V39.0104H91.0461V31.9528ZM101.457 31.6086L100.682 30.5748C101.971 29.715 103.263 29.2857 104.64 29.2857C106.017 29.2857 106.878 29.8013 107.307 30.7487C107.477 31.0929 107.477 31.6086 107.477 32.3833V32.899L107.392 35.9967V36.4272C107.392 36.9429 107.392 37.287 107.477 37.5461C107.562 37.8903 107.821 38.1481 108.166 38.3208L107.391 39.3546C106.702 39.0968 106.272 38.6662 106.102 37.9778C105.242 38.8377 104.294 39.267 103.348 39.267C102.402 39.267 101.627 39.0092 101.037 38.4923C100.522 38.0618 100.263 37.3734 100.263 36.5135C100.24 36.0211 100.347 35.5314 100.574 35.0935C100.8 34.6557 101.138 34.2851 101.553 34.0191C102.413 33.4171 103.703 33.1593 105.253 33.1593H105.941V32.4709C105.941 31.6962 105.856 31.1817 105.597 31.0078C105.434 30.8315 105.233 30.6938 105.01 30.6046C104.787 30.5154 104.547 30.477 104.308 30.4921C103.792 30.4921 103.189 30.6624 102.5 30.9227L101.467 31.611L101.457 31.6086ZM106.018 36.685L106.103 34.1918H105.328C103.951 34.1918 103.09 34.4496 102.575 34.9665C102.23 35.3107 102.059 35.8264 102.059 36.5148C102.059 37.6337 102.575 38.2357 103.694 38.2357C104.182 38.2077 104.654 38.0494 105.06 37.7771C105.467 37.5048 105.793 37.1285 106.004 36.6875L106.018 36.685ZM112.383 29.5435H114.791L114.361 30.7597H112.382V36.8687C112.382 37.3843 112.467 37.7285 112.64 37.9876C112.81 38.1578 113.156 38.3318 113.586 38.3318C113.93 38.3318 114.275 38.2466 114.532 38.1615L114.703 39.1077C114.187 39.3655 113.669 39.4519 113.068 39.4519C111.605 39.4519 110.918 38.7635 110.918 37.3016V30.7633H109.627V29.5471H110.844V29.3769C110.844 29.2066 110.929 28.517 111.014 27.3981V27.1391L112.562 26.7949C112.392 27.8286 112.392 28.7736 112.392 29.5483L112.383 29.5435ZM116.341 34.2745C116.341 32.7263 116.685 31.521 117.46 30.6624C118.148 29.8025 119.181 29.2857 120.385 29.2857C121.761 29.2857 122.878 29.8013 123.654 30.9202C124.256 31.7801 124.514 32.9853 124.514 34.4472C124.514 36.1681 123.998 37.5449 123.051 38.4047C122.338 39.0306 121.418 39.368 120.47 39.3509C119.181 39.3509 118.232 38.9204 117.459 37.9742C116.77 37.1143 116.34 35.824 116.34 34.2745H116.341ZM122.45 31.7813C122.019 31.0066 121.416 30.5651 120.471 30.5651C119.526 30.5651 118.923 30.9093 118.492 31.5989C118.148 32.1145 118.062 32.9756 118.062 34.0921C118.062 35.5552 118.232 36.5853 118.664 37.1897C119.096 37.7942 119.698 38.136 120.556 38.136C121.59 38.136 122.277 37.6203 122.621 36.6729C122.792 36.1572 122.879 35.4567 122.879 34.6078C122.879 33.3186 122.709 32.3699 122.449 31.7691L122.45 31.7813ZM127.351 31.7789C127.351 30.919 127.266 30.2306 127.007 29.7138L128.47 29.2832C128.705 29.7344 128.824 30.2375 128.814 30.7463V30.9166C129.589 29.8828 130.449 29.3684 131.481 29.3684C131.652 29.3684 131.826 29.3684 131.997 29.4535L131.395 31.0881C131.225 31.0029 131.051 31.0029 130.964 31.0029C130.62 31.0029 130.19 31.0881 129.846 31.3471C129.501 31.6062 129.157 31.8628 128.986 32.207C128.872 32.5395 128.815 32.8883 128.814 33.2395V39.1746H127.351V31.7789Z" fill="#F26625"/>
</svg>
