<svg width="317" height="255" viewBox="0 0 317 255" fill="none" xmlns="http://www.w3.org/2000/svg">
<g filter="url(#filter0_d_21_7181)">
<rect x="41" y="49" width="236" height="158.548" rx="3.05502" fill="white"/>
<path d="M91.9219 128.867H262.999" stroke="#E6E6E6" stroke-width="0.125228"/>
<path d="M91.9219 118.484H262.999" stroke="#E6E6E6" stroke-width="0.125228"/>
<path d="M91.9219 108.25H262.999" stroke="#E6E6E6" stroke-width="0.125228"/>
<path d="M91.9219 98.0078H262.999" stroke="#E6E6E6" stroke-width="0.125228"/>
<path d="M262.859 87.9141V128.87" stroke="#E6E6E6" stroke-width="0.125228"/>
<path d="M91.9219 87.9141V128.87" stroke="#E6E6E6" stroke-width="0.125228"/>
<g clip-path="url(#clip0_21_7181)">
<rect x="126.18" y="142.581" width="9.95461" height="0.426626" fill="#00B4EF"/>
</g>
<rect x="126.215" y="142.617" width="9.88351" height="0.355522" stroke="#7A7A7A" stroke-width="0.0711044"/>
<g clip-path="url(#clip1_21_7181)">
<rect x="136.134" y="141.008" width="10" height="2" fill="#00B4EF"/>
</g>
<rect x="136.17" y="141.043" width="9.9289" height="1.9289" stroke="#7A7A7A" stroke-width="0.0711044"/>
<g clip-path="url(#clip2_21_7181)">
<rect x="146.134" y="141.008" width="10" height="2" fill="#00B4EF"/>
</g>
<rect x="146.17" y="141.043" width="9.9289" height="1.9289" stroke="#7A7A7A" stroke-width="0.0711044"/>
<g clip-path="url(#clip3_21_7181)">
<rect x="156.134" y="137.746" width="9.95461" height="5.26172" fill="#00B4EF"/>
</g>
<rect x="156.17" y="137.782" width="9.88351" height="5.19062" stroke="#7A7A7A" stroke-width="0.0711044"/>
<g clip-path="url(#clip4_21_7181)">
<rect x="166.089" y="129.008" width="10" height="14" fill="#00B4EF"/>
</g>
<rect x="166.124" y="129.043" width="9.9289" height="13.9289" stroke="#7A7A7A" stroke-width="0.0711044"/>
<g clip-path="url(#clip5_21_7181)">
<rect x="176.089" y="125.008" width="10" height="18" fill="#00B4EF"/>
</g>
<rect x="176.124" y="125.043" width="9.9289" height="17.9289" stroke="#7A7A7A" stroke-width="0.0711044"/>
<g clip-path="url(#clip6_21_7181)">
<rect x="186.089" y="120.008" width="10" height="23" fill="#00B4EF"/>
</g>
<rect x="186.124" y="120.043" width="9.9289" height="22.9289" stroke="#7A7A7A" stroke-width="0.0711044"/>
<g clip-path="url(#clip7_21_7181)">
<rect x="196.089" y="117.008" width="10" height="26" fill="#00B4EF"/>
</g>
<rect x="196.124" y="117.043" width="9.9289" height="25.9289" stroke="#7A7A7A" stroke-width="0.0711044"/>
<g clip-path="url(#clip8_21_7181)">
<rect x="206.089" y="112.575" width="9.95461" height="30.4327" fill="#00B4EF"/>
</g>
<rect x="206.124" y="112.611" width="9.88351" height="30.3616" stroke="#7A7A7A" stroke-width="0.0711044"/>
<g clip-path="url(#clip9_21_7181)">
<rect x="216.044" y="106.008" width="10" height="37" fill="#00B4EF"/>
</g>
<rect x="216.079" y="106.043" width="9.9289" height="36.9289" stroke="#7A7A7A" stroke-width="0.0711044"/>
<g clip-path="url(#clip10_21_7181)">
<rect x="226.044" y="98.0078" width="10" height="45" fill="#00B4EF"/>
</g>
<rect x="226.079" y="98.0434" width="9.9289" height="44.9289" stroke="#7A7A7A" stroke-width="0.0711044"/>
<g clip-path="url(#clip11_21_7181)">
<rect x="236.044" y="102.008" width="10" height="41" fill="#00B4EF"/>
</g>
<rect x="236.079" y="102.043" width="9.9289" height="40.9289" stroke="#7A7A7A" stroke-width="0.0711044"/>
<g clip-path="url(#clip12_21_7181)">
<rect x="58" y="158" width="192" height="6" rx="3" fill="#BDBDBD"/>
<rect x="58" y="171.638" width="54.6718" height="11.8456" rx="5.92278" fill="#BDBDBD"/>
</g>
<g filter="url(#filter1_b_21_7181)">
<path d="M41 52C41 50.3431 42.3431 49 44 49H274C275.657 49 277 50.3431 277 52V67H41V52Z" fill="#2A2C37"/>
</g>
<circle cx="50.5671" cy="58.5671" r="2.27799" fill="#FC513F"/>
<circle cx="58.1781" cy="58.5671" r="2.27799" fill="#FCC503"/>
<circle cx="65.7891" cy="58.5671" r="2.27799" fill="#47C796"/>
<g opacity="0.65" filter="url(#filter2_d_21_7181)">
<rect x="41" y="67" width="236" height="140" rx="3" fill="white"/>
</g>
</g>
<path d="M73.9701 124.033V126.558H70.3644V123.915C66.913 123.527 63.6775 122.048 61.1328 119.694L63.9854 116.183C65.7639 117.868 67.9687 119.041 70.3644 119.576V111.883C65.4906 110.62 62.2025 108.885 62.2025 104.229C62.2025 99.9682 65.4909 96.6924 70.3644 96.1018V93.6953H73.9701V96.1415C77.0628 96.4599 79.9752 97.7441 82.2906 99.8103L79.5957 103.44C77.9967 102.003 76.0632 100.986 73.9701 100.481V107.898C79.3981 109.121 83.0036 110.975 83.0036 115.788C83.0036 120.325 79.7149 123.639 73.9701 124.033ZM70.3644 106.951V100.402C68.4232 100.875 67.1944 102.256 67.1944 103.795C67.1944 105.373 68.2248 106.201 70.3644 106.951ZM78.0509 116.261C78.0509 114.447 76.7829 113.618 73.9701 112.79V119.812C76.6642 119.497 78.0509 117.998 78.0509 116.261Z" fill="#29B5E8"/>
<path d="M98.8409 124.033V126.558H95.2352V123.915C91.7838 123.527 88.5483 122.048 86.0036 119.694L88.8562 116.183C90.6347 117.868 92.8395 119.041 95.2352 119.576V111.883C90.3614 110.62 87.0733 108.885 87.0733 104.229C87.0733 99.9682 90.3616 96.6924 95.2352 96.1018V93.6953H98.8409V96.1415C101.934 96.4599 104.846 97.7441 107.161 99.8103L104.466 103.44C102.868 102.003 100.934 100.986 98.8409 100.481V107.898C104.269 109.121 107.874 110.975 107.874 115.788C107.874 120.325 104.586 123.639 98.8409 124.033ZM95.2352 106.951V100.402C93.294 100.875 92.0652 102.256 92.0652 103.795C92.0652 105.373 93.0956 106.201 95.2352 106.951ZM102.922 116.261C102.922 114.447 101.654 113.618 98.8409 112.79V119.812C101.535 119.497 102.922 117.998 102.922 116.261Z" fill="#29B5E8"/>
<path d="M123.712 124.033V126.558H120.106V123.915C116.655 123.527 113.419 122.048 110.874 119.694L113.727 116.183C115.505 117.868 117.71 119.041 120.106 119.576V111.883C115.232 110.62 111.944 108.885 111.944 104.229C111.944 99.9682 115.232 96.6924 120.106 96.1018V93.6953H123.712V96.1415C126.804 96.4599 129.717 97.7441 132.032 99.8103L129.337 103.44C127.738 102.003 125.805 100.986 123.712 100.481V107.898C129.14 109.121 132.745 110.975 132.745 115.788C132.745 120.325 129.456 123.639 123.712 124.033ZM120.106 106.951V100.402C118.165 100.875 116.936 102.256 116.936 103.795C116.936 105.373 117.966 106.201 120.106 106.951ZM127.793 116.261C127.793 114.447 126.524 113.618 123.712 112.79V119.812C126.406 119.497 127.793 117.998 127.793 116.261Z" fill="#29B5E8"/>
<defs>
<filter id="filter0_d_21_7181" x="19.1313" y="34.4208" width="279.737" height="202.286" filterUnits="userSpaceOnUse" color-interpolation-filters="sRGB">
<feFlood flood-opacity="0" result="BackgroundImageFix"/>
<feColorMatrix in="SourceAlpha" type="matrix" values="0 0 0 0 0 0 0 0 0 0 0 0 0 0 0 0 0 0 127 0" result="hardAlpha"/>
<feOffset dy="7.28958"/>
<feGaussianBlur stdDeviation="10.9344"/>
<feComposite in2="hardAlpha" operator="out"/>
<feColorMatrix type="matrix" values="0 0 0 0 1 0 0 0 0 1 0 0 0 0 1 0 0 0 0.1 0"/>
<feBlend mode="normal" in2="BackgroundImageFix" result="effect1_dropShadow_21_7181"/>
<feBlend mode="normal" in="SourceGraphic" in2="effect1_dropShadow_21_7181" result="shape"/>
</filter>
<filter id="filter1_b_21_7181" x="-7.88026" y="0.11974" width="333.761" height="115.761" filterUnits="userSpaceOnUse" color-interpolation-filters="sRGB">
<feFlood flood-opacity="0" result="BackgroundImageFix"/>
<feGaussianBlur in="BackgroundImageFix" stdDeviation="24.4401"/>
<feComposite in2="SourceAlpha" operator="in" result="effect1_backgroundBlur_21_7181"/>
<feBlend mode="normal" in="SourceGraphic" in2="effect1_backgroundBlur_21_7181" result="shape"/>
</filter>
<filter id="filter2_d_21_7181" x="19.1313" y="52.4208" width="279.737" height="183.737" filterUnits="userSpaceOnUse" color-interpolation-filters="sRGB">
<feFlood flood-opacity="0" result="BackgroundImageFix"/>
<feColorMatrix in="SourceAlpha" type="matrix" values="0 0 0 0 0 0 0 0 0 0 0 0 0 0 0 0 0 0 127 0" result="hardAlpha"/>
<feOffset dy="7.28958"/>
<feGaussianBlur stdDeviation="10.9344"/>
<feComposite in2="hardAlpha" operator="out"/>
<feColorMatrix type="matrix" values="0 0 0 0 0 0 0 0 0 0 0 0 0 0 0 0 0 0 0.1 0"/>
<feBlend mode="normal" in2="BackgroundImageFix" result="effect1_dropShadow_21_7181"/>
<feBlend mode="normal" in="SourceGraphic" in2="effect1_dropShadow_21_7181" result="shape"/>
</filter>
<clipPath id="clip0_21_7181">
<rect x="126.18" y="142.581" width="9.95461" height="0.426626" fill="white"/>
</clipPath>
<clipPath id="clip1_21_7181">
<rect x="136.134" y="141.008" width="10" height="2" fill="white"/>
</clipPath>
<clipPath id="clip2_21_7181">
<rect x="146.134" y="141.008" width="10" height="2" fill="white"/>
</clipPath>
<clipPath id="clip3_21_7181">
<rect x="156.134" y="137.746" width="9.95461" height="5.26172" fill="white"/>
</clipPath>
<clipPath id="clip4_21_7181">
<rect x="166.089" y="129.008" width="10" height="14" fill="white"/>
</clipPath>
<clipPath id="clip5_21_7181">
<rect x="176.089" y="125.008" width="10" height="18" fill="white"/>
</clipPath>
<clipPath id="clip6_21_7181">
<rect x="186.089" y="120.008" width="10" height="23" fill="white"/>
</clipPath>
<clipPath id="clip7_21_7181">
<rect x="196.089" y="117.008" width="10" height="26" fill="white"/>
</clipPath>
<clipPath id="clip8_21_7181">
<rect x="206.089" y="112.575" width="9.95461" height="30.4327" fill="white"/>
</clipPath>
<clipPath id="clip9_21_7181">
<rect x="216.044" y="106.008" width="10" height="37" fill="white"/>
</clipPath>
<clipPath id="clip10_21_7181">
<rect x="226.044" y="98.0078" width="10" height="45" fill="white"/>
</clipPath>
<clipPath id="clip11_21_7181">
<rect x="236.044" y="102.008" width="10" height="41" fill="white"/>
</clipPath>
<clipPath id="clip12_21_7181">
<rect width="192" height="26" fill="white" transform="translate(58 158)"/>
</clipPath>
</defs>
</svg>
