<svg width="280" height="203" viewBox="0 0 280 203" fill="none" xmlns="http://www.w3.org/2000/svg">
<g filter="url(#filter0_d_21_7182)">
<rect x="22" y="15" width="236" height="158.548" rx="3.05502" fill="white"/>
<path d="M72.9219 94.8672H243.999" stroke="#E6E6E6" stroke-width="0.125228"/>
<path d="M72.9219 84.4844H243.999" stroke="#E6E6E6" stroke-width="0.125228"/>
<path d="M72.9219 74.25H243.999" stroke="#E6E6E6" stroke-width="0.125228"/>
<path d="M72.9219 64.0078H243.999" stroke="#E6E6E6" stroke-width="0.125228"/>
<path d="M243.859 53.9141V94.8702" stroke="#E6E6E6" stroke-width="0.125228"/>
<path d="M72.9219 53.9141V94.8702" stroke="#E6E6E6" stroke-width="0.125228"/>
<g clip-path="url(#clip0_21_7182)">
<rect x="107.18" y="108.581" width="9.95461" height="0.426626" fill="#00B4EF"/>
</g>
<rect x="107.215" y="108.617" width="9.88351" height="0.355522" stroke="#7A7A7A" stroke-width="0.0711044"/>
<g clip-path="url(#clip1_21_7182)">
<rect x="117.134" y="107.008" width="10" height="2" fill="#00B4EF"/>
</g>
<rect x="117.17" y="107.043" width="9.9289" height="1.9289" stroke="#7A7A7A" stroke-width="0.0711044"/>
<g clip-path="url(#clip2_21_7182)">
<rect x="127.134" y="107.008" width="10" height="2" fill="#00B4EF"/>
</g>
<rect x="127.17" y="107.043" width="9.9289" height="1.9289" stroke="#7A7A7A" stroke-width="0.0711044"/>
<g clip-path="url(#clip3_21_7182)">
<rect x="137.134" y="103.746" width="9.95461" height="5.26172" fill="#00B4EF"/>
</g>
<rect x="137.17" y="103.782" width="9.88351" height="5.19062" stroke="#7A7A7A" stroke-width="0.0711044"/>
<g clip-path="url(#clip4_21_7182)">
<rect x="147.089" y="95.0078" width="10" height="14" fill="#00B4EF"/>
</g>
<rect x="147.124" y="95.0434" width="9.9289" height="13.9289" stroke="#7A7A7A" stroke-width="0.0711044"/>
<g clip-path="url(#clip5_21_7182)">
<rect x="157.089" y="91.0078" width="10" height="18" fill="#00B4EF"/>
</g>
<rect x="157.124" y="91.0434" width="9.9289" height="17.9289" stroke="#7A7A7A" stroke-width="0.0711044"/>
<g clip-path="url(#clip6_21_7182)">
<rect x="167.089" y="86.0078" width="10" height="23" fill="#00B4EF"/>
</g>
<rect x="167.124" y="86.0434" width="9.9289" height="22.9289" stroke="#7A7A7A" stroke-width="0.0711044"/>
<g clip-path="url(#clip7_21_7182)">
<rect x="177.089" y="83.0078" width="10" height="26" fill="#00B4EF"/>
</g>
<rect x="177.124" y="83.0434" width="9.9289" height="25.9289" stroke="#7A7A7A" stroke-width="0.0711044"/>
<g clip-path="url(#clip8_21_7182)">
<rect x="187.089" y="78.5752" width="9.95461" height="30.4327" fill="#00B4EF"/>
</g>
<rect x="187.124" y="78.6107" width="9.88351" height="30.3616" stroke="#7A7A7A" stroke-width="0.0711044"/>
<g clip-path="url(#clip9_21_7182)">
<rect x="197.044" y="72.0078" width="10" height="37" fill="#00B4EF"/>
</g>
<rect x="197.079" y="72.0434" width="9.9289" height="36.9289" stroke="#7A7A7A" stroke-width="0.0711044"/>
<g clip-path="url(#clip10_21_7182)">
<rect x="207.044" y="64.0078" width="10" height="45" fill="#00B4EF"/>
</g>
<rect x="207.079" y="64.0434" width="9.9289" height="44.9289" stroke="#7A7A7A" stroke-width="0.0711044"/>
<g clip-path="url(#clip11_21_7182)">
<rect x="217.044" y="68.0078" width="10" height="41" fill="#00B4EF"/>
</g>
<rect x="217.079" y="68.0434" width="9.9289" height="40.9289" stroke="#7A7A7A" stroke-width="0.0711044"/>
<g clip-path="url(#clip12_21_7182)">
<rect x="39" y="124" width="192" height="6" rx="3" fill="#BDBDBD"/>
<rect x="39" y="137.638" width="54.6718" height="11.8456" rx="5.92278" fill="#BDBDBD"/>
</g>
<g filter="url(#filter1_b_21_7182)">
<path d="M22 18C22 16.3431 23.3431 15 25 15H255C256.657 15 258 16.3431 258 18V33H22V18Z" fill="#2A2C37"/>
</g>
<circle cx="31.5671" cy="24.5671" r="2.27799" fill="#FC513F"/>
<circle cx="39.1781" cy="24.5671" r="2.27799" fill="#FCC503"/>
<circle cx="46.7891" cy="24.5671" r="2.27799" fill="#47C796"/>
<g opacity="0.65" filter="url(#filter2_d_21_7182)">
<rect x="22" y="33" width="236" height="140" rx="3" fill="white"/>
</g>
</g>
<defs>
<filter id="filter0_d_21_7182" x="0.131273" y="0.420849" width="279.737" height="202.286" filterUnits="userSpaceOnUse" color-interpolation-filters="sRGB">
<feFlood flood-opacity="0" result="BackgroundImageFix"/>
<feColorMatrix in="SourceAlpha" type="matrix" values="0 0 0 0 0 0 0 0 0 0 0 0 0 0 0 0 0 0 127 0" result="hardAlpha"/>
<feOffset dy="7.28958"/>
<feGaussianBlur stdDeviation="10.9344"/>
<feComposite in2="hardAlpha" operator="out"/>
<feColorMatrix type="matrix" values="0 0 0 0 1 0 0 0 0 1 0 0 0 0 1 0 0 0 0.1 0"/>
<feBlend mode="normal" in2="BackgroundImageFix" result="effect1_dropShadow_21_7182"/>
<feBlend mode="normal" in="SourceGraphic" in2="effect1_dropShadow_21_7182" result="shape"/>
</filter>
<filter id="filter1_b_21_7182" x="-26.8803" y="-33.8803" width="333.761" height="115.761" filterUnits="userSpaceOnUse" color-interpolation-filters="sRGB">
<feFlood flood-opacity="0" result="BackgroundImageFix"/>
<feGaussianBlur in="BackgroundImageFix" stdDeviation="24.4401"/>
<feComposite in2="SourceAlpha" operator="in" result="effect1_backgroundBlur_21_7182"/>
<feBlend mode="normal" in="SourceGraphic" in2="effect1_backgroundBlur_21_7182" result="shape"/>
</filter>
<filter id="filter2_d_21_7182" x="0.131273" y="18.4208" width="279.737" height="183.737" filterUnits="userSpaceOnUse" color-interpolation-filters="sRGB">
<feFlood flood-opacity="0" result="BackgroundImageFix"/>
<feColorMatrix in="SourceAlpha" type="matrix" values="0 0 0 0 0 0 0 0 0 0 0 0 0 0 0 0 0 0 127 0" result="hardAlpha"/>
<feOffset dy="7.28958"/>
<feGaussianBlur stdDeviation="10.9344"/>
<feComposite in2="hardAlpha" operator="out"/>
<feColorMatrix type="matrix" values="0 0 0 0 0 0 0 0 0 0 0 0 0 0 0 0 0 0 0.1 0"/>
<feBlend mode="normal" in2="BackgroundImageFix" result="effect1_dropShadow_21_7182"/>
<feBlend mode="normal" in="SourceGraphic" in2="effect1_dropShadow_21_7182" result="shape"/>
</filter>
<clipPath id="clip0_21_7182">
<rect x="107.18" y="108.581" width="9.95461" height="0.426626" fill="white"/>
</clipPath>
<clipPath id="clip1_21_7182">
<rect x="117.134" y="107.008" width="10" height="2" fill="white"/>
</clipPath>
<clipPath id="clip2_21_7182">
<rect x="127.134" y="107.008" width="10" height="2" fill="white"/>
</clipPath>
<clipPath id="clip3_21_7182">
<rect x="137.134" y="103.746" width="9.95461" height="5.26172" fill="white"/>
</clipPath>
<clipPath id="clip4_21_7182">
<rect x="147.089" y="95.0078" width="10" height="14" fill="white"/>
</clipPath>
<clipPath id="clip5_21_7182">
<rect x="157.089" y="91.0078" width="10" height="18" fill="white"/>
</clipPath>
<clipPath id="clip6_21_7182">
<rect x="167.089" y="86.0078" width="10" height="23" fill="white"/>
</clipPath>
<clipPath id="clip7_21_7182">
<rect x="177.089" y="83.0078" width="10" height="26" fill="white"/>
</clipPath>
<clipPath id="clip8_21_7182">
<rect x="187.089" y="78.5752" width="9.95461" height="30.4327" fill="white"/>
</clipPath>
<clipPath id="clip9_21_7182">
<rect x="197.044" y="72.0078" width="10" height="37" fill="white"/>
</clipPath>
<clipPath id="clip10_21_7182">
<rect x="207.044" y="64.0078" width="10" height="45" fill="white"/>
</clipPath>
<clipPath id="clip11_21_7182">
<rect x="217.044" y="68.0078" width="10" height="41" fill="white"/>
</clipPath>
<clipPath id="clip12_21_7182">
<rect width="192" height="26" fill="white" transform="translate(39 124)"/>
</clipPath>
</defs>
</svg>
