<svg width="25" height="24" viewBox="0 0 25 24" fill="none" xmlns="http://www.w3.org/2000/svg">
<path d="M18.076 2.22087C18.076 1.4656 18.7023 0.857707 19.4391 0.857707H23.197C23.9523 0.857707 24.5602 1.4656 24.5602 2.22087V12.9419C24.5602 13.6972 23.9523 14.3051 23.197 14.3051H19.4391C18.6839 14.3051 18.076 13.6972 18.076 12.9419V2.22087ZM2.08649 10.6209C1.27596 9.97613 1.14701 8.79718 1.79175 7.98666C2.04965 7.65508 2.41807 7.43402 2.82333 7.34192C2.0128 6.69718 1.88386 5.51823 2.52859 4.72613C2.78649 4.39455 3.15491 4.1735 3.57859 4.06297C2.76807 3.41823 2.63912 2.23929 3.30228 1.42876C3.65228 0.986655 4.18649 0.72876 4.75754 0.72876L15.3496 0.839286C16.1049 0.839286 16.7128 1.44718 16.7128 2.20244V12.9235C16.7128 14.6182 11.297 17.7314 11.0207 19.4077C10.8365 20.4761 11.076 23.2577 10.3391 23.2577C9.06807 23.2577 7.46544 22.7788 7.46544 19.9788C7.46544 17.5103 9.08649 14.3051 9.08649 14.3051H2.49175C1.46017 14.3051 0.631226 13.4761 0.631226 12.4446C0.631226 11.5603 1.23912 10.8051 2.08649 10.6209Z" fill="url(#paint0_linear_21_7327)"/>
<defs>
<linearGradient id="paint0_linear_21_7327" x1="4.51438" y1="0.192155" x2="21.1998" y2="16.8776" gradientUnits="userSpaceOnUse">
<stop stop-color="#EF5350"/>
<stop offset="1" stop-color="#C62828"/>
</linearGradient>
</defs>
</svg>
