<svg width="135" height="60" viewBox="0 0 135 60" fill="none" xmlns="http://www.w3.org/2000/svg">
<path d="M42.9506 26.7031H34.2025C34.1767 26.7031 34.1512 26.7082 34.1275 26.7181C34.1037 26.728 34.0822 26.7426 34.0641 26.7609C34.046 26.7792 34.0317 26.8009 34.022 26.8247C34.0124 26.8486 34.0075 26.8742 34.0078 26.8999V37.6031C34.0075 37.6288 34.0124 37.6544 34.022 37.6783C34.0317 37.7021 34.046 37.7238 34.0641 37.7421C34.0822 37.7604 34.1037 37.775 34.1275 37.7849C34.1512 37.7948 34.1767 37.7999 34.2025 37.7999H42.9506C42.9763 37.7999 43.0018 37.7948 43.0256 37.7849C43.0494 37.775 43.0709 37.7604 43.089 37.7421C43.1071 37.7238 43.1214 37.7021 43.1311 37.6783C43.1407 37.6544 43.1455 37.6288 43.1452 37.6031V36.777C43.1452 36.7514 43.1402 36.7261 43.1304 36.7025C43.1206 36.6789 43.1063 36.6574 43.0882 36.6393C43.0702 36.6212 43.0487 36.6069 43.0251 36.5971C43.0015 36.5873 42.9762 36.5823 42.9506 36.5823H35.3163V32.4429H42.5375C42.5633 32.4429 42.5888 32.4378 42.6125 32.4279C42.6363 32.418 42.6578 32.4034 42.6759 32.3851C42.694 32.3668 42.7083 32.3451 42.718 32.3212C42.7276 32.2974 42.7325 32.2718 42.7322 32.2461V31.4675C42.7325 31.4418 42.7276 31.4162 42.718 31.3924C42.7083 31.3685 42.694 31.3468 42.6759 31.3285C42.6578 31.3102 42.6363 31.2957 42.6125 31.2857C42.5888 31.2758 42.5633 31.2707 42.5375 31.2707H35.3163V27.9207H42.9506C42.9763 27.9207 43.0018 27.9156 43.0256 27.9057C43.0494 27.8958 43.0709 27.8812 43.089 27.8629C43.1071 27.8446 43.1214 27.8229 43.1311 27.799C43.1407 27.7752 43.1455 27.7496 43.1452 27.7239V26.8934C43.1441 26.8425 43.1231 26.7941 43.0867 26.7586C43.0503 26.723 43.0015 26.7031 42.9506 26.7031Z" fill="white"/>
<path d="M54.5304 36.5737H47.2637V26.8999C47.2637 26.8478 47.243 26.7977 47.206 26.7608C47.1691 26.7239 47.1191 26.7031 47.0669 26.7031H46.1499C46.0977 26.7031 46.0476 26.7239 46.0107 26.7608C45.9738 26.7977 45.9531 26.8478 45.9531 26.8999V37.6032C45.9531 37.6554 45.9738 37.7054 46.0107 37.7423C46.0476 37.7792 46.0977 37.8 46.1499 37.8H54.5304C54.5561 37.8 54.5816 37.7949 54.6054 37.7849C54.6291 37.775 54.6507 37.7605 54.6688 37.7422C54.6869 37.7239 54.7012 37.7022 54.7108 37.6783C54.7205 37.6544 54.7253 37.6289 54.725 37.6032V36.7619C54.7233 36.7114 54.7021 36.6635 54.6658 36.6284C54.6294 36.5933 54.5809 36.5737 54.5304 36.5737Z" fill="white"/>
<path d="M66.185 26.7031H57.439C57.3869 26.7031 57.3368 26.7238 57.2999 26.7607C57.263 26.7976 57.2422 26.8477 57.2422 26.8999V37.6031C57.2422 37.6553 57.263 37.7054 57.2999 37.7423C57.3368 37.7792 57.3869 37.7999 57.439 37.7999H66.185C66.2372 37.7999 66.2873 37.7792 66.3242 37.7423C66.3611 37.7054 66.3818 37.6553 66.3818 37.6031V36.777C66.3818 36.7512 66.3767 36.7257 66.3668 36.702C66.3569 36.6782 66.3423 36.6567 66.324 36.6385C66.3057 36.6204 66.284 36.6062 66.2602 36.5965C66.2363 36.5868 66.2108 36.582 66.185 36.5823H58.5507V32.4429H65.7719C65.8241 32.4429 65.8742 32.4222 65.9111 32.3853C65.948 32.3483 65.9687 32.2983 65.9687 32.2461V31.4675C65.9687 31.4153 65.948 31.3653 65.9111 31.3284C65.8742 31.2914 65.8241 31.2707 65.7719 31.2707H58.5507V27.9207H65.999C66.0998 27.9207 66.1965 27.881 66.2682 27.8101C66.3398 27.7392 66.3807 27.643 66.3818 27.5422V26.8934C66.3801 26.8423 66.3587 26.7939 66.3219 26.7584C66.2852 26.7229 66.2361 26.7031 66.185 26.7031Z" fill="white"/>
<path d="M79.2911 26.7031H78.3287C78.291 26.7032 78.2541 26.7141 78.2223 26.7344C78.1905 26.7547 78.1652 26.7836 78.1492 26.8177L73.9233 36.1498L69.7125 26.8177C69.6971 26.7836 69.6722 26.7546 69.6407 26.7343C69.6093 26.7139 69.5726 26.7031 69.5352 26.7031H68.5706C68.538 26.7033 68.506 26.7115 68.4774 26.7269C68.4487 26.7424 68.4243 26.7647 68.4062 26.7918C68.3883 26.8195 68.3777 26.8512 68.3754 26.8842C68.3732 26.9171 68.3793 26.95 68.3932 26.9799L73.2399 37.6853C73.2559 37.7194 73.2812 37.7483 73.313 37.7686C73.3448 37.7889 73.3817 37.7998 73.4194 37.7999H74.4272C74.4649 37.7998 74.5018 37.7889 74.5336 37.7686C74.5654 37.7483 74.5907 37.7194 74.6067 37.6853L79.4685 26.9799C79.4824 26.9504 79.4886 26.9178 79.4863 26.8852C79.484 26.8526 79.4734 26.8212 79.4555 26.7939C79.4378 26.7663 79.4135 26.7435 79.3848 26.7276C79.3561 26.7118 79.3239 26.7033 79.2911 26.7031Z" fill="white"/>
<path d="M85.9722 26.8177C85.9568 26.7836 85.9319 26.7546 85.9004 26.7343C85.8689 26.7139 85.8323 26.7031 85.7948 26.7031H84.7849C84.7474 26.7031 84.7107 26.7139 84.6793 26.7343C84.6478 26.7546 84.6229 26.7836 84.6075 26.8177L79.7587 37.5231C79.7457 37.5529 79.7402 37.5855 79.7429 37.618C79.7455 37.6505 79.7562 37.6818 79.7739 37.7091C79.7912 37.737 79.8155 37.76 79.8442 37.7759C79.873 37.7918 79.9054 37.8001 79.9382 37.7999H80.9006C80.9383 37.7998 80.9752 37.7889 81.007 37.7686C81.0388 37.7483 81.0642 37.7194 81.0801 37.6853L81.8025 36.0871H88.788L89.5168 37.6853C89.532 37.7196 89.5569 37.7487 89.5884 37.7691C89.6199 37.7895 89.6567 37.8002 89.6942 37.7999H90.6566C90.6897 37.7998 90.7223 37.7915 90.7514 37.7756C90.7805 37.7598 90.8051 37.7369 90.8231 37.7091C90.8405 37.6816 90.8508 37.6502 90.853 37.6177C90.8553 37.5853 90.8495 37.5527 90.8361 37.5231L85.9722 26.8177ZM88.2582 34.9149H82.3345L85.2909 28.3532L88.2582 34.9149Z" fill="white"/>
<path d="M100.869 26.7031H90.4148C90.3822 26.7029 90.35 26.7109 90.3213 26.7264C90.2926 26.7419 90.2682 26.7644 90.2504 26.7918C90.2327 26.8191 90.2221 26.8504 90.2194 26.8829C90.2168 26.9153 90.2222 26.9479 90.2353 26.9778L90.6073 27.8191C90.6225 27.8539 90.6476 27.8836 90.6795 27.9044C90.7114 27.9251 90.7487 27.9361 90.7868 27.9358H94.9954V37.6031C94.9951 37.6289 94.9999 37.6544 95.0096 37.6783C95.0193 37.7021 95.0335 37.7239 95.0517 37.7422C95.0698 37.7605 95.0913 37.775 95.1151 37.7849C95.1388 37.7948 95.1643 37.7999 95.1901 37.7999H96.107C96.1592 37.7999 96.2093 37.7792 96.2462 37.7423C96.2831 37.7054 96.3038 37.6553 96.3038 37.6031V27.9358H100.497C100.535 27.9358 100.572 27.9247 100.604 27.904C100.636 27.8833 100.661 27.8538 100.677 27.8191L101.051 26.9778C101.063 26.9478 101.068 26.9153 101.066 26.8829C101.063 26.8506 101.053 26.8193 101.036 26.7918C101.017 26.7642 100.993 26.7417 100.964 26.7262C100.934 26.7107 100.902 26.7028 100.869 26.7031Z" fill="white"/>
<path d="M104.478 26.7031H103.564C103.455 26.7031 103.367 26.7912 103.367 26.8999V37.6031C103.367 37.7118 103.455 37.7999 103.564 37.7999H104.478C104.587 37.7999 104.675 37.7118 104.675 37.6031V26.8999C104.675 26.7912 104.587 26.7031 104.478 26.7031Z" fill="white"/>
<path d="M113.374 26.4766C111.603 26.4766 110.175 27.0368 109.135 28.1419C108.095 29.2471 107.565 30.6139 107.565 32.2511C107.524 33.7793 108.088 35.2619 109.133 36.3775C110.18 37.474 111.607 38.0298 113.372 38.0298C115.137 38.0298 116.579 37.474 117.628 36.3775C118.673 35.2619 119.237 33.7793 119.196 32.2511C119.196 30.6117 118.668 29.2233 117.628 28.1419C116.588 27.0606 115.147 26.4766 113.374 26.4766ZM117.888 32.2532C117.888 33.566 117.5 34.6322 116.7 35.4973C115.9 36.3624 114.803 36.7798 113.374 36.7798C111.944 36.7798 110.826 36.3472 110.048 35.4994C109.255 34.6086 108.835 33.4471 108.876 32.2554C108.834 31.0635 109.254 29.9016 110.048 29.0113C110.826 28.1592 111.944 27.7288 113.374 27.7288C114.803 27.7288 115.922 28.1614 116.7 29.0113C117.479 29.8613 117.879 30.9426 117.879 32.2532H117.888Z" fill="white"/>
<path d="M131.8 26.7031H130.894C130.868 26.7031 130.843 26.7082 130.819 26.7181C130.795 26.728 130.774 26.7426 130.756 26.7609C130.737 26.7792 130.723 26.8009 130.714 26.8247C130.704 26.8486 130.699 26.8742 130.699 26.8999L130.71 36.0243L123.606 26.7788C123.588 26.7553 123.564 26.7363 123.538 26.7231C123.511 26.71 123.482 26.7032 123.452 26.7031H122.289C122.263 26.7031 122.237 26.7082 122.214 26.7181C122.19 26.728 122.168 26.7426 122.15 26.7609C122.132 26.7792 122.118 26.8009 122.108 26.8247C122.098 26.8486 122.094 26.8742 122.094 26.8999V37.6031C122.094 37.6288 122.098 37.6544 122.108 37.6783C122.118 37.7021 122.132 37.7238 122.15 37.7421C122.168 37.7604 122.19 37.775 122.214 37.7849C122.237 37.7948 122.263 37.7999 122.289 37.7999H123.208C123.233 37.7999 123.259 37.7948 123.283 37.7849C123.306 37.775 123.328 37.7604 123.346 37.7421C123.364 37.7238 123.379 37.7021 123.388 37.6783C123.398 37.6544 123.403 37.6288 123.402 37.6031L123.392 28.4765L130.483 37.7221C130.501 37.7462 130.525 37.7658 130.552 37.7794C130.579 37.7929 130.609 37.7999 130.639 37.7999H131.8C131.852 37.7999 131.902 37.7792 131.939 37.7423C131.976 37.7054 131.997 37.6553 131.997 37.6031V26.8934C131.995 26.8423 131.974 26.7939 131.937 26.7584C131.9 26.7229 131.851 26.7031 131.8 26.7031Z" fill="white"/>
<path d="M13.7266 43.9802V15.3093C13.7261 15.246 13.7452 15.1841 13.7813 15.1321C13.8174 15.0801 13.8686 15.0405 13.928 15.0188C13.9874 14.997 14.0521 14.9941 14.1132 15.0105C14.1743 15.0269 14.2289 15.0617 14.2694 15.1103L28.3854 31.9383C28.4235 31.983 28.4479 32.0378 28.4558 32.0961C28.4637 32.1543 28.4547 32.2136 28.4298 32.2669C28.405 32.3202 28.3654 32.3652 28.3157 32.3967C28.2661 32.4281 28.2084 32.4447 28.1496 32.4443H19.8362C19.777 32.444 19.719 32.4607 19.6691 32.4926C19.6193 32.5244 19.5796 32.57 19.5551 32.6238L14.3148 44.1035C14.2865 44.168 14.2368 44.2208 14.1742 44.253C14.1115 44.2852 14.0397 44.2949 13.9707 44.2805C13.9017 44.266 13.8398 44.2283 13.7954 44.1736C13.7509 44.1189 13.7266 44.0507 13.7266 43.9802Z" fill="url(#paint0_linear_21_4252)"/>
<path d="M11.9481 26.3705C11.9479 26.3073 11.9283 26.2457 11.8919 26.194C11.8556 26.1423 11.8043 26.1029 11.7449 26.0812C11.6855 26.0595 11.6209 26.0566 11.5598 26.0727C11.4987 26.0889 11.444 26.1234 11.4031 26.1716L2.07318 37.29C2.03521 37.3346 2.01081 37.3892 2.00285 37.4473C1.99489 37.5053 2.00371 37.5645 2.02827 37.6177C2.05283 37.6709 2.0921 37.716 2.14144 37.7476C2.19079 37.7792 2.24815 37.796 2.30675 37.7961H8.27148C8.33034 37.7959 8.38801 37.8127 8.43752 37.8446C8.48702 37.8764 8.52625 37.9219 8.55047 37.9756L11.362 44.122C11.3905 44.1868 11.4405 44.2399 11.5037 44.2721C11.5668 44.3043 11.6391 44.3136 11.7083 44.2986C11.7775 44.2836 11.8394 44.2451 11.8835 44.1897C11.9276 44.1342 11.9512 44.0653 11.9503 43.9944V26.3705H11.9481Z" fill="url(#paint1_linear_21_4252)"/>
<defs>
<linearGradient id="paint0_linear_21_4252" x1="21.0949" y1="43.0502" x2="21.0949" y2="16.1916" gradientUnits="userSpaceOnUse">
<stop stop-color="#2573EF"/>
<stop offset="0.5" stop-color="#3282FF"/>
</linearGradient>
<linearGradient id="paint1_linear_21_4252" x1="230.757" y1="2407.33" x2="230.757" y2="996.05" gradientUnits="userSpaceOnUse">
<stop stop-color="#2573EF"/>
<stop offset="0.5" stop-color="#3282FF"/>
</linearGradient>
</defs>
</svg>
