<svg width="247" height="264" viewBox="0 0 247 264" fill="none" xmlns="http://www.w3.org/2000/svg">
<g clip-path="url(#clip0_21_4236)">
<path fill-rule="evenodd" clip-rule="evenodd" d="M158.752 137.045C158.195 135.297 157.963 133.496 158.004 131.717C158.069 130.429 158.237 129.144 158.604 127.856C159.709 123.858 162.328 120.286 166.251 118.034L222.054 85.9634C229.932 81.4503 239.975 84.1339 244.496 91.9632C249.061 99.781 246.368 109.765 238.491 114.29L207.308 132.24L238.491 150.141C246.368 154.673 249.051 164.659 244.496 172.509C239.975 180.318 229.932 182.988 222.054 178.475L166.251 146.383C162.485 144.226 159.93 140.844 158.752 137.045ZM143.608 167.098C146.814 166.826 150.148 167.496 153.147 169.235L208.992 201.285C216.848 205.807 219.531 215.845 214.997 223.676C210.442 231.486 200.408 234.175 192.563 229.632L161.275 211.669V247.563C161.275 256.606 153.925 263.934 144.828 263.934C135.774 263.934 128.401 256.606 128.401 247.563V183.395C128.401 174.78 135.11 167.705 143.608 167.098ZM86.4173 97.3607C83.2206 97.6239 79.8964 96.944 76.8976 95.2263L21.0638 63.1461C13.1957 58.6217 10.5261 48.6258 15.0491 40.7739C19.5815 32.9579 29.6245 30.2762 37.4812 34.7968L68.7479 52.781V16.8752C68.7479 7.8566 76.0984 0.527344 85.1957 0.527344C94.293 0.527344 101.624 7.8566 101.624 16.8752V81.0431C101.624 89.6488 94.9342 96.7357 86.4173 97.3607ZM208.992 63.1461L153.147 95.2263C150.148 96.944 146.814 97.6239 143.608 97.3607C135.11 96.7357 128.401 89.6488 128.401 81.0431V16.8752C128.401 7.8566 135.774 0.527344 144.828 0.527344C153.925 0.527344 161.275 7.8566 161.275 16.8752V52.781L192.563 34.7968C200.408 30.2762 210.442 32.9579 214.997 40.7739C219.531 48.6258 216.848 58.6217 208.992 63.1461ZM104.043 132.106C104.043 131.174 104.61 129.875 105.272 129.185L111.993 122.526C112.655 121.869 113.96 121.324 114.898 121.324H115.159C116.095 121.324 117.399 121.869 118.051 122.526L124.772 129.185C125.446 129.875 125.961 131.174 125.961 132.106V132.367C125.961 133.287 125.446 134.575 124.772 135.246L118.051 141.923C117.389 142.582 116.095 143.126 115.159 143.126H114.898C113.96 143.126 112.655 142.582 111.993 141.923L105.272 135.246C104.61 134.575 104.043 133.287 104.043 132.367V132.106ZM85.4906 138.511L108.701 161.584C109.365 162.262 110.648 162.816 111.614 162.816H113.298H116.727H118.439C119.378 162.816 120.681 162.262 121.355 161.584L144.554 138.511C145.218 137.861 145.754 136.554 145.754 135.632V133.926V130.513V128.829C145.754 127.886 145.218 126.577 144.554 125.918L121.355 102.847C120.681 102.167 119.378 101.633 118.439 101.633H116.727H113.298H111.614C110.668 101.633 109.365 102.167 108.701 102.847L85.4906 125.918C84.8285 126.577 84.2919 127.886 84.2919 128.829V130.513V133.926V135.632C84.2919 136.554 84.8285 137.861 85.4906 138.511ZM21.0638 201.285L76.8976 169.235C79.8964 167.496 83.2206 166.826 86.4173 167.098C94.9342 167.705 101.624 174.78 101.624 183.395V247.563C101.624 256.606 94.293 263.934 85.1957 263.934C76.0984 263.934 68.7479 256.606 68.7479 247.563V211.669L37.4812 229.632C29.6264 234.175 19.5815 231.486 15.0491 223.676C10.5261 215.845 13.1957 205.807 21.0638 201.285ZM-8.4581 114.29L22.7269 132.24L-8.4581 150.141C-16.3338 154.673 -19.0262 164.659 -14.4728 172.509C-9.92896 180.318 0.12352 182.988 7.97066 178.475L63.8159 146.383C67.5397 144.226 70.1256 140.844 71.273 137.045C71.8191 135.297 72.0721 133.496 72.0093 131.717C71.977 130.429 71.7886 129.144 71.4309 127.856C70.3139 123.858 67.6957 120.288 63.8159 118.034L7.97066 85.9634C0.12352 81.4503 -9.92896 84.1339 -14.4728 91.9632C-19.0262 99.781 -16.3338 109.765 -8.4581 114.29Z" fill="url(#paint0_linear_21_4236)"/>
</g>
<defs>
<linearGradient id="paint0_linear_21_4236" x1="7.50278" y1="17.5502" x2="209.322" y2="221.659" gradientUnits="userSpaceOnUse">
<stop stop-color="#29B5E8"/>
<stop offset="1" stop-color="#29B5E8" stop-opacity="0"/>
</linearGradient>
<clipPath id="clip0_21_4236">
<rect width="246.724" height="264" fill="white"/>
</clipPath>
</defs>
</svg>
