<svg width="104" height="26" viewBox="0 0 104 26" fill="none" xmlns="http://www.w3.org/2000/svg">
<g opacity="0.9" clip-path="url(#clip0_21_8002)">
<path d="M58.3956 8.55501C58.3956 5.54246 58.4471 2.73766 58.6017 0.140625L50.7169 1.6469V2.37408L51.4899 2.47795C52.0567 2.5299 52.4175 2.73766 52.6236 3.04931C52.8298 3.41289 52.9844 3.93229 53.0875 4.71141C53.1906 6.21768 53.2936 9.64578 53.2421 15.0476C53.2421 20.3975 53.1906 23.7736 53.0875 25.0721C55.9219 25.6954 58.1379 25.9551 59.787 25.9551C62.8791 25.9551 65.3012 25.0721 67.0534 23.2542C68.8056 21.4882 69.7332 18.9951 69.7332 15.9306C69.7332 13.4894 69.0633 11.4637 67.7234 9.85351C66.3834 8.24337 64.6828 7.46426 62.6729 7.46426C61.333 7.46426 59.9416 7.82785 58.3956 8.55501ZM58.5502 24.5527C58.4471 22.8906 58.3441 17.9044 58.3441 9.7496C58.8079 9.59378 59.4263 9.48996 60.1993 9.48996C61.4361 9.48996 62.4152 10.1132 63.1368 11.4117C63.8583 12.7103 64.219 14.2685 64.219 16.2423C64.219 18.6835 63.8068 20.6572 62.9822 22.3193C62.1576 23.9295 61.1269 24.7605 59.8385 24.7605C59.4263 24.6567 59.014 24.6047 58.5502 24.5527ZM21.1359 0.660032H0.521881V1.69885L1.60412 1.80272C2.42868 1.95854 2.99556 2.27019 3.3563 2.73766C3.71704 3.25706 3.92319 4.08811 3.97472 5.23081C4.387 10.8404 4.387 16.0864 3.97472 20.9169C3.87165 22.0596 3.66551 22.8906 3.3563 23.41C2.99556 23.9295 2.42868 24.2411 1.60412 24.3449L0.521881 24.5008V25.5396H13.8179V24.5008L12.4264 24.3969C11.6019 24.293 11.035 23.9295 10.6743 23.462C10.3136 22.9425 10.1074 22.1115 10.0559 20.9689C9.90125 18.8912 9.79815 16.5019 9.79815 13.8529L12.581 13.9049C14.0755 13.9569 15.1063 15.0995 15.6216 17.3849H16.6523V8.9186H15.6216C15.1063 11.1521 14.1271 12.2947 12.581 12.3466L9.79815 12.3986C9.79815 7.72396 9.90125 4.39976 10.0559 2.37408H14.1271C17.013 2.37408 18.9713 4.24393 20.1052 7.98367L21.342 7.62008L21.1359 0.660032ZM18.7137 16.6577C18.7137 19.3587 19.4867 21.5922 20.9813 23.3581C22.4757 25.1241 24.6918 25.9551 27.4746 25.9551C30.2575 25.9551 32.525 25.0721 34.1742 23.2542C35.8233 21.4882 36.5963 19.2548 36.5963 16.5539C36.5963 13.8529 35.8233 11.6195 34.3288 9.85351C32.8342 8.08755 30.6183 7.25649 27.8353 7.25649C25.0525 7.25649 22.7849 8.13949 21.1359 9.95743C19.4867 11.7234 18.7137 13.9569 18.7137 16.6577ZM30.206 10.7365C30.8244 12.2428 31.0821 14.2166 31.0821 16.6058C31.0821 22.1115 29.9483 24.8125 27.7323 24.8125C26.5985 24.8125 25.7225 24.0333 25.1041 22.4751C24.4857 20.9169 24.2279 18.9431 24.2279 16.6058C24.2279 11.1521 25.3617 8.45113 27.5777 8.45113C28.7114 8.39919 29.5876 9.17832 30.206 10.7365ZM73.753 23.3581C75.4536 25.0721 77.6181 25.9551 80.1948 25.9551C81.7924 25.9551 83.1839 25.6435 84.4207 24.9683C85.6575 24.345 86.6367 23.5658 87.3067 22.6309L86.7913 22.0076C85.6575 22.8906 84.3691 23.3062 82.8747 23.3062C80.8132 23.3062 79.2157 22.6309 78.1335 21.2285C76.9996 19.8261 76.4843 18.0602 76.5873 15.7748H87.6159C87.6159 13.2816 86.9975 11.2559 85.709 9.64578C84.4207 8.08754 82.617 7.30844 80.2979 7.30844C77.412 7.30844 75.1959 8.24337 73.5984 10.0613C72.0007 11.8792 71.2277 14.1127 71.2277 16.7616C71.2277 19.4626 72.0523 21.6441 73.753 23.3581ZM77.5666 10.321C78.1335 9.07441 78.8549 8.45113 79.8341 8.45113C81.3801 8.45113 82.1532 10.4249 82.1532 14.4243L76.6904 14.5282C76.742 12.9699 76.9996 11.5675 77.5666 10.321ZM101.478 8.24337C100.087 7.62008 98.3355 7.25649 96.222 7.25649C94.0577 7.25649 92.3569 7.82785 91.0688 8.9186C89.7799 10.0093 89.11 11.3598 89.11 12.9699C89.11 14.3724 89.5228 15.4631 90.2958 16.2423C91.0688 17.0214 92.3053 17.6965 93.9029 18.2679C95.3458 18.7873 96.3768 19.3068 96.8918 19.7742C97.4077 20.2936 97.7164 20.865 97.7164 21.6441C97.7164 22.3713 97.4593 23.0465 96.8918 23.5658C96.3768 24.1372 95.6553 24.3969 94.7275 24.3969C92.4601 24.3969 90.7593 22.7348 89.5744 19.4106L88.6981 19.6703L88.9042 24.8644C90.7593 25.5916 92.8212 25.9551 95.0887 25.9551C97.4593 25.9551 99.2624 25.4358 100.603 24.3449C101.943 23.3062 102.612 21.7999 102.612 19.93C102.612 18.6835 102.303 17.6446 101.633 16.8655C100.963 16.0864 99.8816 15.4111 98.3355 14.7879C96.6347 14.1646 95.449 13.5933 94.8307 13.0738C94.2125 12.5545 93.9029 11.9312 93.9029 11.1521C93.9029 10.373 94.1093 9.7496 94.5728 9.23023C95.0371 8.71083 95.6037 8.50307 96.3252 8.50307C98.3862 8.50307 99.8816 10.0093 100.808 12.9699L101.685 12.7103L101.478 8.24337ZM51.9021 7.7759C51.1807 7.41232 50.4077 7.25649 49.5316 7.25649C48.6555 7.25649 47.7793 7.62008 46.8002 8.34725C45.8211 9.07441 45.0996 10.0613 44.5327 11.4117L44.5842 7.25649L36.7509 8.81472V9.54187L37.5239 9.59378C38.5031 9.69769 39.07 10.4768 39.1731 11.8792C39.4823 15.0995 39.4823 18.5277 39.1731 22.1634C39.07 23.5658 38.5031 24.293 37.5239 24.4488L36.7509 24.5527V25.5396H47.6763V24.5527L46.2849 24.4488C45.3057 24.345 44.7388 23.5658 44.6358 22.1634C44.3266 19.1509 44.275 15.9306 44.5327 12.6064C44.8419 12.087 45.5119 11.7754 46.5425 11.6715C47.5732 11.5675 48.7586 11.8792 49.9954 12.6064L51.9021 7.7759Z" fill="#E9E9EA"/>
</g>
<defs>
<clipPath id="clip0_21_8002">
<rect width="103.188" height="26" fill="white" transform="translate(0.0062561)"/>
</clipPath>
</defs>
</svg>
