<svg width="40" height="40" viewBox="0 0 40 40" fill="none" xmlns="http://www.w3.org/2000/svg">
<path fill-rule="evenodd" clip-rule="evenodd" d="M26.6298 3.54547C26.288 3.5618 25.9968 3.31508 25.9794 2.99441C25.962 2.67374 26.225 2.40051 26.5667 2.38419L29.8005 2.21952C30.1423 2.20319 30.4335 2.44991 30.4509 2.77058C30.453 2.80854 30.4511 2.84584 30.4456 2.88206L30.4461 2.88213L29.9795 5.88911C29.9312 6.20723 29.6172 6.42844 29.2782 6.38319C28.9391 6.33795 28.7033 6.04329 28.7516 5.72517L28.9696 4.32015C25.0054 7.61494 20.8585 10.3266 16.6707 12.5662C12.1143 15.0029 7.51063 16.8793 3.0421 18.3393C2.71913 18.445 2.36603 18.2849 2.25343 17.9819C2.14083 17.6788 2.31144 17.3475 2.63441 17.2419C7.03647 15.8035 11.5714 13.9552 16.0591 11.5552C20.1646 9.35964 24.2318 6.70073 28.123 3.46941L26.6298 3.54547ZM19.0349 13.5675C18.6071 13.5675 18.2583 13.8948 18.2583 14.2961V20.7779C18.2583 20.7979 18.2855 20.806 18.298 20.7902C18.831 20.2259 19.4494 19.734 20.1341 19.3325C20.8079 18.9375 21.5458 18.6298 22.3297 18.4268C22.3394 18.4242 22.3458 18.416 22.3459 18.407C22.3459 17.0366 22.3459 15.6664 22.3459 14.296C22.3459 13.8947 21.9971 13.5674 21.5694 13.5674C20.7246 13.5675 19.8797 13.5675 19.0349 13.5675ZM26.543 9.98517C26.1152 9.98517 25.7664 10.3125 25.7664 10.7138V18.2075C25.7664 18.2182 25.7751 18.2271 25.7864 18.2281C26.5337 18.331 27.2489 18.5267 27.9183 18.8022C28.6045 19.0847 29.2428 19.4513 29.8182 19.888C29.8277 19.8952 29.8415 19.8939 29.8492 19.885C29.8525 19.8811 29.854 19.8765 29.854 19.872C29.854 16.8193 29.854 13.7665 29.854 10.7138C29.854 10.3125 29.5052 9.98517 29.0775 9.98517C28.2327 9.98517 27.3878 9.98517 26.543 9.98517ZM10.772 18.2988V27.9338C10.772 28.3351 11.1208 28.6624 11.5486 28.6624H14.039C14.4668 28.6624 14.8156 28.3351 14.8156 27.9338C14.8156 24.5344 14.8156 21.6981 14.8156 18.2988C14.8156 17.8974 14.4668 17.5701 14.039 17.5701C13.2088 17.5701 12.3787 17.5701 11.5486 17.5701C11.1208 17.5702 10.772 17.8976 10.772 18.2988ZM7.30733 27.9338V22.1124C7.30733 21.7111 6.9585 21.3838 6.53077 21.3838H4.04028C3.61256 21.3838 3.26373 21.7111 3.26373 22.1124V27.9338C3.26373 28.3351 3.61256 28.6624 4.04028 28.6624H6.53077C6.95842 28.6623 7.30733 28.335 7.30733 27.9338ZM30.4193 29.832L32.6479 31.8838L32.7357 31.7989C32.9845 31.5584 33.3979 31.5525 33.6542 31.786L37.5779 35.3584C37.8342 35.5919 37.8405 35.9797 37.5917 36.2202L36.1751 37.59C35.9263 37.8306 35.513 37.8364 35.2566 37.603L31.3329 34.0305C31.0765 33.7971 31.0704 33.4092 31.3191 33.1687L31.3927 33.0975L29.208 31.0858C27.9588 32.0906 26.3355 32.6977 24.5611 32.6977C20.615 32.6977 17.416 29.6962 17.416 25.9937C17.416 22.3107 20.5959 19.2896 24.5611 19.2896C28.5105 19.2896 31.7061 22.2948 31.7061 25.9937C31.706 27.4214 31.23 28.7447 30.4193 29.832ZM28.8316 28.6623C29.3748 27.8986 29.6915 26.9808 29.6915 25.9937C29.6915 23.3219 27.3804 21.1798 24.561 21.1798C21.7432 21.1798 19.4304 23.3202 19.4304 25.9937C19.4304 28.6422 21.7166 30.8076 24.561 30.8076C26.3425 30.8076 27.9118 29.9557 28.8316 28.6623Z" fill="url(#paint0_linear_21_7601)"/>
<defs>
<linearGradient id="paint0_linear_21_7601" x1="5.11707" y1="-8.83301" x2="41.0393" y2="-3.65436" gradientUnits="userSpaceOnUse">
<stop stop-color="#DEFB9D"/>
<stop offset="0.364794" stop-color="#71F79E"/>
<stop offset="0.7" stop-color="#38F9D7"/>
<stop offset="1" stop-color="#89C4FE"/>
</linearGradient>
</defs>
</svg>
