<svg width="32" height="32" viewBox="0 0 32 32" fill="none" xmlns="http://www.w3.org/2000/svg">
<g clip-path="url(#clip0_21_7611)">
<path d="M7.81331 11.0322L9.68831 14.2805C9.95369 14.739 10.5301 14.8743 10.9693 14.6238L12.3543 13.8235C12.6383 14.0195 12.9359 14.1924 13.2452 14.3408V15.9375C13.2452 16.4556 13.6646 16.875 14.1827 16.875H17.9327C18.4508 16.875 18.8702 16.4556 18.8702 15.9375V14.3408C19.1795 14.1924 19.4771 14.0195 19.7611 13.8235L21.1461 14.6238C21.5853 14.8743 22.1617 14.739 22.4271 14.2805L24.3021 11.0322C24.5611 10.5835 24.4073 10.0103 23.9586 9.75122L22.5955 8.96387C22.6282 8.59912 22.6285 8.27734 22.5955 7.91113L23.9586 7.12378C24.4073 6.8645 24.5611 6.2915 24.3021 5.84277L22.4271 2.59448C22.1678 2.14673 21.5941 1.99194 21.1461 2.25122L19.7611 3.05151C19.4771 2.85547 19.1795 2.68262 18.8702 2.53418V0.9375C18.8702 0.419434 18.4508 0 17.9327 0H14.1827C13.6646 0 13.2452 0.419434 13.2452 0.9375V2.53418C12.9359 2.68262 12.6383 2.85547 12.3543 3.05151L10.9693 2.25122C10.5194 1.99097 9.94661 2.14844 9.68831 2.59448L7.81331 5.84277C7.55427 6.2915 7.70808 6.86475 8.15681 7.12378L9.51985 7.91113C9.48713 8.27588 9.48689 8.59766 9.51985 8.96387L8.15681 9.75122C7.70808 10.0103 7.55427 10.5835 7.81331 11.0322ZM16.0577 5.625C17.6085 5.625 18.8702 6.88672 18.8702 8.4375C18.8702 9.98828 17.6085 11.25 16.0577 11.25C14.5069 11.25 13.2452 9.98828 13.2452 8.4375C13.2452 6.88672 14.5069 5.625 16.0577 5.625Z" fill="url(#paint0_linear_21_7611)"/>
<path d="M16.0625 9.375C16.5798 9.375 17 8.95483 17 8.4375C17 7.92017 16.5798 7.5 16.0625 7.5C15.5452 7.5 15.125 7.92017 15.125 8.4375C15.125 8.95483 15.5452 9.375 16.0625 9.375Z" fill="url(#paint1_linear_21_7611)"/>
<path d="M8.93921 18.2122C8.20703 17.48 7.01978 17.48 6.2876 18.2119C5.55542 18.9441 5.55518 20.1311 6.28735 20.8635L8.00171 22.5784C8.36792 22.9446 8.36792 23.5378 8.00171 23.9041C7.6355 24.2703 7.04224 24.2703 6.67603 23.9041L4.57398 21.801C4.04639 21.2732 3.75 20.5574 3.75 19.811V11.375C3.75 10.3394 2.91064 9.5 1.875 9.5C0.839356 9.5 0 10.3394 0 11.375V23.1074C0 23.3564 0.0986328 23.5952 0.274658 23.7712L5.625 29.1289V31.0625C5.625 31.5803 6.04321 32 6.56079 32C8.04639 32 10.9082 32 12.207 31.9998C12.6116 31.9998 12.9641 31.7231 13.0845 31.3372C14.9016 25.5078 14.9949 24.8738 14.9998 24.688C15.0054 24.4758 14.9077 24.1807 14.7576 24.0305L8.93921 18.2122Z" fill="url(#paint2_linear_21_7611)"/>
<path d="M30.125 9.5C29.0893 9.5 28.25 10.3394 28.25 11.375V19.811C28.25 20.5574 27.9536 21.2732 27.426 21.801L25.324 23.9041C24.9578 24.2703 24.3645 24.2703 23.9983 23.9041C23.6321 23.5378 23.6321 22.9443 23.9983 22.5784L25.7126 20.8635C26.4448 20.1311 26.4446 18.9438 25.7121 18.2119C24.98 17.4797 23.793 17.48 23.0608 18.2122L17.2424 24.0305C17.0923 24.1804 16.9946 24.4758 17.0002 24.688C17.0049 24.8735 17.0984 25.5076 18.9155 31.3369C19.0359 31.7229 19.3884 31.9995 19.793 31.9998C21.0918 32 23.9536 32 25.4392 32C25.9568 32 26.375 31.5803 26.375 31.0625V29.1289L31.7253 23.7712C31.9011 23.595 32 23.3562 32 23.1074V11.375C32 10.3394 31.1606 9.5 30.125 9.5Z" fill="url(#paint3_linear_21_7611)"/>
</g>
<defs>
<linearGradient id="paint0_linear_21_7611" x1="9.0521" y1="-5.24527" x2="25.9706" y2="-2.82571" gradientUnits="userSpaceOnUse">
<stop stop-color="#DEFB9D"/>
<stop offset="0.364794" stop-color="#71F79E"/>
<stop offset="0.7" stop-color="#38F9D7"/>
<stop offset="1" stop-color="#89C4FE"/>
</linearGradient>
<linearGradient id="paint1_linear_21_7611" x1="15.2778" y1="6.91719" x2="17.1722" y2="7.19029" gradientUnits="userSpaceOnUse">
<stop stop-color="#DEFB9D"/>
<stop offset="0.364794" stop-color="#71F79E"/>
<stop offset="0.7" stop-color="#38F9D7"/>
<stop offset="1" stop-color="#89C4FE"/>
</linearGradient>
<linearGradient id="paint2_linear_21_7611" x1="1.22273" y1="2.50631" x2="16.5508" y2="3.97946" gradientUnits="userSpaceOnUse">
<stop stop-color="#DEFB9D"/>
<stop offset="0.364794" stop-color="#71F79E"/>
<stop offset="0.7" stop-color="#38F9D7"/>
<stop offset="1" stop-color="#89C4FE"/>
</linearGradient>
<linearGradient id="paint3_linear_21_7611" x1="18.2227" y1="2.50631" x2="33.5508" y2="3.97946" gradientUnits="userSpaceOnUse">
<stop stop-color="#DEFB9D"/>
<stop offset="0.364794" stop-color="#71F79E"/>
<stop offset="0.7" stop-color="#38F9D7"/>
<stop offset="1" stop-color="#89C4FE"/>
</linearGradient>
<clipPath id="clip0_21_7611">
<rect width="32" height="32" fill="white"/>
</clipPath>
</defs>
</svg>
