<svg width="97" height="56" viewBox="0 0 97 56" fill="none" xmlns="http://www.w3.org/2000/svg">
<path fill-rule="evenodd" clip-rule="evenodd" d="M8.65296 0.487202C8.10307 1.18611 8.16002 1.95269 8.81012 2.60279C9.48037 3.27303 10.0985 3.29189 10.844 2.66454C11.5333 2.08471 11.6069 1.22087 11.0296 0.487202C10.7205 0.0941122 10.491 0 9.84128 0C9.19156 0 8.9621 0.0941122 8.65296 0.487202ZM15.9164 6.46989C14.9193 6.87223 14.6393 8.15152 15.3641 8.9941C16.2855 10.0652 18.0758 9.38219 18.0633 7.96459C18.0564 7.18156 17.7626 6.74151 17.0713 6.47858C16.4872 6.25652 16.4458 6.25615 15.9164 6.46989ZM8.46103 11.972C8.46473 12.0482 8.58658 12.3187 8.73191 12.5729C9.32302 13.6069 8.90978 15.0742 7.84459 15.7236C6.55068 16.5127 5.05432 15.8955 4.57174 14.3738C4.4192 13.8929 4.24946 13.4989 4.19455 13.4984C3.88411 13.4954 1.74412 15.9151 1.27485 16.7997C0.3439 18.5545 0.0861544 19.7593 0.162701 21.9969C0.22797 23.9025 0.261991 24.043 1.03227 25.5976C1.98615 27.5226 3.38286 29.0161 5.06227 29.907C5.68537 30.2374 6.24579 30.5079 6.30792 30.5079C6.5542 30.5079 6.38613 29.5006 5.61086 26.3309C5.16544 24.5097 4.61334 22.1748 4.38388 21.1423L3.96676 19.2651L4.38684 18.397C5.11127 16.9008 6.57306 16.3212 7.94 16.9883C8.9732 17.4925 9.59519 18.4135 9.60295 19.4496C9.6109 20.5388 8.77942 25.1361 8.09383 27.7932C7.4184 30.411 7.3964 30.8104 7.91892 30.9762C8.66701 31.2136 11.3696 31.1014 12.4576 30.7876C15.5344 29.9005 18.0932 27.3898 19.0329 24.3361C19.5556 22.6374 19.5851 20.142 19.1002 18.6745C18.0466 15.4867 15.5542 13.0694 12.35 12.1283C11.3375 11.831 8.44901 11.7148 8.46103 11.972ZM22.7576 13.496C21.213 14.1192 21.6293 16.4622 23.293 16.5094C24.8269 16.5528 25.5122 14.7762 24.3414 13.7912C23.7466 13.2907 23.418 13.2293 22.7576 13.496ZM29.1581 20.436C28.5278 21.107 28.5591 22.0979 29.2288 22.6738C30.7529 23.9848 32.7623 21.9008 31.3865 20.436C31.0724 20.1017 30.7553 19.9688 30.2723 19.9688C29.7894 19.9688 29.4723 20.1017 29.1581 20.436ZM72.4287 25.0496V27.9118L71.5817 27.3145C70.7946 26.7597 70.6283 26.7175 69.2243 26.7175C67.4639 26.7175 66.6412 27.0405 65.5572 28.1575C64.4436 29.3051 64.0355 30.5965 64.0261 33.004C64.0187 34.8644 64.0634 35.1366 64.5516 36.1957C65.462 38.1707 67.1795 39.3722 69.1006 39.3777C70.4758 39.382 71.2977 39.1265 72.0134 38.4727L72.6136 37.9246V38.5612V39.198H73.6305H74.6474V30.6928V22.1876H73.5381H72.4287V25.0496ZM38.4078 26.9984C37.9501 27.2117 37.3468 27.6052 37.0673 27.8724L36.5588 28.3583V27.5841V26.81H35.5419H34.5249V33.004V39.198H35.6343H36.7437L36.7448 35.8237C36.7459 32.0856 36.9358 30.4646 37.4541 29.7692C38.589 28.2464 41.3639 28.2364 42.131 29.7526C42.3043 30.095 42.3915 31.5019 42.4387 34.7143L42.5043 39.198H43.6104H44.7162L44.6591 34.252C44.6044 29.5355 44.5826 29.27 44.1861 28.5282C43.5618 27.3602 42.4209 26.7636 40.6482 26.6781C39.5075 26.6232 39.0817 26.6841 38.4078 26.9984ZM49.7896 26.9009C47.1545 27.8397 46.3596 30.5526 48.1847 32.3779C48.8644 33.0574 49.5651 33.3327 53.068 34.2959C54.2632 34.6244 54.8635 35.1061 54.8635 35.7362C54.8635 37.8383 50.4007 38.2109 49.4413 36.189C49.271 35.8301 49.1317 35.4337 49.1317 35.308C49.1317 35.1386 48.8585 35.1114 48.078 35.2031C47.4986 35.2714 46.9894 35.3622 46.9465 35.4049C46.9036 35.4478 46.9235 35.776 46.9908 36.1341C47.1587 37.029 48.1512 38.273 49.1404 38.8282C49.8802 39.2435 50.1707 39.2905 52.0026 39.2905C53.8155 39.2905 54.1411 39.2393 54.9412 38.8275C55.4362 38.5727 56.0996 38.045 56.4154 37.6547C56.949 36.9953 56.9898 36.8417 56.9898 35.4933C56.9898 34.0858 56.9701 34.0211 56.346 33.3771C55.6939 32.7045 55.6721 32.6958 51.0898 31.3024C49.7267 30.888 49.1342 30.2235 49.4699 29.4867C49.8913 28.5615 51.9274 28.1693 53.3097 28.7469C53.7823 28.9444 54.0489 29.2253 54.2745 29.7635C54.4706 30.2315 54.6773 30.4729 54.8325 30.4151C54.9678 30.3644 55.3422 30.3217 55.6645 30.3202C56.6853 30.3152 56.8229 30.1107 56.4544 29.1458C55.8313 27.5142 54.1452 26.6171 51.7329 26.6332C51.065 26.6376 50.1905 26.7582 49.7896 26.9009ZM80.749 26.9865C79.9873 27.2484 79.4932 27.5919 78.7801 28.3559C77.5022 29.7247 77.1474 30.7778 77.1524 33.1889C77.1556 34.8151 77.2179 35.1715 77.6688 36.1472C78.6715 38.3174 80.0616 39.2145 82.6239 39.3448C84.5512 39.443 85.7039 39.1198 86.8132 38.1702C87.4744 37.6042 88.6885 35.6123 88.4919 35.4158C88.4524 35.3762 87.9143 35.2865 87.2964 35.2166L86.1728 35.0894L85.9343 35.6654C85.6068 36.456 84.5901 37.3054 83.792 37.4552C81.697 37.8483 79.8698 36.5076 79.5143 34.3166L79.4063 33.6511H83.9869H88.5676L88.4684 32.2062C88.4072 31.3127 88.2111 30.3931 87.9546 29.797C87.4445 28.6109 86.07 27.3266 84.8752 26.9194C83.7273 26.5284 82.0008 26.5565 80.749 26.9865ZM22.3075 27.3504C21.2357 28.4223 21.8838 29.9532 23.4093 29.9532C23.9827 29.9532 24.2281 29.8463 24.527 29.466C25.1864 28.6279 25.0154 27.524 24.1574 27.0805C23.3816 26.6792 22.9099 26.748 22.3075 27.3504ZM29.3478 33.004V39.198H30.4572H31.5666V33.004V26.81H30.4572H29.3478V33.004ZM59.4859 33.004V39.198H60.5953H61.7047V33.004V26.81H60.5953H59.4859V33.004ZM70.4668 28.7309C71.8548 29.3109 72.6136 30.8366 72.6136 33.0482C72.6136 34.7648 72.297 35.7983 71.5216 36.6135C70.3643 37.8302 68.6686 37.8416 67.4679 36.6409C66.6161 35.7891 66.3267 34.8605 66.3282 32.9825C66.3293 31.2135 66.554 30.3363 67.2033 29.5647C68.0644 28.5413 69.2736 28.2324 70.4668 28.7309ZM84.3817 28.857C85.2594 29.2818 85.8908 30.1472 86.0531 31.1474L86.1595 31.8022H82.8996C79.7994 31.8022 79.6396 31.7846 79.6396 31.4444C79.6396 30.4737 80.5578 29.1929 81.5811 28.736C82.3924 28.374 83.481 28.421 84.3817 28.857ZM15.4954 33.9747C15.2778 34.1528 15.0502 34.6065 14.9899 34.9831C14.8945 35.5792 14.9561 35.7436 15.4664 36.2539C15.9767 36.7642 16.1411 36.8258 16.7372 36.7304C18.6542 36.4235 18.4876 33.6511 16.5523 33.6511C16.1888 33.6511 15.7132 33.7966 15.4954 33.9747ZM8.72359 40.5764C8.05537 41.2446 8.10344 42.1684 8.83859 42.787C9.46003 43.3099 9.92523 43.3817 10.5468 43.0507C12.0229 42.2645 11.5068 40.1225 9.84128 40.1225C9.38293 40.1225 9.0368 40.263 8.72359 40.5764ZM41.7771 42.8958C39.7913 43.3164 38.0324 44.8815 37.3653 46.8213C36.8716 48.2561 36.9255 50.7842 37.48 52.2182C37.9956 53.5519 39.0948 54.785 40.3418 55.4279C41.1058 55.8219 41.5967 55.9226 43.0662 55.9872C45.1421 56.0781 46.7638 55.688 48.2585 54.7378L49.1419 54.1763L49.0905 51.5408L49.0393 48.9051L46.2196 48.854L43.4 48.803V50.0096V51.2163H44.8897H46.3796L46.3226 51.9899C46.2694 52.7149 46.2076 52.7927 45.3432 53.2226C43.6549 54.0624 41.8134 53.7775 40.7482 52.5115C40.1212 51.7663 39.8892 50.8718 39.888 49.1946C39.8868 47.5106 40.3536 46.4099 41.3484 45.7517C42.1863 45.1972 43.5 44.9969 44.3845 45.2889C44.9886 45.4884 46.0307 46.443 46.2006 46.9528C46.2908 47.2234 48.9487 46.7945 48.9428 46.5099C48.9326 46.0259 48.1864 44.775 47.5359 44.1519C47.1424 43.7749 46.4493 43.3356 45.9954 43.1755C44.9721 42.8148 42.8301 42.6728 41.7771 42.8958ZM19.687 42.9965C19.6108 43.0768 19.5483 45.9991 19.5483 49.4906V55.8387L23.5698 55.8346C27.0838 55.8311 27.6847 55.7875 28.3309 55.4892C30.6393 54.4239 31.2153 51.2444 29.3798 49.6999C29.0646 49.4348 28.7002 49.1822 28.5698 49.1388C28.4141 49.0868 28.5371 48.8553 28.9281 48.4643C30.4376 46.9548 30.0307 44.553 28.0833 43.4778C27.3497 43.0729 27.0381 43.0363 23.5606 42.9466C21.5064 42.8937 19.7632 42.9161 19.687 42.9965ZM32.4295 43.0193C32.3617 43.0869 32.3062 45.9991 32.3062 49.4906V55.8387H33.6929H35.0796V49.3673V42.8959H33.8162C33.1212 42.8959 32.4972 42.9514 32.4295 43.0193ZM51.3505 49.354V55.867L54.9098 55.8065C58.8662 55.7396 59.2964 55.6266 60.5397 54.3296C61.5699 53.2546 61.9554 52.1154 62.0394 49.8983C62.1636 46.6192 61.2798 44.5963 59.2765 43.5753C58.2693 43.062 58.121 43.0411 54.7927 42.9427L51.3505 42.8408V49.354ZM65.6827 48.4891C64.4828 51.5652 63.3475 54.4773 63.1602 54.9604L62.8194 55.8387H64.2844H65.7491L66.2648 54.452L66.7805 53.0652H69.2854H71.7904L72.3061 54.452L72.8218 55.8387H74.2893C75.0964 55.8387 75.7572 55.7764 75.7577 55.7C75.7583 55.6237 74.6143 52.7134 73.2154 49.2327L70.6722 42.9041L69.2683 42.9L67.8645 42.8959L65.6827 48.4891ZM74.8323 44.0978V45.2996H76.6813H78.5303V50.5691V55.8387H79.917H81.3037V50.5691V45.2996H83.1527H85.0016V44.0978V42.8959H79.917H74.8323V44.0978ZM86.6748 48.7664C85.4169 51.9951 84.2737 54.9107 84.1343 55.2454L83.881 55.8539L85.3934 55.8L86.9059 55.7462L87.3848 54.4057L87.8636 53.0652H90.383H92.9026L93.4085 54.452L93.9142 55.8387H95.2821C96.5229 55.8387 96.6501 55.8047 96.6501 55.472C96.6501 55.2703 95.5527 52.3582 94.2115 49.0007L91.7729 42.8959H90.3675H88.9619L86.6748 48.7664ZM26.4777 45.5161C27.3597 45.9181 27.3023 47.3717 26.3864 47.8353C26.1127 47.9738 25.1993 48.0686 24.1245 48.0703L22.3218 48.073V46.6863V45.2996H24.1621C25.1746 45.2996 26.2161 45.397 26.4777 45.5161ZM57.9583 45.7896C58.9819 46.5526 59.2092 47.2225 59.2031 49.4598C59.194 52.8432 58.677 53.4434 55.6493 53.5844L53.9391 53.6641V49.4598V45.2554L55.6934 45.3321C57.0958 45.3935 57.5501 45.4852 57.9583 45.7896ZM70.1289 48.7392C70.4849 49.7223 70.7422 50.5606 70.7008 50.6021C70.6596 50.6435 69.9644 50.6529 69.156 50.6231L67.6863 50.5691L68.4377 48.4987C68.9378 47.1201 69.2379 46.5157 69.3356 46.6898C69.416 46.8337 69.773 47.7559 70.1289 48.7392ZM91.1506 48.4902C91.5325 49.5319 91.8445 50.4466 91.8439 50.5229C91.8434 50.5993 91.1772 50.6616 90.3636 50.6616C89.5501 50.6616 88.8837 50.5993 88.8828 50.5229C88.8793 50.2367 90.2324 46.5939 90.3418 46.595C90.4047 46.5955 90.7686 47.4485 91.1506 48.4902ZM26.8994 50.6766C27.4325 51.0094 27.7355 51.7778 27.5793 52.4004C27.358 53.2819 26.7255 53.5201 24.4102 53.5935L22.3218 53.6599V51.9499V50.2402L24.4087 50.3323C25.7 50.3892 26.6497 50.5205 26.8994 50.6766Z" fill="#E9E9EA"/>
<path fill-rule="evenodd" clip-rule="evenodd" d="M8.65296 0.487202C8.10307 1.18611 8.16002 1.95269 8.81012 2.60279C9.48037 3.27303 10.0985 3.29189 10.844 2.66454C11.5333 2.08471 11.6069 1.22087 11.0296 0.487202C10.7205 0.0941122 10.491 0 9.84128 0C9.19156 0 8.9621 0.0941122 8.65296 0.487202ZM15.9164 6.46989C14.9193 6.87223 14.6393 8.15152 15.3641 8.9941C16.2855 10.0652 18.0758 9.38219 18.0633 7.96459C18.0564 7.18156 17.7626 6.74151 17.0713 6.47858C16.4872 6.25652 16.4458 6.25615 15.9164 6.46989ZM8.46103 11.972C8.46473 12.0482 8.58658 12.3187 8.73191 12.5729C9.32302 13.6069 8.90978 15.0742 7.84459 15.7236C6.55068 16.5127 5.05432 15.8955 4.57174 14.3738C4.4192 13.8929 4.24946 13.4989 4.19455 13.4984C3.88411 13.4954 1.74412 15.9151 1.27485 16.7997C0.3439 18.5545 0.0861544 19.7593 0.162701 21.9969C0.22797 23.9025 0.261991 24.043 1.03227 25.5976C1.98615 27.5226 3.38286 29.0161 5.06227 29.907C5.68537 30.2374 6.24579 30.5079 6.30791 30.5079C6.5542 30.5079 6.38613 29.5006 5.61086 26.3309C5.16544 24.5097 4.61334 22.1748 4.38388 21.1423L3.96676 19.2651L4.38684 18.397C5.11127 16.9008 6.57306 16.3212 7.93999 16.9883C8.9732 17.4925 9.59519 18.4135 9.60295 19.4496C9.6109 20.5388 8.77942 25.1361 8.09383 27.7932C7.4184 30.411 7.3964 30.8104 7.91892 30.9762C8.66701 31.2136 11.3696 31.1014 12.4576 30.7876C15.5344 29.9005 18.0932 27.3898 19.0328 24.3361C19.5556 22.6374 19.5851 20.142 19.1002 18.6745C18.0466 15.4867 15.5542 13.0694 12.35 12.1283C11.3375 11.831 8.44901 11.7148 8.46103 11.972ZM22.7576 13.496C21.213 14.1192 21.6293 16.4622 23.293 16.5094C24.8269 16.5528 25.5122 14.7762 24.3414 13.7912C23.7466 13.2907 23.418 13.2293 22.7576 13.496ZM29.1581 20.436C28.5278 21.107 28.5591 22.0979 29.2288 22.6738C30.7529 23.9848 32.7623 21.9008 31.3865 20.436C31.0724 20.1017 30.7553 19.9688 30.2723 19.9688C29.7894 19.9688 29.4723 20.1017 29.1581 20.436ZM22.3075 27.3504C21.2357 28.4223 21.8838 29.9532 23.4093 29.9532C23.9827 29.9532 24.2281 29.8463 24.527 29.466C25.1864 28.6279 25.0154 27.524 24.1574 27.0805C23.3816 26.6792 22.9099 26.748 22.3075 27.3504ZM15.4954 33.9747C15.2778 34.1528 15.0502 34.6065 14.9899 34.9831C14.8945 35.5792 14.9561 35.7436 15.4664 36.2539C15.9767 36.7642 16.1411 36.8258 16.7372 36.7304C18.6542 36.4235 18.4876 33.6511 16.5523 33.6511C16.1888 33.6511 15.7132 33.7966 15.4954 33.9747ZM8.72359 40.5764C8.05537 41.2446 8.10344 42.1684 8.83859 42.787C9.46003 43.3099 9.92523 43.3817 10.5468 43.0507C12.0229 42.2645 11.5068 40.1225 9.84128 40.1225C9.38293 40.1225 9.0368 40.263 8.72359 40.5764Z" fill="#8A8F98"/>
</svg>
