<svg width="124" height="28" viewBox="0 0 124 28" fill="none" xmlns="http://www.w3.org/2000/svg">
<g clip-path="url(#clip0_21_7085)">
<path d="M0 0V20.7012H3.39952V14.9653L4.13854 14.2831L9.31457 20.7012H13.5156L6.74219 12.5094L13.041 6.21066H8.84273L3.39952 11.6794V0H0Z" fill="#8A8F98"/>
<path d="M20.3422 17.9538C22.7952 17.9538 24.6882 15.9641 24.6882 13.4571C24.6882 10.9501 22.7952 8.96613 20.3422 8.96613C17.8892 8.96613 15.9933 10.9558 15.9933 13.4571C15.9933 15.9584 17.8863 17.9538 20.3422 17.9538ZM27.9115 6.21468V20.7109H24.5404V18.6047C23.9761 19.3744 23.2364 19.9984 22.3827 20.425C21.529 20.8516 20.5859 21.0685 19.6316 21.0577C15.6522 21.0577 12.5625 17.7463 12.5625 13.4571C12.5625 9.16794 15.638 5.85938 19.6316 5.85938C21.6411 5.85938 23.4745 6.68652 24.5404 8.19583V6.20615L27.9115 6.21468Z" fill="#8A8F98"/>
<path d="M33.9933 20.7003H30.5625V6.20402H33.9933V8.12549C34.8773 6.76682 36.3866 5.85156 38.4274 5.85156C41.9463 5.85156 44.044 8.21644 44.044 11.9741V20.7003H40.6161V12.6307C40.6161 10.3824 39.4621 9.02085 37.3928 9.02085C35.3235 9.02085 33.9819 10.587 33.9819 13.0713L33.9933 20.7003Z" fill="#8A8F98"/>
<path d="M53.7981 8.93202C53.2376 8.93527 52.6833 9.05006 52.1676 9.26968C51.6519 9.4893 51.1851 9.80937 50.7943 10.2112C50.4036 10.6131 50.0967 11.0887 49.8917 11.6104C49.6866 12.132 49.5874 12.6893 49.5998 13.2496C49.5998 15.6742 51.4332 17.5957 53.7981 17.5957C56.163 17.5957 57.9878 15.6742 57.9878 13.2496C58.0002 12.689 57.9009 12.1315 57.6957 11.6097C57.4904 11.0879 57.1833 10.6121 56.7923 10.2102C56.4012 9.80832 55.9341 9.48831 55.418 9.26886C54.902 9.0494 54.3474 8.9349 53.7867 8.93202H53.7981ZM53.0903 20.5518C49.1564 20.5518 46.1406 17.4251 46.1406 13.2496C46.1406 9.07414 49.1564 5.85938 53.0903 5.85938C55.0999 5.85938 56.8736 6.74621 57.8485 8.16457V6.21183H61.2224V19.8127C61.2224 24.3066 58.38 27.3537 53.6503 27.3537C50.427 27.3537 47.8859 25.9324 46.6437 23.5391L49.3639 21.8337C49.7732 22.6125 50.3906 23.2624 51.1473 23.7111C51.9041 24.1597 52.7706 24.3895 53.6503 24.3748C56.2539 24.3748 57.8485 22.6694 57.8485 19.8525V18.2153C56.8736 19.6053 55.0715 20.5518 53.0903 20.5518Z" fill="#8A8F98"/>
<path d="M70.9799 17.9538C73.4329 17.9538 75.326 15.9641 75.326 13.4571C75.326 10.9501 73.4329 8.96613 70.9799 8.96613C68.5269 8.96613 66.6311 10.9558 66.6311 13.4571C66.6311 15.9584 68.5241 17.9538 70.9799 17.9538ZM78.5493 6.21468V20.7109H75.1782V18.6047C74.6138 19.3744 73.8741 19.9984 73.0204 20.425C72.1667 20.8516 71.2236 21.0685 70.2693 21.0577C66.29 21.0577 63.2031 17.7463 63.2031 13.4571C63.2031 9.16794 66.2786 5.85938 70.2693 5.85938C72.2789 5.85938 74.1123 6.68652 75.1782 8.19583V6.20615L78.5493 6.21468Z" fill="#8A8F98"/>
<path d="M84.6026 20.6987H81.2031V6.21094H84.5742L84.6026 20.6987Z" fill="#8A8F98"/>
<path d="M95.048 13.46C95.048 15.9442 96.941 17.9254 99.3656 17.9254C101.79 17.9254 103.683 15.9357 103.683 13.46C103.683 10.9842 101.79 8.99455 99.3656 8.99455C96.941 8.99455 95.048 10.9842 95.048 13.46ZM107.083 13.46C107.083 17.7236 103.803 21.0577 99.3656 21.0577C94.9286 21.0577 91.6484 17.7179 91.6484 13.46C91.6484 9.20205 94.9343 5.85938 99.3656 5.85938C103.797 5.85938 107.083 9.20205 107.083 13.46Z" fill="#8A8F98"/>
<path d="M111.965 13.46C111.965 15.9442 113.855 17.9254 116.28 17.9254C118.704 17.9254 120.597 15.9357 120.597 13.46C120.597 10.9842 118.704 8.99455 116.28 8.99455C113.855 8.99455 111.965 10.9842 111.965 13.46ZM124 13.46C124 17.7236 120.717 21.0577 116.28 21.0577C111.843 21.0577 108.562 17.7179 108.562 13.46C108.562 9.20205 111.845 5.85938 116.28 5.85938C120.714 5.85938 124 9.20205 124 13.46Z" fill="#8A8F98"/>
<path d="M91.1151 8.90626C91.1156 9.44157 90.9574 9.96502 90.6604 10.4104C90.3634 10.8558 89.941 11.203 89.4466 11.4083C88.9522 11.6135 88.408 11.6675 87.8829 11.5634C87.3578 11.4593 86.8754 11.2018 86.4967 10.8235C86.118 10.4452 85.86 9.96304 85.7553 9.43805C85.6507 8.91307 85.7041 8.36884 85.9088 7.87423C86.1136 7.37961 86.4604 6.95683 86.9055 6.65936C87.3505 6.3619 87.8738 6.20313 88.4091 6.20313C88.7643 6.20275 89.1161 6.2724 89.4444 6.40807C89.7727 6.54375 90.071 6.7428 90.3223 6.99385C90.5737 7.2449 90.773 7.54301 90.909 7.87116C91.0451 8.1993 91.1151 8.55104 91.1151 8.90626Z" fill="#8A8F98"/>
</g>
<defs>
<clipPath id="clip0_21_7085">
<rect width="124" height="27.3525" fill="white"/>
</clipPath>
</defs>
</svg>
