<svg width="64" height="26" viewBox="0 0 64 26" fill="none" xmlns="http://www.w3.org/2000/svg">
<g clip-path="url(#clip0_21_7061)">
<path d="M24.035 24.2589H19.5547V0H24.035V24.2589Z" fill="#8A8F98"/>
<path fill-rule="evenodd" clip-rule="evenodd" d="M32.7847 20.7675C32.5558 20.3695 32.4446 19.9146 32.4641 19.4559L32.4664 7.71094H27.9938V19.5213C27.9758 20.2961 28.1061 21.0673 28.3776 21.7934C28.6068 22.3877 28.9505 22.9312 29.3895 23.393C29.7949 23.8103 30.2837 24.1375 30.824 24.3535C31.3462 24.5633 31.9036 24.6718 32.4664 24.6734C33.2455 24.6685 34.0204 24.5607 34.7712 24.3527C35.7371 24.0672 36.6704 23.6808 37.5554 23.1999C37.4776 23.0723 37.3997 22.944 37.3219 22.8157C37.2441 22.6875 37.1662 22.5593 37.0884 22.4317C36.9361 22.1853 36.7593 21.955 36.5607 21.7443C36.3847 21.5549 36.186 21.3878 35.9691 21.247C35.7634 21.1207 35.5218 21.0659 35.2818 21.0913C35.0329 21.1053 34.7859 21.1426 34.5439 21.2026C34.3463 21.256 34.1422 21.2822 33.9375 21.2804C33.3833 21.2799 32.9991 21.1089 32.7847 20.7675ZM38.5447 22.5445C38.7533 23.1779 39.0912 23.761 39.5372 24.257H43.2819C42.9567 22.9368 42.7845 21.5837 42.769 20.2242V7.71094H38.2887V20.7379C38.2844 21.3494 38.3707 21.9582 38.5447 22.5445Z" fill="#8A8F98"/>
<path d="M56.0501 10.6568C55.7306 10.688 55.4087 10.6272 55.1223 10.4816C54.8662 10.3437 54.6384 10.1589 54.4506 9.93678C54.242 9.68977 54.0593 9.42192 53.9057 9.13738C53.7355 8.82915 53.5754 8.51416 53.4254 8.19243C54.0302 7.94167 54.6572 7.74882 55.2982 7.61643C55.8825 7.49397 56.4776 7.42982 57.0745 7.42495C58.0382 7.40955 58.9883 7.6528 59.826 8.12938C60.6346 8.59412 61.3386 9.2205 61.8942 9.96947C62.4675 10.7453 62.9098 11.6099 63.2034 12.5288C63.5092 13.4532 63.6667 14.4202 63.6705 15.394C63.6789 16.6414 63.4729 17.8809 63.0618 19.0586C62.6807 20.1585 62.0825 21.1708 61.3026 22.0351C60.5244 22.8853 59.5753 23.5613 58.5176 24.0192C57.3651 24.512 56.1219 24.7574 54.8686 24.7392C53.7153 24.7408 52.5658 24.6069 51.4437 24.3399C50.1845 24.0154 48.9702 23.5367 47.8281 22.9147V0H52.3061V21.1252C52.7473 21.2437 53.1966 21.329 53.6504 21.3805C54.0623 21.4233 54.4763 21.4443 54.8904 21.4435C55.4786 21.4522 56.0577 21.2972 56.5631 20.996C57.0776 20.6841 57.5133 20.258 57.8365 19.7506C58.2116 19.1613 58.4813 18.5112 58.6336 17.8295C58.8198 17.0328 58.9107 16.2168 58.9045 15.3987C58.9043 14.856 58.8582 14.3145 58.7667 13.7796C58.6798 13.2424 58.5181 12.72 58.2864 12.2275C58.0816 11.7835 57.7813 11.3902 57.4069 11.0755C57.0248 10.7676 56.5393 10.6177 56.0501 10.6568Z" fill="#8A8F98"/>
<path d="M4.48035 24.2589H0V0H4.48035V24.2589Z" fill="#8A8F98"/>
<path d="M9.69546 7.65625L14.7588 7.66248L6.77033 15.8487L4.44531 12.9531L9.69546 7.65625Z" fill="#D7D7D7"/>
<path d="M8.28996 9.08594C8.28996 9.08594 6.2078 11.4359 7.76845 15.0063C8.21601 15.8975 17.6538 25.105 17.6538 25.105H11.626L1.96875 15.4531L8.28996 9.08594Z" fill="#8A8F98"/>
</g>
<defs>
<clipPath id="clip0_21_7061">
<rect width="64" height="25.9459" fill="white"/>
</clipPath>
</defs>
</svg>
