<svg width="30" height="30" viewBox="0 0 30 30" fill="none" xmlns="http://www.w3.org/2000/svg">
<g clip-path="url(#clip0_21_8088)">
<path d="M25.5623 25.562H21.1171V18.6006C21.1171 16.9406 21.0874 14.8037 18.8051 14.8037C16.4899 14.8037 16.1357 16.6123 16.1357 18.4798V25.5616H11.6904V11.2461H15.9579V13.2025H16.0176C16.4447 12.4723 17.0618 11.8716 17.8032 11.4644C18.5447 11.0571 19.3827 10.8587 20.228 10.89C24.7334 10.89 25.5641 13.8535 25.5641 17.7088L25.5623 25.562ZM6.67477 9.2893C6.16457 9.28939 5.6658 9.13819 5.24153 8.85481C4.81727 8.57144 4.48656 8.16862 4.29123 7.69729C4.0959 7.22596 4.04472 6.7073 4.14417 6.20688C4.24361 5.70647 4.48921 5.24678 4.84991 4.88595C5.21061 4.52512 5.67021 4.27935 6.17059 4.17973C6.67097 4.0801 7.18965 4.1311 7.66105 4.32626C8.13245 4.52142 8.53539 4.85198 8.81892 5.27614C9.10244 5.70031 9.25383 6.19902 9.25392 6.70922C9.25398 7.04798 9.18731 7.38344 9.05773 7.69643C8.92815 8.00943 8.73819 8.29384 8.49869 8.53342C8.2592 8.773 7.97486 8.96307 7.66191 9.09276C7.34896 9.22245 7.01353 9.28924 6.67477 9.2893ZM8.89737 25.562H4.44753V11.2461H8.89737V25.562ZM27.7784 0.0020432H2.21381C1.63356 -0.00450486 1.07446 0.219578 0.659346 0.625052C0.244234 1.03053 0.00708156 1.58422 0 2.16445V27.8351C0.00683919 28.4156 0.24384 28.9697 0.658937 29.3756C1.07403 29.7815 1.63328 30.006 2.21381 29.9998H27.7784C28.3601 30.0071 28.9209 29.7832 29.3376 29.3774C29.7544 28.9715 29.993 28.4168 30.001 27.8351V2.1626C29.9927 1.58121 29.754 1.02689 29.3372 0.62143C28.9205 0.215967 28.3598 -0.00747679 27.7784 0.000191027" fill="#D7D7D7"/>
</g>
<defs>
<clipPath id="clip0_21_8088">
<rect width="30.001" height="30" rx="5" fill="white"/>
</clipPath>
</defs>
</svg>
