<svg width="31" height="42" viewBox="0 0 31 42" fill="none" xmlns="http://www.w3.org/2000/svg">
<path d="M27.4417 38.377C27.8728 37.9559 28.1152 37.3853 28.1162 36.7904V20.4477C28.1152 19.8528 27.8728 19.2822 27.4417 18.8611C27.0105 18.4399 26.4258 18.2026 25.8154 18.2016H5.18459C4.57425 18.2026 3.98946 18.4399 3.5583 18.8611C3.1272 19.2822 2.88482 19.8527 2.88378 20.4476C2.88378 20.4477 2.88378 20.4477 2.88378 20.4477M27.4417 38.377L2.825 20.4476L2.88378 20.4477M27.4417 38.377C27.0105 38.7982 26.4258 39.0355 25.8154 39.0365H5.18459C4.57425 39.0355 3.98946 38.7982 3.5583 38.377C3.1272 37.9559 2.88482 37.3854 2.88378 36.7905M27.4417 38.377L2.88378 36.7905M2.88378 20.4477V36.7904M2.88378 20.4477V36.7904M2.88378 36.7904L2.88378 36.7905M2.88378 36.7904L2.88378 36.7905M25.8156 16.1793H25.8155H24.3338V9.57143C24.3338 7.2821 23.4027 5.08683 21.7459 3.46846C20.0892 1.85014 17.8424 0.941215 15.5 0.941215C13.1576 0.941215 10.9108 1.85014 9.25406 3.46846C7.59726 5.08683 6.66622 7.2821 6.66622 9.57143V16.1793H5.1845H5.18445C4.02668 16.1803 2.91636 16.63 2.09729 17.4301C1.27817 18.2302 0.817263 19.3154 0.816215 20.4476V20.4476L0.816215 36.7905L0.816215 36.7905C0.817263 37.9227 1.27817 39.0079 2.09729 39.808C2.91636 40.6081 4.02668 41.0578 5.18445 41.0588H25.8155C26.9733 41.0578 28.0836 40.6081 28.9027 39.808C29.7218 39.0079 30.1827 37.9227 30.1838 36.7905V20.4476V20.4476C30.1827 19.3154 29.7218 18.2302 28.9027 17.4301C28.0836 16.63 26.9733 16.1803 25.8156 16.1793ZM8.73378 9.57143C8.73378 7.81936 9.44631 6.13877 10.7151 4.89944C11.9839 3.66006 13.705 2.96355 15.5 2.96355C17.295 2.96355 19.0161 3.66006 20.2849 4.89944C21.5537 6.13877 22.2662 7.81936 22.2662 9.57143V16.1793H8.73378V9.57143Z" fill="#FFBF00" stroke="#FFBF00" stroke-width="0.117569"/>
<path d="M20.6011 24.0948L20.6011 24.0948C20.6973 24.0008 20.8114 23.9264 20.9368 23.8756C21.0623 23.8249 21.1967 23.7987 21.3325 23.7987C21.4682 23.7987 21.6026 23.8249 21.7281 23.8756C21.8536 23.9264 21.9677 24.0008 22.0639 24.0948C22.16 24.1887 22.2364 24.3003 22.2885 24.4232C22.3406 24.5462 22.3675 24.678 22.3675 24.8111C22.3675 24.9443 22.3406 25.0761 22.2885 25.199C22.2364 25.3219 22.16 25.4335 22.0639 25.5275L14.2639 33.1464L20.6011 24.0948ZM20.6011 24.0948L13.5325 31.0013L10.3639 27.9043L10.3639 27.9043M20.6011 24.0948L10.3639 27.9043M10.3639 27.9043C10.1697 27.7146 9.90654 27.6083 9.63248 27.6083M10.3639 27.9043L9.63248 27.6083M9.63248 27.6083C9.35842 27.6083 9.09531 27.7146 8.9011 27.9043M9.63248 27.6083L8.9011 27.9043M8.9011 27.9043C8.70685 28.094 8.59747 28.3517 8.59747 28.6206M8.9011 27.9043L8.59747 28.6206M8.59747 28.6206C8.59747 28.8896 8.70685 29.1472 8.9011 29.337M8.59747 28.6206L8.9011 29.337M8.9011 29.337L12.8011 33.1464L8.9011 29.337ZM13.1367 33.366C13.0112 33.3151 12.8972 33.2406 12.8011 33.1465L13.1367 33.366ZM13.1367 33.366C13.2622 33.4169 13.3967 33.443 13.5325 33.443M13.1367 33.366L13.5325 33.443M13.5325 33.443C13.6683 33.443 13.8028 33.4169 13.9282 33.366M13.5325 33.443L13.9282 33.366M13.9282 33.366C14.0537 33.3151 14.1678 33.2406 14.2639 33.1465L13.9282 33.366Z" fill="#FFBF00" stroke="#FFBF00" stroke-width="0.117569"/>
</svg>
