<svg width="87" height="24" viewBox="0 0 87 24" fill="none" xmlns="http://www.w3.org/2000/svg">
<g clip-path="url(#clip0_21_7123)">
<path d="M80.8556 4.83984C79.3221 4.83984 77.9301 5.33868 76.8626 6.25708L76.5551 5.16853H73.8486V18.8538H77.2891V11.4179C77.2891 9.83518 78.3501 8.23143 80.3756 8.23143C81.9606 8.23143 82.9046 9.34798 82.9046 11.2151V18.8562H86.3451V10.9634C86.3451 7.24313 84.1916 4.83984 80.8556 4.83984ZM53.3571 12.0007C53.3571 14.1848 51.9326 15.7699 49.9676 15.7699C48.0026 15.7699 46.5783 14.1848 46.5783 12.0007C46.5783 9.81653 48.0026 8.23143 49.9676 8.23143C51.9301 8.23143 53.3571 9.81653 53.3571 12.0007ZM49.9653 4.83984C46.1075 4.83984 43.0842 7.98438 43.0842 11.9983C43.0842 16.0123 46.1052 19.1592 49.9653 19.1592C53.8231 19.1592 56.8466 16.0147 56.8466 11.9983C56.8466 7.98438 53.8256 4.83984 49.9653 4.83984ZM68.3921 12.0007C68.3921 14.1848 66.9651 15.7699 65.0026 15.7699C63.0401 15.7699 61.6131 14.1848 61.6131 12.0007C61.6131 9.81653 63.0401 8.23143 65.0026 8.23143C66.9676 8.23143 68.3921 9.81653 68.3921 12.0007ZM65.0026 4.83984C61.1446 4.83984 58.1216 7.98438 58.1216 11.9983C58.1216 16.0123 61.1426 19.1592 65.0026 19.1592C68.8606 19.1592 71.8836 16.0147 71.8836 11.9983C71.8836 7.98438 68.8626 4.83984 65.0026 4.83984ZM35.6319 4.83984C34.1005 4.83984 32.7066 5.33868 31.6367 6.25708L31.3289 5.16853H28.625V18.8538H32.0655V11.4179C32.0655 9.83518 33.1262 8.23143 35.1518 8.23143C36.7368 8.23143 37.6809 9.34798 37.6809 11.2151V18.8562H41.1215V10.9634C41.1215 7.24313 38.9676 4.83984 35.6319 4.83984Z" fill="#8A8F98"/>
<path d="M0 12.5688C0 19.0023 5.46855 24 11.8251 24C18.4802 24 23.8741 18.6317 23.8741 12.0746C23.8741 8.2401 22.0187 4.87413 19.2728 2.62471L17.268 6.0886C18.9254 7.49885 20.063 9.676 20.063 12.1258C20.063 16.5781 16.3776 20.2401 11.8251 20.2401C7.29835 20.2401 3.61072 16.5781 3.61072 12.0023C3.61072 11.4569 3.65968 10.9138 3.75991 10.394L0 12.5688ZM15.5361 0.594405C14.3986 0.172494 13.3846 0 12.3707 0C11.6038 0 10.9347 0.097902 10.4405 0.198135L7.86715 4.65035C8.80655 4.10722 10.0187 3.80886 11.331 3.80886C12.0979 3.80886 12.7902 3.90676 13.5082 4.1049L15.5361 0.594405Z" fill="#8A8F98"/>
</g>
<defs>
<clipPath id="clip0_21_7123">
<rect width="86.5" height="24" fill="white"/>
</clipPath>
</defs>
</svg>
