<svg width="77" height="22" viewBox="0 0 77 22" fill="none" xmlns="http://www.w3.org/2000/svg">
<g clip-path="url(#clip0_21_7128)">
<path d="M47.5407 6.12185C46.8595 6.5912 45.9641 6.59136 45.2829 6.12185C44.2177 5.38792 42.9125 4.95527 41.5069 4.95527C37.9276 4.95527 35.0156 7.75729 35.0156 11.2017V19.7191C35.0156 20.5682 35.6563 21.3135 36.504 21.3642C37.4243 21.4195 38.1879 20.6895 38.1879 19.7811V11.2017C38.1879 9.50659 39.6767 8.12737 41.5069 8.12737C43.3368 8.12737 44.8257 9.50659 44.8257 11.2017V19.7191C44.8257 20.5682 45.4664 21.3135 46.314 21.3642C47.2343 21.4195 47.9979 20.6895 47.9979 19.7811V11.2017C47.9979 9.50659 49.4868 8.12737 51.3167 8.12737C53.1467 8.12737 54.6357 9.50659 54.6357 11.2017V19.7191C54.6357 20.5682 55.2762 21.3135 56.1239 21.3642C57.0442 21.4195 57.8078 20.6895 57.8078 19.7811V11.2017C57.8078 7.75729 54.8959 4.95527 51.3167 4.95527C49.9111 4.95527 48.6059 5.38792 47.5407 6.12185Z" fill="#8A8F98"/>
<path d="M11.2354 0.995325C5.89398 0.995325 1.48928 5.08287 0.984375 10.2941V12.295C1.48928 17.5064 5.89398 21.5938 11.2354 21.5938C16.9147 21.5938 21.5346 16.9736 21.5346 11.2945C21.5346 5.61546 16.9147 0.995325 11.2354 0.995325ZM4.10831 11.2945C4.10831 7.36476 7.30564 4.16743 11.2354 4.16743C15.1654 4.16743 18.3625 7.36476 18.3625 11.2945C18.3625 15.2245 15.1654 18.4216 11.2354 18.4216C7.30564 18.4216 4.10831 15.2245 4.10831 11.2945Z" fill="#8A8F98"/>
<path d="M11.2367 4.16759C7.30677 4.16759 4.10976 7.36476 4.10976 11.2947C4.10976 15.2245 7.30677 18.4216 11.2367 18.4216C15.1667 18.4216 18.3638 15.2245 18.3638 11.2947C18.3638 7.36476 15.1667 4.16759 11.2367 4.16759ZM11.2367 21.5938C5.55763 21.5938 0.9375 16.9738 0.9375 11.2947C0.9375 5.61546 5.55763 0.995492 11.2367 0.995492C16.9158 0.995492 21.5359 5.61546 21.5359 11.2947C21.5359 16.9738 16.9158 21.5938 11.2367 21.5938Z" stroke="#8A8F98" stroke-width="0.0932743" stroke-miterlimit="10"/>
<path d="M59.5938 13.2131C59.5938 17.8342 63.3533 21.5938 67.9744 21.5938C72.5955 21.5938 76.3551 17.8342 76.3551 13.2131C76.3551 8.59179 72.5955 4.83222 67.9744 4.83222C63.3533 4.83222 59.5938 8.59179 59.5938 13.2131ZM62.7659 13.2131C62.7659 10.3411 65.1025 8.00449 67.9744 8.00449C70.8464 8.00449 73.183 10.3411 73.183 13.2131C73.183 16.0849 70.8464 18.4216 67.9744 18.4216C65.1025 18.4216 62.7659 16.0849 62.7659 13.2131Z" fill="#8A8F98"/>
<path d="M67.9822 8.00449C65.1103 8.00449 62.7737 10.3411 62.7737 13.2131C62.7737 16.085 65.1103 18.4216 67.9822 18.4216C70.8542 18.4216 73.1908 16.085 73.1908 13.2131C73.1908 10.3411 70.8542 8.00449 67.9822 8.00449ZM67.9822 21.5938C63.3611 21.5938 59.6016 17.8342 59.6016 13.2131C59.6016 8.59179 63.3611 4.83238 67.9822 4.83238C72.6034 4.83238 76.3629 8.59179 76.3629 13.2131C76.3629 17.8342 72.6034 21.5938 67.9822 21.5938Z" stroke="#8A8F98" stroke-width="0.0932743" stroke-miterlimit="10"/>
<path d="M23.1536 9.19614C23.1536 11.5019 24.8511 13.3274 27.4785 13.8466C29.5644 14.2589 30.0023 15.322 30.0023 16.1412C30.0023 17.2736 29.0808 18.1951 27.9485 18.1951H23.3205C22.4444 18.1951 21.7344 18.9051 21.7344 19.7811C21.7344 20.6572 22.4444 21.3672 23.3205 21.3672H27.9485C30.8301 21.3672 33.1744 19.0227 33.1744 16.1412C33.1744 13.3846 31.2751 11.3635 28.0935 10.7344C27.4333 10.604 26.3257 10.2308 26.3257 9.19614C26.3257 8.48056 26.9079 7.89817 27.6236 7.89817C27.7843 7.89817 27.9406 7.927 28.0881 7.98352C28.9059 8.29757 29.8235 7.88867 30.137 7.07087C30.4509 6.25274 30.0423 5.33549 29.2244 5.02177C28.7129 4.82568 28.1742 4.72607 27.6236 4.72607C25.1589 4.72607 23.1536 6.73143 23.1536 9.19614Z" fill="#8A8F98"/>
<path d="M27.9563 21.3672H23.3283C22.4522 21.3672 21.7422 20.6572 21.7422 19.7811C21.7422 18.9051 22.4522 18.1951 23.3283 18.1951H27.9563C29.0887 18.1951 30.0102 17.2736 30.0102 16.1412C30.0102 15.322 29.5723 14.2591 27.4861 13.8466C24.8589 13.3274 23.1614 11.5019 23.1614 9.19614C23.1614 6.73142 25.1666 4.72607 27.6315 4.72607C28.1821 4.72607 28.7207 4.82551 29.2322 5.02177C30.0501 5.33549 30.4587 6.2529 30.1448 7.07086C29.8313 7.88867 28.9137 8.29757 28.0959 7.98352C27.9484 7.927 27.7922 7.89833 27.6315 7.89833C26.9157 7.89833 26.3335 8.48056 26.3335 9.19614C26.3335 10.2308 27.4411 10.6042 28.1013 10.7344C31.2829 11.3635 33.1823 13.3848 33.1823 16.1412C33.1823 19.0227 30.838 21.3672 27.9563 21.3672Z" stroke="#8A8F98" stroke-width="0.0932743" stroke-miterlimit="10"/>
</g>
<defs>
<clipPath id="clip0_21_7128">
<rect width="77" height="22" fill="white"/>
</clipPath>
</defs>
</svg>
