<svg width="142" height="16" viewBox="0 0 142 16" fill="none" xmlns="http://www.w3.org/2000/svg">
<g clip-path="url(#clip0_21_7164)">
<path fill-rule="evenodd" clip-rule="evenodd" d="M1.23105 0.522373C0.296143 1.0114 0.347444 0.57858 0.345391 8.00504L0.34375 14.4128L0.534178 14.7952C0.996294 15.722 0.726657 15.692 8.29944 15.6629L14.4411 15.6391L14.815 15.4077C15.0613 15.2551 15.2505 15.0594 15.3695 14.8338L15.5505 14.4912L15.53 7.92299L15.5094 1.35479L15.3235 1.0832C15.2213 0.934272 15.0153 0.728324 14.8659 0.62617L14.5946 0.440323L8.02858 0.420632C2.18811 0.403401 1.43707 0.414475 1.23105 0.522373ZM74.1903 0.711504C71.5797 1.12299 70.2714 2.50104 70.2714 4.83786C70.2714 7.2075 71.4697 8.56135 74.5035 9.61858C76.3618 10.2664 76.7517 10.5076 76.7517 11.0077C76.7517 11.9201 74.556 12.1523 72.4223 11.466C71.0835 11.0352 71.1209 11.0126 70.5258 12.5979C69.9344 14.1728 69.9521 14.2336 71.1402 14.7177C73.3958 15.6366 77.0303 15.6924 78.761 14.8338C80.4519 13.9952 81.12 12.8826 81.1044 10.933C81.0855 8.62576 80.2118 7.65222 77.137 6.51171C75.2299 5.80443 74.668 5.45243 74.668 4.96463C74.668 4.14412 76.1886 3.97386 78.5254 4.53222C79.6577 4.80299 79.6347 4.81858 80.1941 3.3835C80.6805 2.13632 80.7002 1.95663 80.3805 1.6875C79.4944 0.942067 76.111 0.408324 74.1903 0.711504ZM19.8314 0.969964C19.6812 1.08073 19.5322 14.22 19.675 14.8042C19.7727 15.2055 19.8203 15.2149 21.805 15.2149C24.194 15.2149 23.9605 15.436 23.9605 13.1702V11.4344H24.8289C29.6709 11.434 31.4844 9.9833 31.4844 6.11089C31.4844 3.11519 30.4843 1.73222 27.8195 1.04422C27.0988 0.857964 20.0723 0.792733 19.8314 0.969964ZM33.4852 1.02699C33.3427 1.18412 33.3382 1.41181 33.3382 8.05468V14.9199L33.5204 15.0672C33.804 15.2969 42.4422 15.2969 42.7262 15.0676C42.9442 14.8912 43.0541 12.188 42.8625 11.7252C42.7184 11.3774 42.5641 11.3572 40.0492 11.3572H37.7021L37.6811 6.22042C37.6606 1.23704 37.6557 1.08032 37.5104 0.974067C37.2326 0.77099 33.6744 0.817759 33.4852 1.02699ZM48.4005 1.05119C48.2975 1.16237 48.0689 1.73058 47.8341 2.45919C47.6174 3.13078 46.9005 5.32976 46.2409 7.34535C43.5569 15.5484 43.7703 14.8034 44.0276 15.0606C44.1733 15.2063 44.2845 15.2149 46.0686 15.2149C48.3521 15.2149 48.2371 15.2649 48.5474 14.1347C48.6578 13.7314 48.7744 13.315 48.8064 13.2087L48.8638 13.0159L50.7821 12.9954C52.9753 12.9716 52.7692 12.8982 53.0216 13.7917C53.446 15.2924 53.3015 15.2149 55.6733 15.2149C58.0643 15.2149 58.0101 15.2649 57.4651 13.5665C54.9883 5.84299 53.423 1.19684 53.2441 1.03807C53.0512 0.86658 53.0225 0.864527 50.8112 0.864527H48.5737L48.4005 1.05119ZM55.8095 1.00566C55.5477 1.29448 55.6478 1.51602 57.9584 5.74863L60.2353 9.9193V12.3636C60.2353 14.7201 60.2411 14.8157 60.3954 15.0114L60.555 15.2149H62.4351H64.3147L64.4744 15.0114C64.6287 14.8157 64.6345 14.7201 64.6345 12.3624V9.91643L66.9114 5.74453C69.2462 1.46678 69.3401 1.25714 69.0471 0.992118C68.8702 0.832528 65.4035 0.798887 65.0637 0.953553C64.7543 1.09468 63.5157 3.6953 62.802 5.70391C62.4519 6.68853 62.4207 6.6873 62.0518 5.6674C61.7887 4.94042 60.8181 2.68237 60.2604 1.49961C59.9649 0.873554 59.93 0.864527 57.7811 0.864527C56.0927 0.864527 55.9265 0.876425 55.8095 1.00566ZM83.1884 0.923605C82.9332 1.09386 82.9262 1.28258 82.9262 8.06289C82.9262 14.7702 82.927 14.8096 83.0863 15.0114L83.2463 15.2149H85.1194C86.926 15.2149 86.9982 15.2091 87.1398 15.0524C87.2822 14.8953 87.2867 14.668 87.2867 8.0395C87.2867 1.4114 87.2822 1.18412 87.1398 1.02699C86.9884 0.859605 83.424 0.766477 83.1884 0.923605ZM89.8259 0.923605C89.5706 1.09386 89.5637 1.28258 89.5637 8.06289C89.5637 14.7702 89.5645 14.8096 89.7237 15.0114L89.8838 15.2149H91.6444C93.263 15.2149 93.4202 15.203 93.5877 15.0672L93.7699 14.9199L93.8085 11.4221L93.8471 7.92381L95.1944 10.1778C97.0737 13.3211 96.8373 13.3211 98.6993 10.1806C99.4228 8.96053 100.042 7.96237 100.076 7.96237C100.11 7.96237 100.137 9.52463 100.137 11.4344C100.137 14.8034 100.142 14.9109 100.292 15.0606C100.53 15.2986 103.912 15.2986 104.151 15.0606C104.303 14.9084 104.305 14.8034 104.305 8.0395C104.305 1.27602 104.303 1.17099 104.151 1.01879C104.005 0.873555 103.893 0.864527 102.232 0.864527H100.467L100.283 1.05119C100.182 1.15417 99.4043 2.43868 98.556 3.90617C97.7073 5.37366 96.9784 6.56258 96.9362 6.54863C96.8939 6.53468 96.1568 5.31048 95.2982 3.82863C94.4393 2.34679 93.6624 1.07376 93.5713 0.999502C93.3968 0.857143 90.0278 0.789041 89.8259 0.923605ZM106.702 1.01427C106.456 1.26084 106.451 14.8137 106.698 15.0606C106.843 15.2063 106.955 15.2149 108.699 15.2149H110.546L110.705 15.0114C110.856 14.8198 110.865 14.7111 110.865 13.1214V11.4344L111.695 11.4336C116.527 11.4299 118.39 9.9595 118.39 6.14945C118.39 3.23048 117.378 1.78473 114.84 1.08156C113.895 0.819811 106.954 0.762375 106.702 1.01427ZM120.467 0.923605C120.211 1.09386 120.204 1.28258 120.204 8.06289C120.204 14.7702 120.205 14.8096 120.364 15.0114L120.524 15.2149H124.987C130.436 15.2149 129.803 15.4331 129.84 13.5402C129.884 11.2038 130.087 11.3572 126.954 11.3572H124.603V6.31396C124.603 1.32894 124.602 1.26863 124.444 1.0676L124.283 0.864527L122.417 0.86576C121.391 0.86617 120.513 0.892426 120.467 0.923605ZM131.781 1.01879C131.629 1.17099 131.627 1.27602 131.627 8.0395C131.627 14.8034 131.629 14.9084 131.781 15.0606C131.985 15.2641 141.196 15.3068 141.472 15.1054C141.706 14.9343 141.745 12.0969 141.517 11.8147L141.365 11.6272L138.657 11.605L135.949 11.5829V10.6212V9.66002H138.346C141.468 9.66002 141.194 9.8274 141.196 7.91643C141.197 6.04319 141.505 6.23233 138.41 6.20402L135.949 6.18186V5.3392V4.49653L138.571 4.47437C141.874 4.44648 141.544 4.64914 141.544 2.64504C141.544 1.32196 141.531 1.17468 141.397 1.02699C141.172 0.777554 132.03 0.76976 131.781 1.01879ZM4.46709 2.6832C4.60047 2.81612 4.6489 4.81612 4.52372 5.01345C4.47611 5.08812 4.17118 5.10699 3.27076 5.09058L2.08017 5.06925L2.05883 3.92258C2.04406 3.14227 2.06581 2.74145 2.12614 2.66884C2.26321 2.5035 4.30005 2.51581 4.46709 2.6832ZM7.16755 2.60853C7.27179 2.64873 7.28985 2.83499 7.28985 3.8836V5.11191L6.07423 5.09058L4.85861 5.06925L4.83727 3.92258C4.8225 3.14227 4.84425 2.74145 4.90458 2.66884C4.99692 2.55766 6.90284 2.5072 7.16755 2.60853ZM13.7558 2.62658C13.8305 2.67417 13.8489 2.97899 13.8329 3.87909L13.8116 5.06925L12.596 5.09058L11.3804 5.11191V3.88196C11.3804 2.96996 11.4054 2.64176 11.4768 2.61304C11.6385 2.54781 13.6503 2.55971 13.7558 2.62658ZM26.2157 4.5712C26.867 4.75212 27.1477 5.21612 27.1477 6.11089C27.1477 7.43519 26.7065 7.76422 24.9253 7.76791L23.9991 7.76955L23.9785 6.13017L23.9576 4.49079L24.943 4.4912C25.4851 4.4912 26.0581 4.5273 26.2157 4.5712ZM113.412 4.68525C114.3 5.19807 114.254 7.0713 113.342 7.57017C113.031 7.74042 112.909 7.75725 111.952 7.76299L110.904 7.76955L110.883 6.12319L110.862 4.47642L112.002 4.50268C112.975 4.52525 113.182 4.55191 113.412 4.68525ZM51.5015 7.29817C51.8032 8.39643 52.0317 9.32525 52.0092 9.36176C51.9517 9.45448 49.6822 9.44668 49.6243 9.35355C49.5837 9.28791 50.684 5.41879 50.794 5.24074C50.881 5.10002 50.9647 5.34371 51.5015 7.29817ZM4.49581 5.43191C4.62509 5.56073 4.62509 7.66371 4.49581 7.79294C4.3415 7.94719 2.14871 7.92053 2.08838 7.7634C1.99727 7.52627 2.03667 5.52955 2.13434 5.43191C2.19755 5.36873 2.57143 5.3392 3.31508 5.3392C4.05873 5.3392 4.43261 5.36873 4.49581 5.43191ZM7.25127 6.61222V7.84668H6.05494H4.85861L4.83645 6.76648C4.80403 5.18822 4.67844 5.3314 6.07628 5.35643L7.25127 5.37776V6.61222ZM10.956 6.61222V7.84668H9.75966H8.56333L8.54199 6.69304C8.51367 5.18781 8.38111 5.3314 9.77731 5.35643L10.956 5.37776V6.61222ZM4.49581 8.20935C4.62509 8.33858 4.62509 10.4411 4.49581 10.5704C4.3415 10.7246 2.14871 10.698 2.08838 10.5408C2.02723 10.3817 2.02723 8.39766 2.08838 8.23889C2.14871 8.08176 4.3415 8.05468 4.49581 8.20935ZM13.8116 9.38966V10.6241H12.6153H11.4189L11.3976 9.47048C11.3697 7.96525 11.2371 8.10884 12.6329 8.13386L13.8116 8.1552V9.38966ZM4.54178 11.0163C4.63248 11.2535 4.59349 13.2502 4.49581 13.3478C4.43261 13.411 4.05873 13.4401 3.31508 13.4401C2.57143 13.4401 2.19755 13.411 2.13434 13.3478C2.03462 13.2481 1.99686 11.0422 2.09289 10.9458C2.2152 10.8239 4.49294 10.8896 4.54178 11.0163ZM10.956 12.1671V13.4016L9.91398 13.4241C8.38563 13.4565 8.52475 13.5812 8.52475 12.1786C8.52475 11.5287 8.54856 10.9732 8.57811 10.9437C8.60725 10.9146 9.15432 10.8998 9.79373 10.9117L10.956 10.933V12.1671Z" fill="#8A8F98"/>
<path fill-rule="evenodd" clip-rule="evenodd" d="M74.6091 0.605597C74.6834 0.625289 74.8048 0.625289 74.8791 0.605597C74.9534 0.586315 74.8927 0.570312 74.7441 0.570312C74.5955 0.570312 74.5348 0.586315 74.6091 0.605597ZM76.6927 0.605597C76.767 0.625289 76.8885 0.625289 76.9632 0.605597C77.0374 0.586315 76.9763 0.570312 76.8277 0.570312C76.6792 0.570312 76.6184 0.586315 76.6927 0.605597ZM21.625 0.764777C22.3572 0.777084 23.5556 0.777084 24.2877 0.764777C25.0199 0.752059 24.4207 0.741389 22.9564 0.741389C21.4916 0.741389 20.8929 0.752059 21.625 0.764777ZM34.7842 0.764364C35.1979 0.778312 35.8751 0.778312 36.2892 0.764364C36.7029 0.750415 36.3643 0.739339 35.5365 0.739339C34.7087 0.739339 34.3701 0.750415 34.7842 0.764364ZM49.9113 0.764364C50.41 0.777902 51.2263 0.777902 51.7249 0.764364C52.224 0.750825 51.8156 0.740159 50.8183 0.740159C49.8206 0.740159 49.4127 0.750825 49.9113 0.764364ZM56.9732 0.764364C57.4086 0.778312 58.1203 0.778312 58.5557 0.764364C58.9907 0.750825 58.6345 0.739339 57.7644 0.739339C56.8944 0.739339 56.5382 0.750825 56.9732 0.764364ZM66.316 0.764364C66.7535 0.778312 67.4483 0.778312 67.86 0.764364C68.2716 0.750415 67.9137 0.739339 67.0646 0.739339C66.2155 0.739339 65.879 0.750825 66.316 0.764364ZM84.4149 0.764364C84.831 0.778312 85.491 0.778312 85.8813 0.764364C86.2715 0.750415 85.9313 0.738929 85.1249 0.738929C84.318 0.738929 83.9987 0.750415 84.4149 0.764364ZM90.9711 0.764364C91.3425 0.778312 91.9503 0.778312 92.3217 0.764364C92.6932 0.750005 92.3895 0.738519 91.6466 0.738519C90.9038 0.738519 90.5997 0.750005 90.9711 0.764364ZM101.622 0.764364C101.993 0.778312 102.601 0.778312 102.973 0.764364C103.344 0.750005 103.04 0.738519 102.297 0.738519C101.555 0.738519 101.25 0.750005 101.622 0.764364ZM108.486 0.764364C109.194 0.777082 110.375 0.777495 111.11 0.764777C111.845 0.752059 111.266 0.741389 109.822 0.741389C108.379 0.741389 107.778 0.751646 108.486 0.764364ZM121.693 0.764364C122.109 0.778312 122.769 0.778312 123.159 0.764364C123.55 0.750415 123.209 0.738929 122.403 0.738929C121.596 0.738929 121.277 0.750415 121.693 0.764364ZM134.506 0.764777C135.687 0.776674 137.597 0.776674 138.751 0.764777C139.905 0.752469 138.938 0.743033 136.604 0.743033C134.269 0.743033 133.325 0.752879 134.506 0.764777ZM26.4112 0.838623C26.5068 0.857085 26.6459 0.856262 26.7198 0.83698C26.7937 0.817698 26.7149 0.802518 26.545 0.803338C26.3755 0.804159 26.3151 0.820162 26.4112 0.838623ZM113.316 0.838623C113.412 0.857085 113.551 0.856262 113.624 0.83698C113.698 0.817698 113.62 0.802518 113.45 0.803338C113.28 0.804159 113.22 0.820162 113.316 0.838623ZM33.2579 7.9976C33.2579 11.7318 33.2674 13.2706 33.2789 11.4175C33.2904 9.56437 33.2908 6.50919 33.2789 4.62816C33.2674 2.74714 33.2579 4.26344 33.2579 7.9976ZM87.3612 8.03616C87.3612 11.7916 87.3706 13.3281 87.3821 11.4503C87.3936 9.57257 87.3936 6.50016 87.3821 4.62242C87.3706 2.74467 87.3612 4.28108 87.3612 8.03616ZM124.64 6.2618L124.641 11.3153L126.956 11.317L129.272 11.3186L126.976 11.2965L124.68 11.2743L124.66 6.24129L124.639 1.20826L124.64 6.2618ZM141.613 2.63555C141.613 3.33585 141.625 3.62221 141.639 3.27226C141.654 2.92191 141.654 2.34919 141.639 1.99924C141.625 1.64888 141.613 1.93565 141.613 2.63555ZM104.418 8.03616C104.418 11.6645 104.427 13.1488 104.439 11.3346C104.45 9.52047 104.45 6.55226 104.439 4.73811C104.427 2.92396 104.418 4.40826 104.418 8.03616ZM106.425 8.03616C106.425 11.6218 106.434 13.0889 106.446 11.2961C106.457 9.50324 106.457 6.5695 106.446 4.77667C106.434 2.98385 106.425 4.45052 106.425 8.03616ZM30.285 2.26919C30.4746 2.47062 30.6392 2.63555 30.6519 2.63555C30.7097 2.63555 30.6486 2.56621 30.3075 2.24662L29.9411 1.90283L30.285 2.26919ZM117.193 2.28847C117.337 2.43698 117.472 2.55842 117.493 2.55842C117.515 2.55842 117.414 2.43698 117.27 2.28847C117.126 2.13996 116.991 2.01852 116.97 2.01852C116.948 2.01852 117.049 2.13996 117.193 2.28847ZM2.71933 2.69298C3.07186 2.70734 3.62755 2.70734 3.95423 2.69298C4.28133 2.67862 3.99322 2.66672 3.314 2.66672C2.63478 2.66713 2.3672 2.67862 2.71933 2.69298ZM5.45549 2.69298C5.78464 2.70734 6.32309 2.70734 6.65182 2.69298C6.98097 2.67862 6.71174 2.66672 6.05386 2.66672C5.39598 2.66672 5.12676 2.67862 5.45549 2.69298ZM11.4293 2.69339C11.4096 2.72539 11.7638 2.74221 12.2161 2.73114C13.6792 2.69503 13.8376 2.66467 12.638 2.6499C11.9932 2.64211 11.4495 2.6618 11.4293 2.69339ZM13.8027 3.87001C13.8027 4.48539 13.8146 4.73688 13.829 4.4296C13.8438 4.12191 13.8438 3.61852 13.829 3.31083C13.8146 3.00313 13.8027 3.25462 13.8027 3.87001ZM70.2083 4.25565C70.2083 4.40416 70.2243 4.46529 70.2436 4.39103C70.2629 4.31678 70.2629 4.19493 70.2436 4.12067C70.2243 4.04642 70.2083 4.10713 70.2083 4.25565ZM135.981 4.5896C135.959 4.6458 135.952 5.01913 135.964 5.41872L135.986 6.14611L138.379 6.14775L140.772 6.14939L138.393 6.12724L136.015 6.10508L136.039 5.29606C136.063 4.49032 136.056 4.39514 135.981 4.5896ZM79.1625 4.77175C79.2368 4.79144 79.3583 4.79144 79.4326 4.77175C79.5069 4.75247 79.4461 4.73647 79.2975 4.73647C79.149 4.73647 79.0882 4.75247 79.1625 4.77175ZM3.314 5.02734L2.15625 5.07206L3.2902 5.08847C3.98091 5.09831 4.44262 5.07452 4.47175 5.02734C4.49802 4.98509 4.50869 4.9576 4.49556 4.96621C4.48242 4.97524 3.95054 5.00273 3.314 5.02734ZM6.09244 5.02734L4.93469 5.07206L6.06864 5.08847C6.75935 5.09831 7.22105 5.07452 7.25019 5.02734C7.27646 4.98509 7.28713 4.9576 7.274 4.96621C7.26086 4.97524 6.72898 5.00273 6.09244 5.02734ZM11.447 5.04867C11.4798 5.0819 12.008 5.09913 12.6203 5.08724L13.7334 5.06549L12.56 5.02693C11.9144 5.00601 11.4137 5.01585 11.447 5.04867ZM26.8778 5.14303C26.9168 5.22796 26.9681 5.34939 26.9919 5.41298C27.0288 5.51308 27.0354 5.51268 27.0407 5.40847C27.044 5.34242 26.9927 5.22098 26.9266 5.13852C26.8088 4.99124 26.808 4.99124 26.8778 5.14303ZM70.21 5.37442C70.2108 5.54426 70.2264 5.60457 70.2448 5.50857C70.2633 5.41257 70.2629 5.2739 70.2436 5.20006C70.2243 5.12621 70.2091 5.20498 70.21 5.37442ZM118.447 5.45155C118.448 5.62139 118.464 5.6817 118.483 5.5857C118.501 5.4897 118.5 5.35103 118.481 5.27718C118.462 5.20334 118.446 5.28211 118.447 5.45155ZM8.55733 5.51308C8.5364 5.56847 8.52901 6.0977 8.54091 6.6897L8.56267 7.76621L8.60125 6.5896C8.63859 5.43185 8.63408 5.31411 8.55733 5.51308ZM10.9471 6.64744C10.9471 7.30508 10.959 7.57421 10.9734 7.2456C10.9882 6.91657 10.9882 6.37831 10.9734 6.0497C10.959 5.72067 10.9471 5.9898 10.9471 6.64744ZM113.973 6.10754C113.973 6.29831 113.987 6.37667 114.006 6.28109C114.024 6.1855 114.024 6.02919 114.006 5.93401C113.987 5.83842 113.973 5.91637 113.973 6.10754ZM118.446 6.8017C118.446 6.95021 118.462 7.01093 118.481 6.93667C118.501 6.86242 118.501 6.74098 118.481 6.66672C118.462 6.59247 118.446 6.65319 118.446 6.8017ZM71.3866 8.03616C71.5524 8.20601 71.7055 8.34508 71.7268 8.34508C71.7482 8.34508 71.6295 8.20601 71.4637 8.03616C71.2979 7.86673 71.1453 7.72765 71.1239 7.72765C71.1026 7.72765 71.2208 7.86673 71.3866 8.03616ZM93.8246 11.4503C93.8341 13.2854 93.8513 14.2663 93.8628 13.63C93.917 10.6864 93.9182 8.11329 93.8653 8.11329C93.8337 8.11329 93.8152 9.61483 93.8246 11.4503ZM13.7334 9.38632C13.7334 10.0362 13.7592 10.5514 13.7912 10.5318C13.8228 10.5121 13.8491 9.99678 13.8491 9.38632C13.8491 8.77627 13.8228 8.26057 13.7912 8.24129C13.7592 8.2216 13.7334 8.73688 13.7334 9.38632ZM117.151 9.98447L116.846 10.3123L117.174 10.0074C117.479 9.72355 117.537 9.65667 117.479 9.65667C117.466 9.65667 117.319 9.80396 117.151 9.98447ZM135.983 10.6401L135.986 11.5467L138.456 11.5484L140.926 11.55L138.478 11.5279L136.03 11.5061L136.004 10.6195L135.979 9.73339L135.983 10.6401ZM60.1916 12.4341C60.1916 13.813 60.2018 14.3771 60.215 13.6879C60.2277 12.9982 60.2277 11.8696 60.215 11.1804C60.2018 10.4907 60.1916 11.0548 60.1916 12.4341ZM64.6679 12.3955C64.6679 13.7531 64.6785 14.2979 64.6912 13.6058C64.704 12.9133 64.704 11.8023 64.6912 11.1369C64.6785 10.471 64.6679 11.0376 64.6679 12.3955ZM81.1694 10.4665C81.1702 10.6364 81.1862 10.6967 81.2047 10.6007C81.2232 10.5047 81.2223 10.366 81.203 10.2922C81.1838 10.2183 81.1686 10.2967 81.1694 10.4665ZM2.54203 10.9428C3.47283 10.9986 4.4931 11.0019 4.45985 10.949C4.44015 10.917 3.9136 10.8973 3.2902 10.9051C2.66638 10.9129 2.32985 10.9301 2.54203 10.9428ZM9.19879 10.9482C9.5066 10.9629 10.0102 10.9629 10.318 10.9482C10.6258 10.9334 10.3742 10.9215 9.75859 10.9215C9.14298 10.9215 8.89099 10.9334 9.19879 10.9482ZM10.9159 12.1412C10.895 12.8074 10.9044 13.3256 10.9377 13.2924C10.9705 13.2591 10.9877 12.7139 10.9758 12.0809L10.9541 10.9297L10.9159 12.1412ZM8.53804 12.14C8.52983 12.7635 8.54953 13.2899 8.58155 13.3096C8.61315 13.3293 8.63038 12.9929 8.61889 12.5617C8.58196 11.1434 8.55241 10.9892 8.53804 12.14ZM81.1694 11.4696C81.1702 11.6394 81.1862 11.6998 81.2047 11.6038C81.2232 11.5078 81.2223 11.3687 81.203 11.2952C81.1838 11.2214 81.1686 11.2998 81.1694 11.4696ZM38.9133 11.3342C39.5605 11.3473 40.6198 11.3473 41.2674 11.3342C41.9146 11.3215 41.3848 11.3108 40.0904 11.3108C38.7955 11.3108 38.2657 11.3215 38.9133 11.3342ZM74.3415 11.7966C74.5656 11.8122 74.9132 11.8122 75.1131 11.7962C75.3133 11.7802 75.1299 11.7674 74.7055 11.7679C74.2808 11.7679 74.117 11.781 74.3415 11.7966ZM42.978 13.3211C42.978 14.1276 42.9895 14.4468 43.0034 14.0308C43.0174 13.6148 43.0174 12.9551 43.0034 12.565C42.9895 12.1748 42.978 12.5149 42.978 13.3211ZM43.7947 14.7053C43.7947 14.8513 43.8214 14.9875 43.8542 15.0076C43.8866 15.0278 43.9006 14.9084 43.8845 14.7422C43.8493 14.3689 43.7947 14.3467 43.7947 14.7053ZM15.1176 15.2308L14.8911 15.4815L15.1419 15.255C15.3758 15.0438 15.4279 14.9802 15.3684 14.9802C15.3553 14.9802 15.2424 15.093 15.1176 15.2308ZM74.3 15.4963C74.3743 15.5155 74.4962 15.5155 74.5705 15.4963C74.6448 15.4766 74.584 15.461 74.4355 15.461C74.2869 15.461 74.2258 15.4766 74.3 15.4963Z" fill="#8A8F98"/>
<path fill-rule="evenodd" clip-rule="evenodd" d="M4.76163 0.380299C6.53704 0.392197 9.41972 0.392197 11.1676 0.380299C12.9155 0.368812 11.4627 0.359375 7.93939 0.359375C4.41648 0.359375 2.98622 0.368812 4.76163 0.380299ZM75.4551 0.610862C75.6578 0.626862 75.9705 0.626862 76.1499 0.610452C76.3288 0.594452 76.163 0.581324 75.7809 0.581324C75.3988 0.581734 75.2523 0.594862 75.4551 0.610862ZM21.5812 0.843478C22.4193 0.855785 23.7913 0.855785 24.6297 0.843478C25.4682 0.83076 24.782 0.820504 23.1055 0.820504C21.4286 0.820504 20.7428 0.83076 21.5812 0.843478ZM34.6633 0.843068C35.1406 0.856606 35.922 0.856606 36.3997 0.843068C36.877 0.829529 36.4863 0.818453 35.5313 0.818453C34.5763 0.818453 34.1856 0.829529 34.6633 0.843068ZM49.8335 0.843478C50.42 0.856196 51.3577 0.856196 51.9175 0.843068C52.4773 0.82994 51.9976 0.819273 50.8517 0.819273C49.7055 0.819273 49.2474 0.83035 49.8335 0.843478ZM56.9339 0.843068C57.435 0.856606 58.2341 0.856606 58.7089 0.843068C59.1842 0.829529 58.7742 0.818453 57.7978 0.818453C56.8215 0.818864 56.4328 0.82994 56.9339 0.843068ZM66.1955 0.843068C66.6966 0.856606 67.4957 0.856606 67.9705 0.843068C68.4458 0.829529 68.0358 0.818453 67.0594 0.818453C66.0831 0.818864 65.6944 0.82994 66.1955 0.843068ZM84.2127 0.843068C84.6904 0.856606 85.4718 0.856606 85.9491 0.843068C86.4268 0.829529 86.0361 0.818453 85.0811 0.818453C84.1257 0.818453 83.735 0.829529 84.2127 0.843068ZM90.8157 0.843068C91.2745 0.857017 92.0038 0.856606 92.4364 0.843068C92.8693 0.829529 92.4942 0.818043 91.6028 0.818043C90.711 0.818454 90.3573 0.829529 90.8157 0.843068ZM101.467 0.843068C101.925 0.857017 102.655 0.856606 103.087 0.843068C103.52 0.829529 103.145 0.818043 102.254 0.818043C101.362 0.818454 101.008 0.829529 101.467 0.843068ZM108.486 0.843478C109.324 0.855785 110.696 0.855785 111.535 0.843478C112.373 0.83076 111.687 0.820504 110.01 0.820504C108.333 0.820504 107.648 0.83076 108.486 0.843478ZM121.534 0.843068C122.035 0.856606 122.833 0.856606 123.309 0.843068C123.784 0.829529 123.374 0.818453 122.398 0.818453C121.421 0.818864 121.033 0.82994 121.534 0.843068ZM134.303 0.843478C135.544 0.855375 137.576 0.855375 138.817 0.843478C140.059 0.83158 139.043 0.821734 136.56 0.821734C134.077 0.821734 133.061 0.83158 134.303 0.843478ZM106.497 8.03774C106.497 11.7932 106.506 13.3296 106.518 11.4519C106.529 9.57415 106.529 6.50174 106.518 4.62399C106.506 2.74625 106.497 4.28266 106.497 8.03774ZM37.729 6.34051C37.729 9.11999 37.7385 10.2568 37.7504 8.86727C37.7623 7.47774 37.7623 5.20368 37.7504 3.81373C37.7385 2.4242 37.729 3.56102 37.729 6.34051ZM104.336 8.03774C104.336 11.751 104.345 13.2697 104.357 11.4133C104.368 9.55692 104.368 6.51897 104.357 4.66255C104.345 2.80614 104.336 4.32492 104.336 8.03774ZM82.8797 8.03774C82.8797 11.7083 82.8891 13.2098 82.9006 11.3748C82.9121 9.53927 82.9121 6.5362 82.9006 4.70112C82.8891 2.86563 82.8797 4.36717 82.8797 8.03774ZM131.58 8.03774C131.58 11.7083 131.59 13.2098 131.601 11.3748C131.613 9.53927 131.613 6.5362 131.601 4.70112C131.59 2.86563 131.58 4.36717 131.58 8.03774ZM19.592 8.03774C19.592 11.666 19.6015 13.1504 19.6129 11.3362C19.6244 9.52205 19.6244 6.55384 19.6129 4.73968C19.6015 2.92553 19.592 4.40984 19.592 8.03774ZM15.5787 8.03774C15.5787 11.5385 15.5881 12.9707 15.5996 11.2205C15.6111 9.46994 15.6111 6.60553 15.5996 4.85538C15.5881 3.10481 15.5787 4.53702 15.5787 8.03774ZM117.107 2.27076C117.427 2.61127 117.496 2.67281 117.496 2.61456C117.496 2.60225 117.332 2.43733 117.13 2.2482L116.764 1.9044L117.107 2.27076ZM2.71043 2.61743C3.01823 2.6322 3.5218 2.6322 3.8296 2.61743C4.13741 2.60266 3.88583 2.59076 3.27022 2.59076C2.65461 2.59076 2.40304 2.60266 2.71043 2.61743ZM5.48928 2.61743C5.79667 2.6322 6.30024 2.6322 6.60804 2.61743C6.91584 2.60266 6.66427 2.59076 6.04866 2.59076C5.43305 2.59076 5.18148 2.60266 5.48928 2.61743ZM12.0492 2.61743C12.357 2.6322 12.8606 2.6322 13.1684 2.61743C13.4762 2.60266 13.2246 2.59076 12.609 2.59076C11.9934 2.59076 11.7418 2.60266 12.0492 2.61743ZM2.0665 3.87158C2.0665 4.52922 2.078 4.79835 2.09277 4.46974C2.10713 4.14071 2.10713 3.60245 2.09277 3.27384C2.078 2.94481 2.0665 3.21394 2.0665 3.87158ZM4.84494 3.87158C4.84494 4.52922 4.85685 4.79835 4.87121 4.46974C4.88557 4.14071 4.88557 3.60245 4.87121 3.27384C4.85685 2.94481 4.84494 3.21394 4.84494 3.87158ZM4.53591 3.87158C4.53591 4.48697 4.54781 4.73845 4.56217 4.43117C4.57695 4.12348 4.57695 3.62009 4.56217 3.3124C4.54781 3.00471 4.53591 3.2562 4.53591 3.87158ZM76.0711 4.23548C76.1885 4.25353 76.3621 4.25271 76.4573 4.23466C76.5521 4.2162 76.456 4.20184 76.2439 4.20225C76.0317 4.20307 75.9541 4.21784 76.0711 4.23548ZM23.9907 6.1284L23.9928 7.76779L24.8419 7.7723L25.691 7.7764L24.8628 7.75015L24.0346 7.72389L24.0112 6.10625L23.9883 4.48861L23.9907 6.1284ZM2.7527 5.39486C3.08349 5.40963 3.6047 5.40922 3.91045 5.39486C4.2162 5.3801 3.94534 5.3682 3.3088 5.3682C2.67185 5.36861 2.42191 5.38051 2.7527 5.39486ZM5.45029 5.39486C5.77943 5.40922 6.31789 5.40922 6.64662 5.39486C6.97576 5.38051 6.70654 5.36861 6.04866 5.36861C5.39078 5.36861 5.12156 5.38051 5.45029 5.39486ZM8.56854 5.39527C8.54884 5.42727 8.90302 5.4441 9.35529 5.43302C10.8184 5.39692 10.9768 5.36656 9.77719 5.35179C9.13244 5.34399 8.58865 5.36368 8.56854 5.39527ZM31.5467 6.10912C31.5467 6.55466 31.5594 6.73681 31.575 6.51404C31.5906 6.29127 31.5906 5.92697 31.575 5.7042C31.5594 5.48143 31.5467 5.66358 31.5467 6.10912ZM2.06609 6.61045C2.06609 7.24717 2.07841 7.49702 2.09277 7.16635C2.10713 6.83569 2.10713 6.31466 2.09236 6.00902C2.078 5.70338 2.06609 5.97415 2.06609 6.61045ZM4.53591 6.61045C4.53591 7.24717 4.54781 7.49702 4.56258 7.16635C4.57695 6.83569 4.57695 6.31466 4.56217 6.00902C4.54781 5.70338 4.53591 5.97415 4.53591 6.61045ZM4.84905 6.6683L4.85233 7.84492L6.02937 7.8482L7.20641 7.85107L6.05071 7.82687L4.89501 7.80225L4.87039 6.64697L4.84617 5.49168L4.84905 6.6683ZM141.222 7.96061C141.222 8.66092 141.234 8.94728 141.248 8.59733C141.263 8.24697 141.263 7.67425 141.248 7.3243C141.234 6.97394 141.222 7.26071 141.222 7.96061ZM71.4167 7.97989C71.6063 8.18174 71.7713 8.34666 71.7836 8.34666C71.8414 8.34666 71.7803 8.27733 71.4392 7.95733L71.0728 7.61353L71.4167 7.97989ZM110.927 7.75138C110.961 7.78461 111.35 7.80184 111.792 7.78953L112.595 7.76697L111.731 7.72881C111.255 7.70789 110.894 7.71814 110.927 7.75138ZM8.58578 7.82769C8.61902 7.86092 9.16445 7.87815 9.79771 7.86625L10.9497 7.84451L9.73779 7.80635C9.07088 7.78502 8.55295 7.79486 8.58578 7.82769ZM2.67185 7.86379C3.00099 7.87815 3.53945 7.87815 3.86818 7.86379C4.19732 7.84943 3.9281 7.83753 3.27022 7.83753C2.61234 7.83753 2.34312 7.84943 2.67185 7.86379ZM100.035 10.1789C100.046 11.399 100.064 12.935 100.076 13.593C100.087 14.2507 100.104 13.2525 100.114 11.3748C100.123 9.49702 100.105 7.96061 100.073 7.96061C100.041 7.96061 100.024 8.95876 100.035 10.1789ZM2.67185 8.1723C3.00099 8.18666 3.53945 8.18666 3.86818 8.1723C4.19732 8.15794 3.9281 8.14604 3.27022 8.14604C2.61234 8.14604 2.34312 8.15794 2.67185 8.1723ZM11.7984 8.16697C12.7231 8.22276 13.8266 8.22604 13.7934 8.17271C13.7737 8.14112 13.2299 8.12143 12.5852 8.12922C11.9404 8.13702 11.5862 8.15425 11.7984 8.16697ZM2.06609 9.38789C2.06609 10.0246 2.07841 10.2745 2.09277 9.94379C2.10713 9.61312 2.10713 9.0921 2.09236 8.78645C2.078 8.48081 2.06609 8.75158 2.06609 9.38789ZM4.53591 9.38789C4.53591 10.0246 4.54781 10.2745 4.56258 9.94379C4.57695 9.61312 4.57695 9.0921 4.56217 8.78645C4.54781 8.48081 4.53591 8.75158 4.53591 9.38789ZM51.9709 9.25948C51.9709 9.32348 51.6294 9.35425 50.7938 9.36656L49.6168 9.38338L50.7684 9.40717C51.8367 9.42933 52.1798 9.37846 52.0234 9.22215C51.9943 9.19302 51.9709 9.20984 51.9709 9.25948ZM12.609 10.5838L11.4126 10.6285L12.5852 10.6449C13.3013 10.6548 13.7762 10.631 13.8053 10.5838C13.8316 10.5415 13.8422 10.514 13.8291 10.5231C13.816 10.5317 13.2669 10.5592 12.609 10.5838ZM2.67185 10.6412C3.00099 10.6556 3.53945 10.6556 3.86818 10.6412C4.19732 10.6269 3.9281 10.615 3.27022 10.615C2.61234 10.615 2.34312 10.6269 2.67185 10.6412ZM2.06938 10.9924C2.04804 11.0474 2.04065 11.5943 2.05255 12.2076L2.0743 13.3227L2.11288 12.1075C2.15023 10.9124 2.14571 10.793 2.06938 10.9924ZM4.53591 12.1653C4.53591 12.802 4.54781 13.0523 4.56258 12.7212C4.57695 12.3906 4.57695 11.8699 4.56217 11.5639C4.54781 11.2583 4.53591 11.529 4.53591 12.1653ZM26.1347 11.4084C26.209 11.4281 26.3304 11.4281 26.4047 11.4084C26.479 11.3891 26.4183 11.3731 26.2697 11.3731C26.1211 11.3731 26.0604 11.3891 26.1347 11.4084ZM113.002 11.41C113.098 11.4285 113.237 11.4277 113.31 11.4084C113.384 11.3891 113.306 11.3739 113.136 11.3748C112.966 11.3756 112.906 11.3916 113.002 11.41ZM23.9874 13.0913C23.9874 14.025 23.9985 14.3963 24.0121 13.9163C24.0256 13.4367 24.0256 12.6728 24.0121 12.2191C23.9985 11.7653 23.987 12.1579 23.9874 13.0913ZM74.5275 11.8736C74.6449 11.8913 74.8185 11.8909 74.9137 11.8728C75.0085 11.8544 74.9125 11.84 74.7003 11.8404C74.4881 11.8408 74.4102 11.856 74.5275 11.8736ZM9.79196 13.3612L8.63421 13.4064L9.76816 13.4224C10.4585 13.4322 10.9206 13.4084 10.9497 13.3612C10.976 13.319 10.9866 13.2915 10.9735 13.3005C10.9604 13.3091 10.4285 13.3366 9.79196 13.3612ZM2.7527 13.4187C3.08349 13.4334 3.6047 13.433 3.91045 13.4187C4.2162 13.4039 3.94534 13.392 3.3088 13.3924C2.67185 13.3924 2.42191 13.4043 2.7527 13.4187ZM57.7773 14.6728C57.7773 14.8213 57.7929 14.882 57.8126 14.8078C57.8319 14.7335 57.8319 14.6121 57.8126 14.5378C57.7929 14.4636 57.7773 14.5243 57.7773 14.6728ZM20.9595 15.2706C21.4134 15.2841 22.1776 15.2841 22.6573 15.2706C23.1371 15.257 22.7657 15.2459 21.832 15.2459C20.8979 15.2459 20.5056 15.257 20.9595 15.2706ZM35.9807 15.271C37.1828 15.2829 39.1277 15.2829 40.3027 15.271C41.4777 15.2587 40.4939 15.2492 38.1169 15.2492C35.7398 15.2492 34.7786 15.2591 35.9807 15.271ZM45.1594 15.2706C45.6371 15.2841 46.4185 15.2841 46.8962 15.2706C47.3735 15.257 46.9828 15.2459 46.0278 15.2459C45.0728 15.2459 44.6821 15.257 45.1594 15.2706ZM54.7727 15.2706C55.2742 15.2841 56.0729 15.2841 56.5481 15.2706C57.023 15.257 56.613 15.2459 55.6366 15.2459C54.6603 15.2464 54.2716 15.257 54.7727 15.2706ZM61.5559 15.2706C62.0102 15.2841 62.774 15.2841 63.2541 15.2706C63.7339 15.257 63.3625 15.2459 62.4288 15.2459C61.4947 15.2459 61.102 15.257 61.5559 15.2706ZM84.2472 15.2706C84.7011 15.2841 85.4652 15.2841 85.945 15.2706C86.4248 15.257 86.0533 15.2459 85.1197 15.2459C84.1856 15.2459 83.7928 15.257 84.2472 15.2706ZM90.8928 15.2706C91.3517 15.2841 92.081 15.2841 92.5135 15.2706C92.9465 15.2566 92.5714 15.2455 91.68 15.2455C90.7886 15.2459 90.4344 15.257 90.8928 15.2706ZM101.385 15.2706C101.842 15.2841 102.588 15.2841 103.045 15.2706C103.501 15.257 103.127 15.2459 102.215 15.2459C101.302 15.2459 100.929 15.257 101.385 15.2706ZM107.787 15.2706C108.241 15.2841 109.005 15.2841 109.485 15.2706C109.965 15.257 109.593 15.2459 108.659 15.2459C107.726 15.2459 107.333 15.257 107.787 15.2706ZM122.886 15.271C124.088 15.2829 126.033 15.2829 127.207 15.271C128.382 15.2587 127.399 15.2492 125.022 15.2492C122.645 15.2492 121.683 15.2591 122.886 15.271ZM134.38 15.271C135.621 15.2829 137.653 15.2829 138.895 15.271C140.136 15.2591 139.12 15.2492 136.637 15.2492C134.154 15.2492 133.138 15.2591 134.38 15.271ZM75.1846 15.5011C75.366 15.5175 75.6438 15.5171 75.8023 15.5007C75.9603 15.4839 75.8117 15.4708 75.4719 15.4708C75.1325 15.4712 75.0032 15.4847 75.1846 15.5011Z" fill="#8A8F98"/>
<path fill-rule="evenodd" clip-rule="evenodd" d="M89.5278 8.03802C89.5278 11.7086 89.5372 13.2101 89.5487 11.375C89.5602 9.53955 89.5602 6.53648 89.5487 4.7014C89.5372 2.86591 89.5278 4.36745 89.5278 8.03802ZM120.168 8.03802C120.168 11.7086 120.178 13.2101 120.189 11.375C120.201 9.53955 120.201 6.53648 120.189 4.7014C120.178 2.86591 120.168 4.36745 120.168 8.03802ZM70.217 4.79781C70.217 4.98858 70.2318 5.06694 70.2502 4.97135C70.2687 4.87576 70.2687 4.71945 70.2502 4.62427C70.2318 4.52868 70.217 4.60663 70.217 4.79781ZM110.902 6.1094C110.902 6.97914 110.914 7.33524 110.927 6.89996C110.941 6.46509 110.941 5.75329 110.927 5.31842C110.914 4.88355 110.902 5.23965 110.902 6.1094ZM137.169 9.71596C137.816 9.72909 138.875 9.72909 139.523 9.71596C140.17 9.70324 139.641 9.69258 138.346 9.69258C137.051 9.69258 136.522 9.70324 137.169 9.71596ZM81.1731 10.9701C81.1731 11.1186 81.1891 11.1793 81.2084 11.1051C81.2281 11.0308 81.2281 10.909 81.2084 10.8347C81.1891 10.7605 81.1731 10.8216 81.1731 10.9701ZM110.902 13.053C110.902 13.9227 110.914 14.2788 110.927 13.844C110.941 13.4091 110.941 12.6973 110.927 12.2624C110.914 11.8271 110.902 12.1832 110.902 13.053ZM49.8781 13.0337C50.3981 13.0468 51.2489 13.0468 51.7689 13.0337C52.2893 13.0202 51.8637 13.0091 50.8237 13.0091C49.7838 13.0091 49.3582 13.0202 49.8781 13.0337Z" fill="#8A8F98"/>
</g>
<defs>
<clipPath id="clip0_21_7164">
<rect width="142" height="16" fill="white"/>
</clipPath>
</defs>
</svg>
