<svg width="324" height="255" viewBox="0 0 324 255" fill="none" xmlns="http://www.w3.org/2000/svg">
<path d="M274.78 184.679C274.78 188.474 251.994 191.547 223.89 191.547C195.785 191.547 173 188.474 173 184.679C173 180.884 195.785 177.81 223.89 177.81C251.994 177.81 274.78 180.884 274.78 184.679Z" fill="#F0F0F0"/>
<path d="M274.78 184.613V211.132C274.78 214.926 251.994 218 223.89 218C195.785 218 173 214.926 173 211.132V184.613C173 188.408 195.785 191.481 223.89 191.481C251.994 191.481 274.78 188.408 274.78 184.613Z" fill="#8A8F98"/>
<path d="M274.78 152.867C274.78 156.661 251.994 159.734 223.89 159.734C195.785 159.734 173 156.661 173 152.867C173 149.072 195.785 145.998 223.89 145.998C251.994 145.998 274.78 149.072 274.78 152.867Z" fill="#F0F0F0"/>
<path d="M274.78 152.09V178.609C274.78 182.403 251.994 185.477 223.89 185.477C195.785 185.477 173 182.403 173 178.609V152.09C173 155.884 195.785 158.958 223.89 158.958C251.994 158.958 274.78 155.884 274.78 152.09Z" fill="#8A8F98"/>
<path d="M189.875 170.836C189.875 173.045 188.084 174.836 185.875 174.836C183.666 174.836 181.875 173.045 181.875 170.836C181.875 168.627 183.666 166.836 185.875 166.836C188.084 166.836 189.875 168.627 189.875 170.836Z" fill="#E6E6E6"/>
<path d="M189.875 203.914C189.875 206.123 188.084 207.914 185.875 207.914C183.666 207.914 181.875 206.123 181.875 203.914C181.875 201.705 183.666 199.914 185.875 199.914C188.084 199.914 189.875 201.705 189.875 203.914Z" fill="#E6E6E6"/>
<g filter="url(#filter0_d_21_7278)">
<g filter="url(#filter1_b_21_7278)">
<rect x="24" y="49" width="200" height="116" rx="4" fill="white"/>
</g>
<path d="M214 79C214 80.1046 213.105 81 212 81H36C34.8954 81 34 80.1046 34 79V61C34 59.8954 34.8954 59 36 59H212C213.105 59 214 59.8954 214 61V79Z" fill="#29B5E8"/>
<path d="M46.4268 71.5568H47.62L48.3267 72.473L48.831 73.0696L50.0419 74.625H48.7635L47.9396 73.581L47.5881 73.0838L46.4268 71.5568ZM50.2159 70.3636C50.2159 71.1473 50.0691 71.8184 49.7756 72.3771C49.4844 72.9335 49.0866 73.3596 48.5824 73.6555C48.0805 73.9515 47.5111 74.0994 46.8743 74.0994C46.2375 74.0994 45.6669 73.9515 45.1626 73.6555C44.6607 73.3572 44.263 72.9299 43.9695 72.3736C43.6783 71.8149 43.5327 71.1449 43.5327 70.3636C43.5327 69.58 43.6783 68.91 43.9695 68.3537C44.263 67.795 44.6607 67.3677 45.1626 67.0717C45.6669 66.7758 46.2375 66.6278 46.8743 66.6278C47.5111 66.6278 48.0805 66.7758 48.5824 67.0717C49.0866 67.3677 49.4844 67.795 49.7756 68.3537C50.0691 68.91 50.2159 69.58 50.2159 70.3636ZM48.8913 70.3636C48.8913 69.812 48.8049 69.3468 48.6321 68.968C48.4616 68.5869 48.2249 68.2992 47.9219 68.1051C47.6188 67.9086 47.2696 67.8104 46.8743 67.8104C46.4789 67.8104 46.1297 67.9086 45.8267 68.1051C45.5237 68.2992 45.2857 68.5869 45.1129 68.968C44.9425 69.3468 44.8572 69.812 44.8572 70.3636C44.8572 70.9152 44.9425 71.3816 45.1129 71.7628C45.2857 72.1416 45.5237 72.4292 45.8267 72.6257C46.1297 72.8198 46.4789 72.9169 46.8743 72.9169C47.2696 72.9169 47.6188 72.8198 47.9219 72.6257C48.2249 72.4292 48.4616 72.1416 48.6321 71.7628C48.8049 71.3816 48.8913 70.9152 48.8913 70.3636ZM54.891 71.706V68.5455H56.1765V74H54.93V73.0305H54.8732C54.7501 73.3359 54.5477 73.5857 54.266 73.7798C53.9866 73.974 53.6422 74.071 53.2326 74.071C52.8751 74.071 52.5591 73.9917 52.2844 73.8331C52.0122 73.6721 51.7991 73.4389 51.6452 73.1335C51.4914 72.8258 51.4144 72.4541 51.4144 72.0185V68.5455H52.6999V71.8196C52.6999 72.1652 52.7946 72.4399 52.984 72.6435C53.1734 72.8471 53.422 72.9489 53.7298 72.9489C53.9192 72.9489 54.1026 72.9027 54.2802 72.8104C54.4577 72.718 54.6033 72.5807 54.717 72.3984C54.833 72.2138 54.891 71.983 54.891 71.706ZM59.9132 74.1065C59.3663 74.1065 58.894 73.9929 58.4963 73.7656C58.1009 73.536 57.7967 73.2116 57.5836 72.7926C57.3706 72.3712 57.264 71.8752 57.264 71.3047C57.264 70.7436 57.3706 70.2512 57.5836 69.8274C57.7991 69.4013 58.0997 69.0698 58.4856 68.8331C58.8715 68.594 59.3249 68.4744 59.8457 68.4744C60.1819 68.4744 60.4991 68.5289 60.7974 68.6378C61.0981 68.7443 61.3632 68.91 61.5929 69.1349C61.8249 69.3598 62.0072 69.6463 62.1397 69.9943C62.2723 70.34 62.3386 70.7519 62.3386 71.2301V71.6243H57.8677V70.7578H61.1064C61.104 70.5116 61.0507 70.2926 60.9466 70.1009C60.8424 69.9067 60.6968 69.754 60.5098 69.6428C60.3251 69.5315 60.1097 69.4759 59.8635 69.4759C59.6007 69.4759 59.3699 69.5398 59.171 69.6676C58.9721 69.7931 58.8171 69.9588 58.7058 70.1648C58.5969 70.3684 58.5413 70.5921 58.5389 70.8359V71.5923C58.5389 71.9096 58.5969 72.1818 58.7129 72.4091C58.8289 72.634 58.9911 72.8068 59.1994 72.9276C59.4077 73.0459 59.6516 73.1051 59.9309 73.1051C60.118 73.1051 60.2872 73.0791 60.4387 73.027C60.5903 72.9725 60.7217 72.8932 60.8329 72.7891C60.9442 72.6849 61.0282 72.5559 61.085 72.402L62.2853 72.5369C62.2096 72.8542 62.0652 73.1312 61.8521 73.3679C61.6414 73.6023 61.3715 73.7846 61.0424 73.9148C60.7134 74.0426 60.3369 74.1065 59.9132 74.1065ZM63.4261 74V68.5455H64.6726V69.4545H64.7294C64.8288 69.1397 64.9993 68.897 65.2408 68.7266C65.4846 68.5537 65.7628 68.4673 66.0753 68.4673C66.1463 68.4673 66.2256 68.4709 66.3132 68.478C66.4032 68.4827 66.4777 68.491 66.5369 68.5028V69.6854C66.4825 69.6664 66.3961 69.6499 66.2777 69.6357C66.1617 69.6191 66.0492 69.6108 65.9403 69.6108C65.706 69.6108 65.4953 69.6617 65.3082 69.7635C65.1236 69.8629 64.978 70.0014 64.8714 70.179C64.7649 70.3565 64.7116 70.5613 64.7116 70.7933V74H63.4261ZM68.356 76.0455C68.1808 76.0455 68.0186 76.0313 67.8695 76.0028C67.7227 75.9768 67.6055 75.946 67.5179 75.9105L67.8162 74.9091C68.0033 74.9635 68.1702 74.9896 68.3169 74.9872C68.4637 74.9848 68.5927 74.9387 68.704 74.8487C68.8176 74.7611 68.9135 74.6143 68.9917 74.4084L69.1017 74.1136L67.1238 68.5455H68.4874L69.7445 72.6648H69.8013L71.062 68.5455H72.4292L70.2452 74.6605C70.1434 74.9493 70.0085 75.1967 69.8404 75.4027C69.6723 75.611 69.4663 75.7696 69.2225 75.8786C68.981 75.9898 68.6922 76.0455 68.356 76.0455Z" fill="white"/>
</g>
<path d="M130 95.5C130 96.8807 128.881 98 127.5 98H35.5C34.1193 98 33 96.8807 33 95.5C33 94.1193 34.1193 93 35.5 93H127.5C128.881 93 130 94.1193 130 95.5Z" fill="#A8A8A8"/>
<path d="M182 95.5C182 96.8807 180.881 98 179.5 98H137.5C136.119 98 135 96.8807 135 95.5C135 94.1193 136.119 93 137.5 93H179.5C180.881 93 182 94.1193 182 95.5Z" fill="#A6E5F9"/>
<path d="M214 95.5C214 96.8807 212.881 98 211.5 98H189.5C188.119 98 187 96.8807 187 95.5C187 94.1193 188.119 93 189.5 93H211.5C212.881 93 214 94.1193 214 95.5Z" fill="#E8E8E8"/>
<path d="M33 112.5C33 113.881 34.1193 115 35.5 115H88.5C89.8807 115 91 113.881 91 112.5C91 111.119 89.8807 110 88.5 110H35.5C34.1193 110 33 111.119 33 112.5Z" fill="#E8E8E8"/>
<path d="M96 112.5C96 111.119 97.1193 110 98.5 110H140.5C141.881 110 143 111.119 143 112.5C143 113.881 141.881 115 140.5 115H98.5C97.1193 115 96 113.881 96 112.5Z" fill="#A6E5F9"/>
<path d="M148 112.5C148 113.881 149.119 115 150.5 115H211.5C212.881 115 214 113.881 214 112.5C214 111.119 212.881 110 211.5 110H150.5C149.119 110 148 111.119 148 112.5Z" fill="#A8A8A8"/>
<path d="M68 129.5C68 130.881 66.8807 132 65.5 132H35.5C34.1193 132 33 130.881 33 129.5C33 128.119 34.1193 127 35.5 127H65.5C66.8807 127 68 128.119 68 129.5Z" fill="#A6E5F9"/>
<path d="M170 129.5C170 130.881 168.881 132 167.5 132H75.5C74.1193 132 73 130.881 73 129.5C73 128.119 74.1193 127 75.5 127H167.5C168.881 127 170 128.119 170 129.5Z" fill="#A8A8A8"/>
<path d="M213 129.5C213 130.881 211.881 132 210.5 132H177.5C176.119 132 175 130.881 175 129.5C175 128.119 176.119 127 177.5 127H210.5C211.881 127 213 128.119 213 129.5Z" fill="#E8E8E8"/>
<path d="M33 146.5C33 147.881 34.1193 149 35.5 149H88.5C89.8807 149 91 147.881 91 146.5C91 145.119 89.8807 144 88.5 144H35.5C34.1193 144 33 145.119 33 146.5Z" fill="#E8E8E8"/>
<path d="M96 146.5C96 145.119 97.1193 144 98.5 144H177.5C178.881 144 180 145.119 180 146.5C180 147.881 178.881 149 177.5 149H98.5C97.1193 149 96 147.881 96 146.5Z" fill="#A6E5F9"/>
<path d="M185 146.5C185 147.881 186.119 149 187.5 149H211.5C212.881 149 214 147.881 214 146.5C214 145.119 212.881 144 211.5 144H187.5C186.119 144 185 145.119 185 146.5Z" fill="#A8A8A8"/>
<defs>
<filter id="filter0_d_21_7278" x="0" y="33" width="248" height="164" filterUnits="userSpaceOnUse" color-interpolation-filters="sRGB">
<feFlood flood-opacity="0" result="BackgroundImageFix"/>
<feColorMatrix in="SourceAlpha" type="matrix" values="0 0 0 0 0 0 0 0 0 0 0 0 0 0 0 0 0 0 127 0" result="hardAlpha"/>
<feOffset dy="8"/>
<feGaussianBlur stdDeviation="12"/>
<feComposite in2="hardAlpha" operator="out"/>
<feColorMatrix type="matrix" values="0 0 0 0 1 0 0 0 0 1 0 0 0 0 1 0 0 0 0.1 0"/>
<feBlend mode="normal" in2="BackgroundImageFix" result="effect1_dropShadow_21_7278"/>
<feBlend mode="normal" in="SourceGraphic" in2="effect1_dropShadow_21_7278" result="shape"/>
</filter>
<filter id="filter1_b_21_7278" x="-29.1321" y="-4.13208" width="306.264" height="222.264" filterUnits="userSpaceOnUse" color-interpolation-filters="sRGB">
<feFlood flood-opacity="0" result="BackgroundImageFix"/>
<feGaussianBlur in="BackgroundImageFix" stdDeviation="26.566"/>
<feComposite in2="SourceAlpha" operator="in" result="effect1_backgroundBlur_21_7278"/>
<feBlend mode="normal" in="SourceGraphic" in2="effect1_backgroundBlur_21_7278" result="shape"/>
</filter>
</defs>
</svg>
