<svg width="77" height="32" viewBox="0 0 77 32" fill="none" xmlns="http://www.w3.org/2000/svg">
<path fill-rule="evenodd" clip-rule="evenodd" d="M0 16V32H38.2457H76.4914V16V0H38.2457H0V16ZM72.4501 16V27.9587H38.2457H4.04133V16V4.04133H38.2457H72.4501V16ZM7.97245 9.99311V11.977H10.3789H12.7853V18.0023V24.0276H14.8427H16.9001V18.0023V11.977H19.3249H21.7497V9.99311V8.00918H14.8611H7.97245V9.99311ZM23.4423 15.9731C21.999 20.3525 20.8109 23.9565 20.8022 23.9819C20.7896 24.0188 21.238 24.0262 23.0172 24.0187L25.248 24.0092L25.5869 22.8703L25.9258 21.7313H28.5858H31.2459L31.5307 22.6866C31.6872 23.2119 31.8408 23.7286 31.872 23.8347L31.9286 24.0276H34.1319C35.8506 24.0276 36.3353 24.0176 36.3353 23.9824C36.3353 23.9414 35.2467 20.6313 32.1606 11.2882L31.0776 8.00918L28.5721 8.00981L26.0666 8.01043L23.4423 15.9731ZM37.6211 16.0169V24.0276H39.6785H41.7359V21.6239V19.2203L43.5086 19.2044C45.1418 19.1897 45.3101 19.1824 45.6467 19.1104C47.8228 18.6452 49.4234 17.1661 49.9472 15.1366C50.093 14.5718 50.1285 14.2732 50.1285 13.6119C50.1285 12.9524 50.0933 12.6555 49.9479 12.0866C49.7126 11.1663 49.2426 10.3406 48.5694 9.66525C47.7902 8.88354 46.8195 8.36765 45.6467 8.11194C45.2872 8.03358 45.2189 8.03207 41.4512 8.01929L37.6211 8.00632V16.0169ZM52.1332 16.0169V24.0276H54.1906H56.248V21.6239V19.2203L58.0207 19.2044C59.9803 19.1868 60.0869 19.1761 60.8752 18.9168C62.832 18.2731 64.2201 16.6665 64.5695 14.6406C64.7339 13.6879 64.653 12.6035 64.3504 11.7021C64.1012 10.9597 63.6361 10.2157 63.0648 9.64567C62.2986 8.88119 61.3214 8.36541 60.1588 8.11194C59.7993 8.03358 59.7308 8.03207 55.9633 8.01929L52.1332 8.00632V16.0169ZM44.9411 12.0168C45.414 12.1761 45.7318 12.4896 45.9247 12.9874C46.0484 13.3065 46.0506 13.8772 45.9294 14.2293C45.7937 14.6237 45.5306 14.9367 45.1809 15.1197C44.8209 15.3081 44.6974 15.3203 43.1611 15.3203H41.7359V13.6303V11.9403H43.2251C44.6363 11.9403 44.726 11.9443 44.9411 12.0168ZM59.4516 12.0162C59.8388 12.1467 60.1698 12.4272 60.3408 12.7701C60.8619 13.8143 60.3322 15.053 59.268 15.279C59.143 15.3055 58.5674 15.3203 57.6607 15.3203H56.248V13.6303V11.9403H57.7371C59.1451 11.9403 59.2385 11.9444 59.4516 12.0162ZM29.3857 15.4909C29.8132 16.9284 30.163 18.1229 30.163 18.1453C30.163 18.1922 27.0039 18.2054 27.0027 18.1584C27.0007 18.0762 28.5651 12.8266 28.5848 12.8496C28.5977 12.8648 28.9581 14.0533 29.3857 15.4909ZM65.5063 19.6513C64.8359 19.8333 64.2679 20.2981 63.965 20.9127C63.7204 21.4089 63.6545 21.9071 63.7636 22.4353C63.9787 23.4766 64.8089 24.2107 65.9162 24.3386C66.1885 24.3701 66.6709 24.3021 66.9676 24.1904C68.0774 23.7727 68.7175 22.5543 68.4406 21.3865C68.2839 20.7257 67.7142 20.0544 67.0677 19.7689C66.6294 19.5752 65.9697 19.5255 65.5063 19.6513Z" fill="#8A8F98"/>
</svg>
