<svg width="38" height="38" viewBox="0 0 38 38" fill="none" xmlns="http://www.w3.org/2000/svg">
<path d="M12.125 29.625C12.8154 29.625 13.375 29.0654 13.375 28.375C13.375 27.6846 12.8154 27.125 12.125 27.125C11.4346 27.125 10.875 27.6846 10.875 28.375C10.875 29.0654 11.4346 29.625 12.125 29.625Z" fill="url(#paint0_linear_21_7584)"/>
<path d="M20.8425 25.2494C20.7044 23.3069 19.9331 21.5406 18.7294 20.1531L16.9856 21.8969L16.1019 21.0131L17.8456 19.2694C16.4581 18.0656 14.6913 17.2944 12.7494 17.1562V19.6244H11.4994V17.1562C9.55688 17.2944 7.79063 18.0656 6.40313 19.2694L8.14688 21.0131L7.26313 21.8969L5.51938 20.1531C4.31563 21.5406 3.54438 23.3075 3.40625 25.2494H5.87438V26.4994H3.40625C3.54438 28.4419 4.31563 30.2081 5.51938 31.5956L7.26313 29.8519L8.14688 30.7356L6.40313 32.4794C7.79063 33.6831 9.5575 34.4544 11.4994 34.5925V32.1244H12.7494V34.5925C14.6919 34.4544 16.4581 33.6831 17.8456 32.4794L16.1019 30.7356L16.9856 29.8519L18.7294 31.5956C19.9331 30.2081 20.7044 28.4413 20.8425 26.4994H18.3744V25.2494H20.8425ZM12.1244 30.8744C10.7456 30.8744 9.62438 29.7531 9.62438 28.3744C9.62438 27.66 9.92938 27.0188 10.4113 26.5631L10.82 22.0656C10.8819 21.3862 11.4425 20.8744 12.1244 20.8744C12.8063 20.8744 13.3669 21.3862 13.4281 22.065L13.8369 26.5625C14.3194 27.0188 14.6244 27.66 14.6244 28.3744C14.6244 29.7531 13.5031 30.8744 12.1244 30.8744Z" fill="url(#paint1_linear_21_7584)"/>
<path d="M25.875 8.375C30.0171 8.375 33.375 7.25571 33.375 5.875C33.375 4.49429 30.0171 3.375 25.875 3.375C21.7329 3.375 18.375 4.49429 18.375 5.875C18.375 7.25571 21.7329 8.375 25.875 8.375Z" fill="url(#paint2_linear_21_7584)"/>
<path d="M12.125 14.625C5.92188 14.625 0.875 19.6719 0.875 25.875C0.875 32.0781 5.92188 37.125 12.125 37.125C18.3281 37.125 23.375 32.0781 23.375 25.875C23.375 19.6719 18.3281 14.625 12.125 14.625ZM12.125 35.875C6.61125 35.875 2.125 31.3888 2.125 25.875C2.125 20.3613 6.61125 15.875 12.125 15.875C17.6388 15.875 22.125 20.3613 22.125 25.875C22.125 31.3888 17.6388 35.875 12.125 35.875Z" fill="url(#paint3_linear_21_7584)"/>
<path d="M12.5241 25.9159L12.1841 22.1797C12.1784 22.1172 12.0716 22.1172 12.0666 22.1797L11.7266 25.9159C11.8572 25.8947 11.9891 25.8753 12.1253 25.8753C12.2616 25.8753 12.3934 25.8947 12.5241 25.9159Z" fill="url(#paint4_linear_21_7584)"/>
<path d="M17.5381 7.07625C17.275 6.71188 17.125 6.3125 17.125 5.875C17.125 3.43938 21.6331 2.125 25.875 2.125C30.1169 2.125 34.625 3.43938 34.625 5.875C34.625 6.3125 34.475 6.71188 34.2119 7.07625C36.0519 6.3725 37.125 5.47625 37.125 4.625C37.125 2.85125 32.505 0.875 25.875 0.875C19.245 0.875 14.625 2.85125 14.625 4.625C14.625 5.47625 15.6981 6.3725 17.5381 7.07625Z" fill="url(#paint5_linear_21_7584)"/>
<path d="M14.625 11.8984V13.6253C17.5563 14.2228 20.1106 15.8541 21.9075 18.1147C23.1763 18.2847 24.5087 18.3734 25.875 18.3734C32.505 18.3734 37.125 16.3972 37.125 14.6234V11.8984C34.9606 13.6803 30.3175 14.6234 25.875 14.6234C21.4325 14.6234 16.7894 13.6803 14.625 11.8984Z" fill="url(#paint6_linear_21_7584)"/>
<path d="M22.8438 19.4791C23.5475 20.6541 24.0744 21.9466 24.3613 23.3297C24.8856 23.3559 25.3906 23.3734 25.8725 23.3734C32.5025 23.3734 37.1225 21.3972 37.1225 19.6234V16.8984C34.9581 18.6803 30.315 19.6234 25.8725 19.6234C24.8413 19.6234 23.8281 19.5728 22.8438 19.4791ZM34.595 19.1066L35.2975 20.1403C34.99 20.3491 34.5719 20.5659 34.0888 20.7659L33.61 19.6109C34.1231 19.3991 34.4288 19.2197 34.595 19.1066ZM32.49 20.0066L32.8537 21.2028C32.4619 21.3216 32.04 21.4328 31.6006 21.5316L31.3263 20.3122C31.735 20.2203 32.1269 20.1172 32.49 20.0066ZM30.1362 20.5434L30.3362 21.7778C29.9344 21.8428 29.5113 21.9016 29.0669 21.9509L28.9288 20.7084C29.3513 20.6609 29.7537 20.6053 30.1362 20.5434Z" fill="url(#paint7_linear_21_7584)"/>
<path d="M14.625 6.89844V9.62344C14.625 11.3972 19.245 13.3734 25.875 13.3734C32.505 13.3734 37.125 11.3972 37.125 9.62344V6.89844C34.9606 8.68031 30.3175 9.62344 25.875 9.62344C21.4325 9.62344 16.7894 8.68031 14.625 6.89844ZM34.5975 9.10906L35.3 10.1428C34.9925 10.3516 34.5744 10.5684 34.0912 10.7684L33.6125 9.61344C34.1256 9.40156 34.4313 9.22156 34.5975 9.10906ZM32.4925 10.0091L32.8562 11.2053C32.4644 11.3241 32.0425 11.4353 31.6031 11.5341L31.3288 10.3147C31.7375 10.2228 32.1294 10.1197 32.4925 10.0091ZM30.1387 10.5459L30.3387 11.7803C29.9369 11.8453 29.5138 11.9041 29.0694 11.9534L28.9312 10.7109C29.3537 10.6634 29.7562 10.6078 30.1387 10.5459Z" fill="url(#paint8_linear_21_7584)"/>
<defs>
<linearGradient id="paint0_linear_21_7584" x1="11.0788" y1="26.3479" x2="13.6046" y2="26.712" gradientUnits="userSpaceOnUse">
<stop stop-color="#DEFB9D"/>
<stop offset="0.364794" stop-color="#71F79E"/>
<stop offset="0.7" stop-color="#38F9D7"/>
<stop offset="1" stop-color="#89C4FE"/>
</linearGradient>
<linearGradient id="paint1_linear_21_7584" x1="4.82757" y1="11.7365" x2="22.4436" y2="14.2761" gradientUnits="userSpaceOnUse">
<stop stop-color="#DEFB9D"/>
<stop offset="0.364794" stop-color="#71F79E"/>
<stop offset="0.7" stop-color="#38F9D7"/>
<stop offset="1" stop-color="#89C4FE"/>
</linearGradient>
<linearGradient id="paint2_linear_21_7584" x1="19.5977" y1="1.82085" x2="32.6298" y2="7.45706" gradientUnits="userSpaceOnUse">
<stop stop-color="#DEFB9D"/>
<stop offset="0.364794" stop-color="#71F79E"/>
<stop offset="0.7" stop-color="#38F9D7"/>
<stop offset="1" stop-color="#89C4FE"/>
</linearGradient>
<linearGradient id="paint3_linear_21_7584" x1="2.70909" y1="7.63131" x2="25.4411" y2="10.9084" gradientUnits="userSpaceOnUse">
<stop stop-color="#DEFB9D"/>
<stop offset="0.364794" stop-color="#71F79E"/>
<stop offset="0.7" stop-color="#38F9D7"/>
<stop offset="1" stop-color="#89C4FE"/>
</linearGradient>
<linearGradient id="paint4_linear_21_7584" x1="11.7916" y1="20.9569" x2="12.6133" y2="20.9819" gradientUnits="userSpaceOnUse">
<stop stop-color="#DEFB9D"/>
<stop offset="0.364794" stop-color="#71F79E"/>
<stop offset="0.7" stop-color="#38F9D7"/>
<stop offset="1" stop-color="#89C4FE"/>
</linearGradient>
<linearGradient id="paint5_linear_21_7584" x1="16.4591" y1="-1.05254" x2="34.6787" y2="8.47752" gradientUnits="userSpaceOnUse">
<stop stop-color="#DEFB9D"/>
<stop offset="0.364794" stop-color="#71F79E"/>
<stop offset="0.7" stop-color="#38F9D7"/>
<stop offset="1" stop-color="#89C4FE"/>
</linearGradient>
<linearGradient id="paint6_linear_21_7584" x1="16.4591" y1="9.88581" x2="35.0085" y2="19.1782" gradientUnits="userSpaceOnUse">
<stop stop-color="#DEFB9D"/>
<stop offset="0.364794" stop-color="#71F79E"/>
<stop offset="0.7" stop-color="#38F9D7"/>
<stop offset="1" stop-color="#89C4FE"/>
</linearGradient>
<linearGradient id="paint7_linear_21_7584" x1="24.0077" y1="14.8858" x2="37.3818" y2="19.1376" gradientUnits="userSpaceOnUse">
<stop stop-color="#DEFB9D"/>
<stop offset="0.364794" stop-color="#71F79E"/>
<stop offset="0.7" stop-color="#38F9D7"/>
<stop offset="1" stop-color="#89C4FE"/>
</linearGradient>
<linearGradient id="paint8_linear_21_7584" x1="16.4591" y1="4.88581" x2="35.0085" y2="14.1782" gradientUnits="userSpaceOnUse">
<stop stop-color="#DEFB9D"/>
<stop offset="0.364794" stop-color="#71F79E"/>
<stop offset="0.7" stop-color="#38F9D7"/>
<stop offset="1" stop-color="#89C4FE"/>
</linearGradient>
</defs>
</svg>
