<svg width="113" height="20" viewBox="0 0 113 20" fill="none" xmlns="http://www.w3.org/2000/svg">
<path d="M15.5331 3.76471C11.0625 3.76471 8.94485 5.52941 8.94485 8.29412V15.0588C8.94485 17.8235 11.0625 19.6471 15.5919 19.6471C20.1801 19.6471 22.2978 17.8824 22.2978 15.0588V8.29412C22.2978 5.52941 20.1801 3.76471 15.6507 3.76471H15.5331ZM18.239 14.7059C18.239 15.8823 17.3566 16.3529 15.5919 16.3529C13.9449 16.3529 13.0037 15.7647 13.0037 14.5882V8.58824C13.0037 7.41177 13.886 6.94118 15.6507 6.94118C17.4154 6.94118 18.3566 7.52941 18.3566 8.58824V14.7647L18.239 14.7059ZM104.533 5.88235V3.94118H100.533V19.2353H104.651V9.47059C105.239 8.88235 106.768 7.82353 109.004 7.70588H109.768V3.76471H109.062C106.827 3.76471 105.357 5.11765 104.533 6.00001V5.88235ZM92.5331 3.70588C88.0625 3.70588 86.239 5.47059 86.239 8.17647V9H90.0037V8.29412C90.0037 7.29412 90.5919 6.82353 92.3566 6.82353C94.1213 6.82353 94.7095 7.41177 94.7095 8.58824V10.5294H90.4154C87.3566 10.5294 85.7095 12.2941 85.7095 14.4118V15.8235C85.7095 17.8824 87.1801 19.7059 90.239 19.7059C92.4743 19.7059 93.9448 18.7647 94.9448 17.9412V19.4706H98.7095V8.29412C98.7095 5.47059 97.0625 3.76471 92.5331 3.76471V3.70588ZM94.7095 15.0588C94.0037 15.6471 92.7095 16.4118 91.2978 16.4118C90.2978 16.4118 89.7095 16.0588 89.7095 15.2353V14.6471C89.7095 13.8824 90.0037 13.2941 91.1801 13.2941H94.7095V15.0588ZM4.18015 0.0588271H0.0625V14.7647C0.0625 17.8235 1.41544 19.3529 5.94485 19.3529H7.59191V15.9412H6.59191C4.82721 15.9412 4.12132 15.4706 4.12132 14.3529V7.70588H7.76838V3.88236H4.12132V0.0588271H4.18015ZM48.2978 7.70588V3.76471H47.4743C45.239 3.76471 43.7684 5.11765 42.9448 6.00001V4.05883H38.9448V19.3529H43.0625V9.47059C43.6507 8.88235 45.1801 7.82353 47.4154 7.70588H48.2978ZM33.1801 14.7647C32.5919 15.2353 31.2978 16.1176 29.7684 16.1176C28.4743 16.1176 28.1213 15.5294 28.1213 14.4706V4H24.0037V15.4706C24.0037 17.8235 25.7684 19.5882 28.5331 19.5882C31.0625 19.5882 32.5331 18.5882 33.3566 17.8235V19.3529H37.2978V4.05883H33.1801V14.7647ZM80.0625 5.35294C79.1801 4.64706 77.7095 3.76471 75.3566 3.76471C72.239 3.76471 70.8272 5.52941 70.8272 8.29412V15.1177C70.8272 17.8824 72.239 19.6471 75.2978 19.6471C77.7684 19.6471 79.4154 18.5882 80.1801 17.8824V19.4118H84.0625V0H79.9448V5.29412L80.0625 5.35294ZM80.0625 14.7647C79.4743 15.1765 78.0625 16.1176 76.5331 16.1176C75.0037 16.1176 74.886 15.2941 74.886 14.4706V8.88235C74.886 8.05883 75.0625 7.29412 76.5331 7.29412C78.0625 7.29412 79.4743 8.23529 80.0625 8.70588V14.7647Z" fill="#8A8F98"/>
<path d="M62.8231 3.76562C58.4113 3.76562 56.5878 5.53033 56.5878 8.23621V9.05974H60.3525V8.29503C60.3525 7.29503 60.9407 6.82445 62.7054 6.82445C64.4701 6.82445 65.0584 7.41268 65.0584 8.58915V10.5303H60.7642C57.6466 10.5303 56.0584 12.295 56.0584 14.4127V15.8244C56.0584 17.8833 57.4701 19.7068 60.5289 19.7068C62.7054 19.7068 64.176 18.7656 65.1172 17.9421V19.4715H68.9407V8.29503C68.9407 5.35386 67.176 3.76562 62.7054 3.76562H62.8231ZM65.0584 15.0597C64.3525 15.648 63.0584 16.4127 61.6466 16.4127C60.7054 16.4127 60.1172 16.1186 60.1172 15.2362V14.7656C60.1172 13.9421 60.4113 13.3539 61.5878 13.3539H65.1172V15.1186L65.0584 15.0597ZM50.2348 5.94209V9.4715H49.3525C47.9995 9.58915 46.8819 10.0597 46.1172 10.4127V19.2362H50.2348V9.4715C50.8231 8.88327 52.3525 7.82445 54.5878 7.7068H55.4113V3.76562H54.5878C52.4701 3.76562 51.0584 5.05974 50.176 5.88327L50.2348 5.94209Z" fill="#8A8F98"/>
</svg>
