<svg width="30" height="30" viewBox="0 0 30 30" fill="none" xmlns="http://www.w3.org/2000/svg">
<g clip-path="url(#clip0_21_8090)">
<path d="M9.43872 27.3759C20.7567 27.3759 26.9489 17.9968 26.9489 9.86574C26.9489 9.60207 26.943 9.33254 26.9313 9.06887C28.1359 8.19774 29.1754 7.11873 30.001 5.88254C28.8792 6.38167 27.6881 6.70764 26.4684 6.84934C27.7526 6.07955 28.7142 4.87026 29.1749 3.44562C27.9667 4.16161 26.6455 4.66668 25.2678 4.93918C24.3396 3.95287 23.1123 3.29981 21.7756 3.08098C20.439 2.86215 19.0675 3.08973 17.8732 3.72854C16.6789 4.36734 15.7283 5.3818 15.1683 6.61506C14.6084 7.84831 14.4703 9.23168 14.7754 10.5513C12.3291 10.4285 9.93594 9.79305 7.751 8.68604C5.56606 7.57903 3.63814 6.02521 2.09223 4.12531C1.30652 5.47997 1.06609 7.08297 1.41981 8.60853C1.77353 10.1341 2.69485 11.4677 3.99653 12.3384C3.01931 12.3074 2.06349 12.0443 1.20805 11.5708V11.647C1.20718 13.0686 1.69864 14.4466 2.59891 15.5469C3.49917 16.6471 4.75268 17.4016 6.14633 17.6821C5.24109 17.9298 4.291 17.9659 3.36958 17.7876C3.76284 19.0102 4.52799 20.0795 5.55824 20.8463C6.58848 21.6131 7.83242 22.0392 9.11645 22.065C6.93655 23.7773 4.24374 24.7061 1.47173 24.7017C0.980131 24.7009 0.489021 24.6708 0.00102234 24.6114C2.81709 26.4181 6.09294 27.3776 9.43872 27.3759Z" fill="#D7D7D7"/>
</g>
<defs>
<clipPath id="clip0_21_8090">
<rect width="30" height="30" fill="white" transform="translate(0.00102234)"/>
</clipPath>
</defs>
</svg>
