<svg width="109" height="48" viewBox="0 0 109 48" fill="none" xmlns="http://www.w3.org/2000/svg">
<path fill-rule="evenodd" clip-rule="evenodd" d="M25.438 14.2816C19.7157 15.5142 13.8963 19.8812 11.8416 24.4841C10.191 28.1818 11.0045 31.4928 13.9641 33.1265C16.0492 34.2773 19.9675 34.2927 23.2117 33.1625C29.6035 30.9355 34.8685 25.4842 35.4121 20.5299C35.908 16.0115 31.1742 13.0461 25.438 14.2816ZM24.9372 21.3515C27.9794 22.6277 28.7363 23.086 28.9038 23.7535C29.209 24.9694 28.5859 25.5003 24.5067 27.5026C20.7296 29.3562 19.7281 29.5073 19.0921 28.3191C18.6242 27.4447 18.9838 26.7614 20.3309 25.9668C22.0194 24.9704 21.9424 23.7819 20.1292 22.8568C18.7002 22.128 18.3115 21.044 19.1701 20.1853C19.873 19.4825 21.0488 19.7202 24.9372 21.3515Z" fill="#D7D7D7"/>
<path fill-rule="evenodd" clip-rule="evenodd" d="M67.2513 18.5995C66.9554 18.8958 66.7132 19.1944 66.7132 19.2633C66.7132 19.4739 64.3092 29.8361 64.1119 30.4772C63.8448 31.3434 65.846 31.2972 66.5975 30.4197C67.1506 29.7734 67.1753 29.7744 68.1254 30.4769C69.4142 31.4301 71.8796 31.4427 73.1482 30.5029C75.4536 28.7952 76.3866 25.3749 75.0878 23.3929C73.9911 21.7187 70.9189 21.3776 69.3584 22.7561C68.6727 23.3624 68.6669 23.3548 68.9094 22.1715C69.5321 19.1328 69.5519 18.6766 69.0755 18.3748C68.3734 17.9303 67.8572 17.994 67.2513 18.5995ZM39.1625 22.3708C38.6686 22.8647 38.6813 22.9627 39.3036 23.484C39.8061 23.9046 40.1212 24.9067 40.499 27.2854C40.7812 29.0617 41.1497 30.6529 41.3176 30.8208C41.4857 30.9889 42.1344 31.0766 42.7588 31.016C43.7593 30.9184 44.1912 30.4974 46.3842 27.4803C47.7536 25.5965 48.8807 23.7138 48.8886 23.2966C48.9006 22.6681 48.0577 21.829 47.4148 21.829C47.3251 21.829 46.3719 23.2233 45.2964 24.9276C44.221 26.6319 43.2691 27.9543 43.1811 27.8663C43.0928 27.7783 42.8903 26.6556 42.7314 25.3719C42.5129 23.611 42.2584 22.8887 41.6957 22.4332C40.7709 21.6844 39.8712 21.6622 39.1625 22.3708ZM49.5637 30.3464C49.0558 29.3973 50.7926 22.2691 51.5824 22.0602C51.8982 21.9766 52.2428 21.8906 52.3483 21.8687C52.4534 21.8468 52.7993 22.0218 53.1168 22.2571C53.6566 22.6572 53.6498 22.8753 53.012 25.5965L52.1883 29.1134C52.1102 29.4463 52.2757 29.9477 52.5558 30.2279C53.0062 30.6783 52.9768 30.7697 52.2996 31.0201C51.2245 31.4177 49.972 31.1091 49.5637 30.3464ZM80.0607 22.5996C78.0365 23.6223 76.9884 25.2304 76.9884 27.3135C76.9884 29.4686 77.8532 30.5447 79.9987 31.0591C81.9773 31.5339 84.2933 31.1167 85.3071 30.1025C86.6104 28.7993 85.1989 27.718 83.6874 28.8613C82.3308 29.8871 79.7736 29.3535 79.2863 27.9427C79.1171 27.4526 79.4719 27.3615 81.9537 27.2577C85.9082 27.0923 87.357 26.0103 86.7679 23.6631C86.3151 21.8588 82.6709 21.281 80.0607 22.5996ZM89.722 30.7595C86.5271 29.436 87.1762 24.331 90.765 22.5548C93.3944 21.2529 96.4615 21.7283 97.5123 23.6001C98.7022 25.7202 96.5177 27.3091 92.4121 27.3091C89.8669 27.3091 89.5206 27.5776 90.5704 28.7376C91.2873 29.5299 93.6581 29.5764 94.7383 28.8198C95.6785 28.1612 96.5112 28.4078 96.5112 29.3446C96.5112 30.8872 92.1997 31.7856 89.722 30.7595ZM55.9922 22.3893C55.8606 22.5205 55.7531 22.9106 55.7531 23.2562C55.7531 23.8015 56.0497 23.884 58.0078 23.884C59.248 23.884 60.2115 24.022 60.1485 24.1909C60.0858 24.3598 58.7524 25.5301 57.1855 26.7919C54.117 29.2634 53.7337 29.7802 54.3869 30.5673C54.9835 31.2862 63.2882 31.3215 63.2882 30.6046C63.2882 29.7323 62.1716 29.1939 60.0043 29.0216L57.8503 28.8503L60.8263 26.4432C63.1139 24.5927 63.802 23.8405 63.802 23.1894C63.802 22.3458 63.7886 22.3424 60.0166 22.2465C57.9345 22.1938 56.1233 22.2578 55.9922 22.3893ZM72.2498 24.4532C73.1153 25.2365 73.0869 27.4433 72.1998 28.3304C70.4047 30.1254 67.8712 29.1935 67.9552 26.7682C68.0346 24.4686 70.687 23.039 72.2498 24.4532ZM83.4431 25.5628C84.6066 25.1573 84.9169 24.1089 83.9798 23.7493C82.892 23.3318 81.8104 23.5612 80.7804 24.4281C80.2009 24.9158 79.7266 25.4553 79.7266 25.6269C79.7266 26.0598 82.1368 26.018 83.4431 25.5628ZM95.1544 24.0725C95.8528 24.914 94.8626 25.6042 92.6254 25.835C90.9701 26.0059 90.6875 25.9525 90.6875 25.4682C90.6875 24.7455 92.6377 23.5447 93.8139 23.543C94.3088 23.5423 94.912 23.7807 95.1544 24.0725Z" fill="#8A8F98"/>
</svg>
