<svg width="317" height="255" viewBox="0 0 317 255" fill="none" xmlns="http://www.w3.org/2000/svg">
<path d="M229.061 117.336H172.5V151.403C172.5 167.005 201.819 174.113 229.061 174.113C256.303 174.113 285.999 167.005 285.999 151.403V117.336H229.061Z" fill="#8A8F98"/>
<g filter="url(#filter0_d_21_7236)">
<path d="M229.061 82.8906H172.5V117.336C172.5 132.938 201.819 140.046 229.061 140.046C256.303 140.046 285.999 132.938 285.999 117.336V82.8906H229.061Z" fill="#8A8F98"/>
</g>
<path d="M229.061 60.1797C201.819 60.1797 172.5 67.2878 172.5 82.8906C172.5 98.4934 201.819 105.602 229.061 105.602C256.303 105.602 285.999 98.4934 285.999 82.8906C285.999 67.2878 256.303 60.1797 229.061 60.1797Z" fill="#FBF5EB"/>
<path fill-rule="evenodd" clip-rule="evenodd" d="M243.798 80.5042C243.575 80.3424 243.421 80.1664 243.327 79.9854C243.266 79.8533 243.228 79.7186 243.232 79.5783C243.24 79.1438 243.599 78.7114 244.318 78.3771L254.538 73.6188C255.982 72.9485 258.312 72.9478 259.745 73.6174C261.186 74.2848 261.183 75.3681 259.74 76.0395L254.03 78.7014L261.819 79.6673C263.787 79.9123 264.947 80.8501 264.417 81.768C263.891 82.6807 261.872 83.2232 259.905 82.9802L245.963 81.2458C245.022 81.1297 244.273 80.8567 243.798 80.5042ZM242.262 83.956C242.941 83.8414 243.701 83.8189 244.451 83.9135L258.4 85.6425C260.363 85.8871 261.526 86.8301 260.999 87.7454C260.466 88.6593 258.45 89.2035 256.488 88.9564L248.672 87.987L250.755 91.6192C251.279 92.5343 250.113 93.4751 248.143 93.7218C246.184 93.9672 244.162 93.4257 243.638 92.5106L239.916 86.0174C239.416 85.1456 240.458 84.2477 242.262 83.956ZM225.837 78.4498C225.16 78.5631 224.401 78.5844 223.652 78.4919L209.704 76.7596C207.738 76.5151 206.581 75.576 207.104 74.6588C207.632 73.745 209.651 73.2013 211.614 73.4457L219.426 74.4178L217.343 70.7845C216.82 69.8719 217.986 68.9309 219.955 68.6842C221.925 68.4376 223.937 68.9804 224.46 69.893L228.182 76.3863C228.681 77.2571 227.644 78.1556 225.837 78.4498ZM250.387 71.6641L240.158 76.4245C239.609 76.6796 238.927 76.8388 238.217 76.8991C236.341 77.0663 234.478 76.5311 233.979 75.6603L230.256 69.167C229.733 68.2544 230.904 67.3129 232.864 67.0674C234.834 66.8207 236.85 67.3631 237.373 68.2757L239.456 71.909L245.186 69.2408C246.622 68.5707 248.95 68.57 250.389 69.2374C251.826 69.909 251.825 70.9932 250.387 71.6641ZM231.668 81.4878C231.613 81.3935 231.661 81.2466 231.764 81.1589L232.833 80.3029C232.938 80.2184 233.189 80.1278 233.392 80.1024L233.449 80.0953C233.651 80.07 233.965 80.0898 234.144 80.1386L235.986 80.6302C236.171 80.6817 236.358 80.7992 236.412 80.8935L236.428 80.9199C236.481 81.013 236.444 81.1573 236.337 81.2435L235.27 82.1014C235.164 82.1861 234.916 82.2761 234.713 82.3015L234.657 82.3086C234.454 82.334 234.14 82.3144 233.958 82.2657L232.116 81.7722C231.934 81.7223 231.736 81.6073 231.683 81.5142L231.668 81.4878ZM228.023 82.6389L234.386 84.3444C234.569 84.395 234.879 84.4164 235.088 84.3901L235.453 84.3445L236.195 84.2515L236.566 84.2051C236.769 84.1796 237.019 84.0882 237.125 84.0013L240.809 81.0375C240.915 80.9537 240.955 80.807 240.902 80.7136L240.803 80.541L240.605 80.1956L240.507 80.0253C240.452 79.9298 240.26 79.8119 240.078 79.7633L233.718 78.0577C233.533 78.0072 233.22 77.9884 233.017 78.0139L232.646 78.0603L231.904 78.1533L231.539 78.1989C231.334 78.2246 231.083 78.314 230.979 78.4008L227.292 81.3647C227.187 81.4493 227.147 81.5963 227.202 81.6918L227.299 81.8621L227.497 82.2075L227.596 82.3801C227.65 82.4735 227.842 82.5911 228.023 82.6389ZM217.717 90.738L227.945 85.9809C228.493 85.7237 229.174 85.5657 229.882 85.5066C231.761 85.337 233.619 85.8716 234.119 86.7434L237.841 93.2366C238.366 94.1517 237.204 95.092 235.234 95.3386C233.265 95.5853 231.249 95.0431 230.724 94.128L228.642 90.4958L222.915 93.1613C221.478 93.8341 219.148 93.8343 217.714 93.1668C216.28 92.497 216.276 91.409 217.717 90.738ZM206.28 82.7353L214.072 83.7062L208.359 86.3631C206.917 87.0353 206.914 88.1188 208.355 88.7897C209.791 89.4566 212.122 89.4543 213.559 88.7848L223.787 84.0233C224.468 83.704 224.832 83.2916 224.86 82.8761C224.877 82.6844 224.827 82.4953 224.71 82.317C224.629 82.1876 224.513 82.0626 224.361 81.942C223.887 81.5677 223.114 81.2774 222.143 81.1546L208.193 79.4235C206.233 79.1796 204.212 79.7237 203.683 80.6392C203.15 81.5537 204.312 82.4911 206.28 82.7353Z" fill="#29B5E8"/>
<path d="M88.561 117.336H32V151.403C32 167.005 61.3186 174.113 88.561 174.113C115.803 174.113 145.499 167.005 145.499 151.403V117.336H88.561Z" fill="#8A8F98"/>
<g filter="url(#filter1_d_21_7236)">
<path d="M88.561 82.8906H32V117.336C32 132.938 61.3186 140.046 88.561 140.046C115.803 140.046 145.499 132.938 145.499 117.336V82.8906H88.561Z" fill="#8A8F98"/>
</g>
<path d="M88.561 60.1797C61.3191 60.1797 32 67.2878 32 82.8906C32 98.4934 61.3186 105.602 88.561 105.602C115.803 105.602 145.499 98.4934 145.499 82.8906C145.499 67.2878 115.803 60.1797 88.561 60.1797Z" fill="#FBF5EB"/>
<path fill-rule="evenodd" clip-rule="evenodd" d="M93.8366 80.5042C93.6146 80.3424 93.4598 80.1664 93.3657 79.9854C93.305 79.8533 93.2667 79.7186 93.2715 79.5783C93.2789 79.1438 93.6385 78.7114 94.3573 78.3771L104.577 73.6188C106.021 72.9485 108.351 72.9478 109.784 73.6174C111.225 74.2848 111.222 75.3681 109.779 76.0395L104.069 78.7014L111.858 79.6673C113.826 79.9123 114.987 80.8501 114.456 81.768C113.93 82.6807 111.911 83.2232 109.944 82.9802L96.0017 81.2458C95.0614 81.1297 94.312 80.8567 93.8366 80.5042ZM92.3015 83.956C92.9797 83.8414 93.7403 83.8189 94.4903 83.9135L108.439 85.6425C110.402 85.8871 111.565 86.8301 111.038 87.7454C110.505 88.6593 108.489 89.2035 106.527 88.9564L98.7115 87.987L100.794 91.6192C101.318 92.5343 100.152 93.4751 98.1825 93.7218C96.2226 93.9672 94.2014 93.4257 93.6768 92.5106L89.9547 86.0174C89.455 85.1456 90.497 84.2477 92.3015 83.956ZM75.8756 78.4498C75.1988 78.5631 74.4398 78.5844 73.6909 78.4919L59.7431 76.7596C57.7774 76.5151 56.6196 75.576 57.1433 74.6588C57.6711 73.745 59.6897 73.2013 61.6527 73.4457L69.4646 74.4178L67.3818 70.7845C66.8587 69.8719 68.0248 68.9309 69.9942 68.6842C71.9636 68.4376 73.9759 68.9804 74.499 69.893L78.2211 76.3863C78.7203 77.2571 77.6831 78.1556 75.8756 78.4498ZM100.426 71.6641L90.1974 76.4245C89.6479 76.6796 88.9656 76.8388 88.2563 76.8991C86.3804 77.0663 84.5169 76.5311 84.0177 75.6603L80.2955 69.167C79.7724 68.2544 80.9435 67.3129 82.9034 67.0674C84.8728 66.8207 86.8892 67.3631 87.4123 68.2757L89.495 71.909L95.2251 69.2408C96.6612 68.5707 98.9888 68.57 100.428 69.2374C101.865 69.909 101.864 70.9932 100.426 71.6641ZM81.7066 81.4878C81.6526 81.3935 81.6999 81.2466 81.8033 81.1589L82.872 80.3029C82.9772 80.2184 83.2281 80.1278 83.4312 80.1024L83.4876 80.0953C83.6903 80.07 84.0041 80.0898 84.1835 80.1386L86.0247 80.6302C86.2105 80.6817 86.3975 80.7992 86.4515 80.8935L86.4667 80.9199C86.5201 81.013 86.4831 81.1573 86.3762 81.2435L85.3087 82.1014C85.2035 82.1861 84.955 82.2761 84.7523 82.3015L84.6959 82.3086C84.4928 82.334 84.1787 82.3144 83.9971 82.2657L82.1548 81.7722C81.9726 81.7223 81.7752 81.6073 81.7218 81.5142L81.7066 81.4878ZM78.0619 82.6389L84.4249 84.3444C84.608 84.395 84.9178 84.4164 85.1271 84.3901L85.4916 84.3445L86.2339 84.2515L86.6046 84.2051C86.8077 84.1796 87.0577 84.0882 87.1642 84.0013L90.8479 81.0375C90.954 80.9537 90.9944 80.807 90.9409 80.7136L90.8419 80.541L90.6439 80.1956L90.5463 80.0253C90.4916 79.9298 90.2995 79.8119 90.1175 79.7633L83.7571 78.0577C83.5718 78.0072 83.2587 77.9884 83.0556 78.0139L82.6849 78.0603L81.9426 78.1533L81.5781 78.1989C81.3733 78.2246 81.1222 78.314 81.0178 78.4008L77.3315 81.3647C77.2264 81.4493 77.1861 81.5963 77.2408 81.6918L77.3385 81.8621L77.5364 82.2075L77.6354 82.3801C77.6889 82.4735 77.8809 82.5911 78.0619 82.6389ZM67.756 90.738L77.9839 85.9809C78.5322 85.7237 79.2129 85.5657 79.9208 85.5066C81.7997 85.337 83.6584 85.8716 84.1582 86.7434L87.8803 93.2366C88.4049 94.1517 87.2428 95.092 85.2734 95.3386C83.304 95.5853 81.2877 95.0431 80.7631 94.128L78.681 90.4958L72.9543 93.1613C71.5175 93.8341 69.187 93.8343 67.7527 93.1668C66.3193 92.497 66.315 91.409 67.756 90.738ZM56.3188 82.7353L64.111 83.7062L58.3984 86.3631C56.9563 87.0353 56.9527 88.1188 58.3938 88.7897C59.8304 89.4566 62.1615 89.4543 63.5985 88.7848L73.8264 84.0233C74.5074 83.704 74.871 83.2916 74.899 82.8761C74.9158 82.6844 74.8662 82.4953 74.7494 82.317C74.6677 82.1876 74.5523 82.0626 74.4002 81.942C73.9265 81.5677 73.1526 81.2774 72.182 81.1546L58.2322 79.4235C56.2717 79.1796 54.2512 79.7237 53.7217 80.6392C53.1894 81.5537 54.3514 82.4911 56.3188 82.7353Z" fill="#29B5E8"/>
<path d="M159.327 145.219H102.766V179.285C102.766 194.888 132.084 201.996 159.327 201.996C186.569 201.996 216.264 194.888 216.264 179.285V145.219H159.327Z" fill="#8A8F98"/>
<g filter="url(#filter2_d_21_7236)">
<path d="M159.327 111.156H102.766V145.223C102.766 160.826 132.084 167.934 159.327 167.934C186.569 167.934 216.264 160.825 216.264 145.223V111.156H159.327Z" fill="#8A8F98"/>
</g>
<g filter="url(#filter3_dd_21_7236)">
<path d="M159.327 76.7109H102.766V111.156C102.766 126.759 132.084 133.867 159.327 133.867C186.569 133.867 216.264 126.759 216.264 111.156V76.7109H159.327Z" fill="#8A8F98"/>
</g>
<path d="M159.327 54C132.085 54 102.766 61.1081 102.766 76.7109C102.766 92.3138 132.084 99.4218 159.327 99.4218C186.569 99.4218 216.264 92.3138 216.264 76.7109C216.264 61.1081 186.568 54 159.327 54Z" fill="#FBF5EB"/>
<path fill-rule="evenodd" clip-rule="evenodd" d="M168.78 74.323C168.54 74.1482 168.373 73.958 168.271 73.7622C168.205 73.6195 168.164 73.4739 168.169 73.3223C168.177 72.8526 168.566 72.3851 169.343 72.0239L180.39 66.8804C181.95 66.1559 184.469 66.1551 186.018 66.879C187.576 67.6003 187.572 68.7713 186.012 69.4971L179.841 72.3744L188.26 73.4185C190.388 73.6833 191.642 74.697 191.068 75.6891C190.5 76.6757 188.317 77.2622 186.191 76.9994L171.12 75.1247C170.104 74.9991 169.294 74.7041 168.78 74.323ZM167.121 78.0542C167.854 77.9304 168.676 77.906 169.487 78.0083L184.564 79.8772C186.686 80.1416 187.943 81.1609 187.373 82.1503C186.797 83.1381 184.618 83.7264 182.497 83.4593L174.049 82.4115L176.3 86.3377C176.867 87.3268 175.606 88.3437 173.478 88.6103C171.359 88.8757 169.174 88.2903 168.607 87.3012L164.584 80.2824C164.044 79.3401 165.17 78.3695 167.121 78.0542ZM149.365 72.1024C148.634 72.2249 147.813 72.2479 147.004 72.1479L131.927 70.2754C129.803 70.0111 128.551 68.996 129.117 68.0046C129.688 67.0168 131.87 66.4291 133.991 66.6934L142.436 67.7441L140.184 63.8167C139.619 62.8302 140.879 61.8131 143.008 61.5465C145.137 61.2799 147.312 61.8667 147.877 62.8531L151.901 69.8719C152.44 70.8132 151.319 71.7844 149.365 72.1024ZM175.903 64.7675L164.846 69.9132C164.252 70.189 163.515 70.361 162.748 70.4262C160.72 70.6069 158.706 70.0284 158.166 69.0871L154.143 62.0684C153.578 61.0819 154.843 60.0641 156.962 59.7988C159.091 59.5321 161.27 60.1184 161.836 61.1049L164.087 65.0323L170.281 62.1481C171.833 61.4237 174.349 61.423 175.905 62.1444C177.459 62.8704 177.458 64.0423 175.903 64.7675ZM155.668 75.3862C155.61 75.2843 155.661 75.1256 155.773 75.0308L156.928 74.1054C157.042 74.0142 157.313 73.9162 157.533 73.8887L157.594 73.8811C157.813 73.8537 158.152 73.8751 158.346 73.9279L160.336 74.4593C160.537 74.5149 160.739 74.6419 160.797 74.7438L160.814 74.7724C160.871 74.8731 160.831 75.0291 160.716 75.1221L159.562 76.0495C159.448 76.141 159.18 76.2384 158.961 76.2658L158.9 76.2735C158.68 76.301 158.34 76.2798 158.144 76.2271L156.153 75.6937C155.956 75.6397 155.742 75.5155 155.685 75.4148L155.668 75.3862ZM151.729 76.6305L158.607 78.474C158.805 78.5287 159.139 78.5518 159.366 78.5235L159.76 78.4741L160.562 78.3737L160.963 78.3235C161.182 78.296 161.452 78.1971 161.568 78.1032L165.549 74.8995C165.664 74.809 165.708 74.6503 165.65 74.5494L165.543 74.3628L165.329 73.9895L165.223 73.8054C165.164 73.7022 164.957 73.5748 164.76 73.5222L157.885 71.6785C157.685 71.6239 157.346 71.6037 157.127 71.6312L156.726 71.6814L155.923 71.7819L155.529 71.8312C155.308 71.859 155.037 71.9556 154.924 72.0494L150.939 75.2532C150.826 75.3447 150.782 75.5036 150.841 75.6067L150.947 75.7909L151.161 76.1642L151.268 76.3508C151.326 76.4517 151.533 76.5789 151.729 76.6305ZM140.589 85.3851L151.644 80.243C152.237 79.965 152.973 79.7942 153.738 79.7304C155.769 79.547 157.778 80.1249 158.318 81.0672L162.342 88.0859C162.909 89.0751 161.653 90.0914 159.524 90.3581C157.395 90.6247 155.216 90.0386 154.649 89.0495L152.398 85.1233L146.208 88.0046C144.655 88.7317 142.135 88.732 140.585 88.0105C139.036 87.2865 139.031 86.1103 140.589 85.3851ZM128.226 76.7348L136.649 77.7842L130.474 80.6562C128.915 81.3827 128.911 82.5539 130.469 83.2791C132.022 84 134.541 83.9975 136.095 83.2739L147.15 78.1269C147.887 77.7818 148.28 77.3361 148.31 76.8869C148.328 76.6797 148.274 76.4753 148.148 76.2826C148.06 76.1427 147.935 76.0076 147.771 75.8772C147.259 75.4726 146.422 75.1589 145.373 75.0261L130.294 73.1549C128.175 72.8912 125.991 73.4794 125.419 74.4689C124.843 75.4575 126.099 76.4707 128.226 76.7348Z" fill="#29B5E8"/>
<defs>
<filter id="filter0_d_21_7236" x="172.5" y="82.8906" width="113.499" height="59.1559" filterUnits="userSpaceOnUse" color-interpolation-filters="sRGB">
<feFlood flood-opacity="0" result="BackgroundImageFix"/>
<feColorMatrix in="SourceAlpha" type="matrix" values="0 0 0 0 0 0 0 0 0 0 0 0 0 0 0 0 0 0 127 0" result="hardAlpha"/>
<feOffset dy="2"/>
<feComposite in2="hardAlpha" operator="out"/>
<feColorMatrix type="matrix" values="0 0 0 0 1 0 0 0 0 1 0 0 0 0 1 0 0 0 1 0"/>
<feBlend mode="normal" in2="BackgroundImageFix" result="effect1_dropShadow_21_7236"/>
<feBlend mode="normal" in="SourceGraphic" in2="effect1_dropShadow_21_7236" result="shape"/>
</filter>
<filter id="filter1_d_21_7236" x="32" y="82.8906" width="113.499" height="59.1559" filterUnits="userSpaceOnUse" color-interpolation-filters="sRGB">
<feFlood flood-opacity="0" result="BackgroundImageFix"/>
<feColorMatrix in="SourceAlpha" type="matrix" values="0 0 0 0 0 0 0 0 0 0 0 0 0 0 0 0 0 0 127 0" result="hardAlpha"/>
<feOffset dy="2"/>
<feComposite in2="hardAlpha" operator="out"/>
<feColorMatrix type="matrix" values="0 0 0 0 1 0 0 0 0 1 0 0 0 0 1 0 0 0 1 0"/>
<feBlend mode="normal" in2="BackgroundImageFix" result="effect1_dropShadow_21_7236"/>
<feBlend mode="normal" in="SourceGraphic" in2="effect1_dropShadow_21_7236" result="shape"/>
</filter>
<filter id="filter2_d_21_7236" x="102.766" y="111.156" width="113.499" height="58.7775" filterUnits="userSpaceOnUse" color-interpolation-filters="sRGB">
<feFlood flood-opacity="0" result="BackgroundImageFix"/>
<feColorMatrix in="SourceAlpha" type="matrix" values="0 0 0 0 0 0 0 0 0 0 0 0 0 0 0 0 0 0 127 0" result="hardAlpha"/>
<feOffset dy="2"/>
<feComposite in2="hardAlpha" operator="out"/>
<feColorMatrix type="matrix" values="0 0 0 0 1 0 0 0 0 1 0 0 0 0 1 0 0 0 1 0"/>
<feBlend mode="normal" in2="BackgroundImageFix" result="effect1_dropShadow_21_7236"/>
<feBlend mode="normal" in="SourceGraphic" in2="effect1_dropShadow_21_7236" result="shape"/>
</filter>
<filter id="filter3_dd_21_7236" x="102.766" y="76.7109" width="113.499" height="59.1559" filterUnits="userSpaceOnUse" color-interpolation-filters="sRGB">
<feFlood flood-opacity="0" result="BackgroundImageFix"/>
<feColorMatrix in="SourceAlpha" type="matrix" values="0 0 0 0 0 0 0 0 0 0 0 0 0 0 0 0 0 0 127 0" result="hardAlpha"/>
<feOffset dy="2"/>
<feComposite in2="hardAlpha" operator="out"/>
<feColorMatrix type="matrix" values="0 0 0 0 0.160784 0 0 0 0 0.709804 0 0 0 0 0.909804 0 0 0 1 0"/>
<feBlend mode="normal" in2="BackgroundImageFix" result="effect1_dropShadow_21_7236"/>
<feColorMatrix in="SourceAlpha" type="matrix" values="0 0 0 0 0 0 0 0 0 0 0 0 0 0 0 0 0 0 127 0" result="hardAlpha"/>
<feOffset dy="2"/>
<feComposite in2="hardAlpha" operator="out"/>
<feColorMatrix type="matrix" values="0 0 0 0 1 0 0 0 0 1 0 0 0 0 1 0 0 0 1 0"/>
<feBlend mode="normal" in2="effect1_dropShadow_21_7236" result="effect2_dropShadow_21_7236"/>
<feBlend mode="normal" in="SourceGraphic" in2="effect2_dropShadow_21_7236" result="shape"/>
</filter>
</defs>
</svg>
