<svg width="73" height="32" viewBox="0 0 73 32" fill="none" xmlns="http://www.w3.org/2000/svg">
<g clip-path="url(#clip0_21_7079)">
<path d="M61.5458 0L72.1165 16.4876L63.0062 31.8786H12.5457L19.1059 18.2473H14.4778L0.671875 0H61.5458Z" fill="#8A8F98"/>
<path d="M8.54688 3.30859H15.0286L18.2862 8.28166L17.1292 3.30859H22.1843L25.4532 8.2434L24.3523 3.30859H28.3514L30.1713 13.8923H24.3411L21.3305 9.78632L22.0607 13.8923H16.6125L8.54688 3.30859ZM29.0591 3.30859H34.9679L39.933 13.8923H34.0355L29.0591 3.30859ZM41.5057 13.8923L36.5405 3.30859H42.292L45.9542 11.1125H50.8632L52.1663 13.8923H41.5057ZM63.894 12.7319C62.9279 13.8285 61.3103 13.905 59.8948 13.905H53.0987L48.1334 3.32135H56.053C59.4005 3.32135 60.8385 4.11194 61.8944 5.31057C63.0627 6.63672 64.4781 9.32727 64.4781 11.0487C64.4781 11.852 64.2197 12.3494 63.894 12.7319ZM58.5468 9.40378L57.637 7.46556C57.1651 6.44544 56.5585 5.99914 55.671 5.99914H54.9184L57.3673 11.2273H58.1088C58.6704 11.2273 59.0074 11.0359 59.0074 10.6662C58.9961 10.3729 58.8389 10.0158 58.5468 9.40378Z" fill="#191919"/>
<path d="M29.895 27.5915H19.2344L24.1995 17.0078H29.951L26.289 24.8117H31.198L29.895 27.5915ZM36.7473 27.5915H30.8385L35.8036 17.0078H41.7124L36.7473 27.5915ZM52.6651 20.0299H47.4864L46.7338 21.5729H51.5193L50.2274 24.3399H45.4532L43.903 27.5915H38.3199L43.2852 17.0078H54.0805L52.6651 20.0299ZM65.1117 19.6857H59.4388L58.7985 20.9735H64.0783L62.8651 23.5749H57.5965L56.945 24.9138H62.8201L61.562 27.5915H50.3061L55.2713 17.0078H66.3698L65.1117 19.6857Z" fill="#191919"/>
</g>
<defs>
<clipPath id="clip0_21_7079">
<rect width="72" height="32" fill="white" transform="translate(0.671875)"/>
</clipPath>
</defs>
</svg>
